{
.appVersion = "1342";
copyright = "Copyright 2020 The Shizuru Font Project Authors (https://github.com/shibuyafont/shizuru-font), all rights reserved.";
customParameters = (
{
name = vendorID;
value = SBYA;
},
{
name = panose;
value = (
2,
11,
5,
0,
0,
0,
0,
0,
0,
0
);
},
{
name = license;
value = "This Font Software is licensed under the SIL Open Font License, Version 1.1. This license is available with a FAQ at: https://scripts.sil.org/OFL";
},
{
name = licenseURL;
value = "https://scripts.sil.org/OFL";
},
{
name = fsType;
value = (
);
}
);
date = "2020-01-16 20:40:09 +0000";
designer = Shibuyafont;
designerURL = "http://www.shibuyafont.jp/index.html";
disablesAutomaticAlignment = 1;
familyName = Shizuru;
featurePrefixes = (
{
automatic = 1;
code = "languagesystem DFLT dflt;\012";
name = Languagesystems;
}
);
features = (
{
automatic = 1;
code = "feature vert;\012feature vkna;\012feature vrt2;\012";
name = aalt;
},
{
automatic = 1;

glyphs = (
{
glyphname = A;
lastChange = "2020-11-05 18:12:30 +0000";
layers = (
{
layerId = "E24ABCAD-EB1C-406E-B20D-44C7493A2261";
paths = (
{
closed = 1;
nodes = (
"411 355 OFFCURVE",
"400 487 OFFCURVE",
"387 487 CURVE SMOOTH",
"364 487 OFFCURVE",
"347 355 OFFCURVE",
"330 292 CURVE",
"420 292 LINE"
);
},
{
closed = 1;
nodes = (
"290 257 OFFCURVE",
"286 270 OFFCURVE",
"292 293 CURVE SMOOTH",
"309 350 OFFCURVE",
"325 406 OFFCURVE",
"342 464 CURVE SMOOTH",
"349 488 OFFCURVE",
"351 521 OFFCURVE",
"387 521 CURVE SMOOTH",
"421 521 OFFCURVE",
"426 489 OFFCURVE",
"431 465 CURVE SMOOTH",
"444 413 OFFCURVE",
"451 360 OFFCURVE",
"458 307 CURVE SMOOTH",
"462 273 OFFCURVE",
"448 262 OFFCURVE",
"415 261 CURVE SMOOTH",
"397 260 OFFCURVE",
"380 261 OFFCURVE",
"363 261 CURVE",
"363 261 OFFCURVE",
"332 261 OFFCURVE",
"318 260 CURVE SMOOTH"
);
},
{
closed = 1;
nodes = (
"600 205 OFFCURVE",
"616 202 OFFCURVE",
"628 208 CURVE SMOOTH",
"639 213 OFFCURVE",
"656 226 OFFCURVE",
"655 239 CURVE SMOOTH",
"653 251 OFFCURVE",
"636 258 OFFCURVE",
"624 261 CURVE SMOOTH",
"606 265 OFFCURVE",
"586 263 OFFCURVE",
"566 264 CURVE SMOOTH",
"539 266 OFFCURVE",
"519 278 OFFCURVE",
"512 306 CURVE SMOOTH",
"483 423 OFFCURVE",
"462 550 OFFCURVE",
"435 667 CURVE SMOOTH",
"429 694 OFFCURVE",
"426 715 OFFCURVE",
"422 741 CURVE SMOOTH",
"419 754 OFFCURVE",
"404 773 OFFCURVE",
"391 775 CURVE SMOOTH",
"372 780 OFFCURVE",
"354 722 OFFCURVE",
"351 712 CURVE SMOOTH",
"313 574 OFFCURVE",
"276 435 OFFCURVE",
"237 297 CURVE SMOOTH",
"224 248 OFFCURVE",
"207 239 OFFCURVE",
"154 243 CURVE SMOOTH",
"125 245 OFFCURVE",
"95 249 OFFCURVE",
"67 248 CURVE SMOOTH",
"56 247 OFFCURVE",
"40 240 OFFCURVE",
"38 228 CURVE SMOOTH",
"37 216 OFFCURVE",
"54 204 OFFCURVE",
"63 201 CURVE SMOOTH",
"87 194 OFFCURVE",
"112 193 OFFCURVE",
"136 192 CURVE SMOOTH",
"188 187 OFFCURVE",
"199 171 OFFCURVE",
"187 122 CURVE SMOOTH",
"184 111 OFFCURVE",
"178 100 OFFCURVE",
"174 89 CURVE SMOOTH",
"159 46 OFFCURVE",
"143 3 OFFCURVE",
"129 -38 CURVE SMOOTH",
"123 -55 OFFCURVE",
"119 -73 OFFCURVE",
"140 -82 CURVE SMOOTH",
"162 -91 OFFCURVE",
"183 -85 OFFCURVE",
"193 -64 CURVE SMOOTH",
"203 -44 OFFCURVE",
"210 -22 OFFCURVE",
"216 -1 CURVE SMOOTH",
"230 49 OFFCURVE",
"242 100 OFFCURVE",
"254 152 CURVE SMOOTH",
"264 187 OFFCURVE",
"288 203 OFFCURVE",
"323 204 CURVE SMOOTH",
"354 205 OFFCURVE",
"386 204 OFFCURVE",
"417 206 CURVE SMOOTH",
"448 208 OFFCURVE",
"467 193 OFFCURVE",
"472 164 CURVE SMOOTH",
"480 115 OFFCURVE",
"485 66 OFFCURVE",
"491 17 CURVE SMOOTH",
"494 -4 OFFCURVE",
"494 -27 OFFCURVE",
"501 -48 CURVE SMOOTH",
"504 -61 OFFCURVE",
"514 -78 OFFCURVE",
"532 -75 CURVE SMOOTH",
"548 -72 OFFCURVE",
"556 -61 OFFCURVE",
"559 -50 CURVE SMOOTH",
"563 -30 OFFCURVE",
"565 -7 OFFCURVE",
"561 11 CURVE SMOOTH",
"551 60 OFFCURVE",
"536 109 OFFCURVE",
"524 158 CURVE SMOOTH",
"517 189 OFFCURVE",
"528 202 OFFCURVE",
"557 205 CURVE SMOOTH",
"566 206 OFFCURVE",
"577 205 OFFCURVE",
"586 205 CURVE SMOOTH"
);
},
{
closed = 1;
nodes = (
"134 159 OFFCURVE",
"113 160 OFFCURVE",
"90 164 CURVE SMOOTH",
"71 168 OFFCURVE",
"50 173 OFFCURVE",
"32 181 CURVE SMOOTH",
"11 191 OFFCURVE",
"5 211 OFFCURVE",
"11 233 CURVE SMOOTH",
"16 256 OFFCURVE",
"31 265 OFFCURVE",
"54 265 CURVE SMOOTH",
"89 264 OFFCURVE",
"125 266 OFFCURVE",
"160 264 CURVE SMOOTH",
"190 263 OFFCURVE",
"206 273 OFFCURVE",
"215 302 CURVE SMOOTH",
"262 443 OFFCURVE",
"305 583 OFFCURVE",
"329 730 CURVE SMOOTH",
"332 752 OFFCURVE",
"344 776 OFFCURVE",
"360 792 CURVE SMOOTH",
"386 820 OFFCURVE",
"425 812 OFFCURVE",
"438 775 CURVE SMOOTH",
"449 743 OFFCURVE",
"451 708 OFFCURVE",
"458 675 CURVE SMOOTH",
"483 557 OFFCURVE",
"509 439 OFFCURVE",
"536 321 CURVE SMOOTH",
"541 294 OFFCURVE",
"559 287 OFFCURVE",
"583 290 CURVE SMOOTH",
"597 292 OFFCURVE",
"609 295 OFFCURVE",
"622 294 CURVE SMOOTH",
"652 293 OFFCURVE",
"675 271 OFFCURVE",
"677 245 CURVE SMOOTH",
"680 219 OFFCURVE",
"660 192 OFFCURVE",
"632 186 CURVE SMOOTH",
"617 183 OFFCURVE",
"599 183 OFFCURVE",
"583 183 CURVE SMOOTH",
"555 182 OFFCURVE",
"544 168 OFFCURVE",
"551 140 CURVE SMOOTH",
"561 95 OFFCURVE",
"576 51 OFFCURVE",
"582 5 CURVE SMOOTH",
"587 -20 OFFCURVE",
"584 -49 OFFCURVE",
"575 -75 CURVE SMOOTH",
"569 -90 OFFCURVE",
"545 -107 OFFCURVE",
"529 -107 CURVE SMOOTH",
"514 -107 OFFCURVE",
"492 -90 OFFCURVE",
"483 -75 CURVE SMOOTH",
"472 -60 OFFCURVE",
"472 -37 OFFCURVE",
"470 -16 CURVE SMOOTH",
"464 34 OFFCURVE",
"457 85 OFFCURVE",
"451 135 CURVE SMOOTH",
"447 167 OFFCURVE",
"432 182 OFFCURVE",
"399 178 CURVE SMOOTH",
"386 176 OFFCURVE",
"371 178 OFFCURVE",
"357 178 CURVE SMOOTH",
"296 177 OFFCURVE",
"289 172 OFFCURVE",
"271 113 CURVE SMOOTH",
"257 61 OFFCURVE",
"242 11 OFFCURVE",
"225 -38 CURVE SMOOTH",
"219 -55 OFFCURVE",
"211 -71 OFFCURVE",
"200 -86 CURVE SMOOTH",
"183 -110 OFFCURVE",
"159 -111 OFFCURVE",
"134 -101 CURVE SMOOTH",
"109 -92 OFFCURVE",
"95 -74 OFFCURVE",
"100 -49 CURVE SMOOTH",
"113 0 OFFCURVE",
"129 47 OFFCURVE",
"143 95 CURVE SMOOTH",
"149 114 OFFCURVE",
"155 134 OFFCURVE",
"163 156 CURVE"
);
}
);
vertWidth = 1000;
width = 683;
}
);
note = cid00034;
unicode = 0041;
},
{
glyphname = B;
lastChange = "2020-11-05 18:12:30 +0000";
layers = (
{
layerId = "E24ABCAD-EB1C-406E-B20D-44C7493A2261";
paths = (
{
closed = 1;
nodes = (
"321 83 OFFCURVE",
"361 78 OFFCURVE",
"400 84 CURVE SMOOTH",
"430 89 OFFCURVE",
"463 101 OFFCURVE",
"482 122 CURVE SMOOTH",
"523 165 OFFCURVE",
"510 244 OFFCURVE",
"460 313 CURVE SMOOTH",
"433 349 OFFCURVE",
"408 351 OFFCURVE",
"340 326 CURVE SMOOTH",
"337 325 OFFCURVE",
"334 324 OFFCURVE",
"331 323 CURVE SMOOTH",
"298 314 OFFCURVE",
"279 325 OFFCURVE",
"280 359 CURVE SMOOTH",
"281 397 OFFCURVE",
"287 436 OFFCURVE",
"289 475 CURVE SMOOTH",
"291 515 OFFCURVE",
"293 555 OFFCURVE",
"289 594 CURVE SMOOTH",
"286 624 OFFCURVE",
"260 631 OFFCURVE",
"213 622 CURVE SMOOTH",
"183 617 OFFCURVE",
"190 595 OFFCURVE",
"192 577 CURVE SMOOTH",
"197 542 OFFCURVE",
"206 507 OFFCURVE",
"210 472 CURVE SMOOTH",
"218 403 OFFCURVE",
"224 334 OFFCURVE",
"230 265 CURVE SMOOTH",
"232 244 OFFCURVE",
"236 225 OFFCURVE",
"265 236 CURVE SMOOTH",
"285 244 OFFCURVE",
"298 234 OFFCURVE",
"301 215 CURVE SMOOTH",
"303 196 OFFCURVE",
"303 177 OFFCURVE",
"299 158 CURVE SMOOTH",
"295 137 OFFCURVE",
"285 116 OFFCURVE",
"273 83 CURVE"
);
},
{
closed = 1;
nodes = (
"302 355 OFFCURVE",
"307 351 OFFCURVE",
"335 358 CURVE SMOOTH",
"355 364 OFFCURVE",
"377 373 OFFCURVE",
"397 372 CURVE SMOOTH",
"420 370 OFFCURVE",
"446 363 OFFCURVE",
"463 350 CURVE SMOOTH",
"533 300 OFFCURVE",
"557 189 OFFCURVE",
"514 115 CURVE SMOOTH",
"505 99 OFFCURVE",
"486 86 OFFCURVE",
"468 78 CURVE SMOOTH",
"406 51 OFFCURVE",
"338 57 OFFCURVE",
"273 61 CURVE SMOOTH",
"244 63 OFFCURVE",
"234 84 OFFCURVE",
"246 112 CURVE SMOOTH",
"254 132 OFFCURVE",
"267 150 OFFCURVE",
"275 170 CURVE SMOOTH",
"278 179 OFFCURVE",
"282 197 OFFCURVE",
"273 203 CURVE SMOOTH",
"265 210 OFFCURVE",
"252 202 OFFCURVE",
"243 198 CURVE SMOOTH",
"215 185 OFFCURVE",
"205 191 OFFCURVE",
"202 223 CURVE SMOOTH",
"190 348 OFFCURVE",
"177 474 OFFCURVE",
"164 599 CURVE SMOOTH",
"162 615 OFFCURVE",
"194 643 OFFCURVE",
"222 650 CURVE SMOOTH",
"280 664 OFFCURVE",
"319 633 OFFCURVE",
"320 574 CURVE SMOOTH",
"321 554 OFFCURVE",
"320 535 OFFCURVE",
"320 516 CURVE",
"322 515 OFFCURVE",
"314 427 OFFCURVE",
"307 384 CURVE SMOOTH"
);
},
{
closed = 1;
nodes = (
"225 -43 OFFCURVE",
"259 30 OFFCURVE",
"366 13 CURVE SMOOTH",
"422 4 OFFCURVE",
"479 15 OFFCURVE",
"524 55 CURVE SMOOTH",
"581 105 OFFCURVE",
"602 168 OFFCURVE",
"583 242 CURVE SMOOTH",
"564 316 OFFCURVE",
"537 385 OFFCURVE",
"452 407 CURVE SMOOTH",
"430 413 OFFCURVE",
"409 419 OFFCURVE",
"385 423 CURVE SMOOTH",
"368 427 OFFCURVE",
"360 435 OFFCURVE",
"362 455 CURVE SMOOTH",
"367 491 OFFCURVE",
"370 528 OFFCURVE",
"373 564 CURVE SMOOTH",
"381 687 OFFCURVE",
"288 733 OFFCURVE",
"205 691 CURVE SMOOTH",
"181 679 OFFCURVE",
"159 683 OFFCURVE",
"137 697 CURVE SMOOTH",
"111 713 OFFCURVE",
"92 703 OFFCURVE",
"88 672 CURVE SMOOTH",
"87 661 OFFCURVE",
"88 650 OFFCURVE",
"90 639 CURVE SMOOTH",
"100 582 OFFCURVE",
"113 526 OFFCURVE",
"123 469 CURVE SMOOTH",
"133 409 OFFCURVE",
"147 349 OFFCURVE",
"150 290 CURVE SMOOTH",
"158 150 OFFCURVE",
"160 11 OFFCURVE",
"164 -126 CURVE SMOOTH",
"164 -150 OFFCURVE",
"167 -171 OFFCURVE",
"198 -171 CURVE SMOOTH",
"230 -170 OFFCURVE",
"223 -145 OFFCURVE",
"224 -126 CURVE SMOOTH"
);
},
{
closed = 1;
nodes = (
"140 186 OFFCURVE",
"115 367 OFFCURVE",
"89 548 CURVE SMOOTH",
"84 577 OFFCURVE",
"74 604 OFFCURVE",
"68 633 CURVE SMOOTH",
"65 645 OFFCURVE",
"64 658 OFFCURVE",
"64 672 CURVE SMOOTH",
"64 719 OFFCURVE",
"102 743 OFFCURVE",
"143 720 CURVE SMOOTH",
"165 707 OFFCURVE",
"184 705 OFFCURVE",
"209 718 CURVE SMOOTH",
"272 754 OFFCURVE",
"348 727 OFFCURVE",
"380 662 CURVE SMOOTH",
"406 612 OFFCURVE",
"407 561 OFFCURVE",
"396 507 CURVE SMOOTH",
"387 463 OFFCURVE",
"389 458 OFFCURVE",
"434 443 CURVE SMOOTH",
"543 408 OFFCURVE",
"605 332 OFFCURVE",
"614 219 CURVE SMOOTH",
"622 105 OFFCURVE",
"558 -4 OFFCURVE",
"425 -6 CURVE SMOOTH",
"397 -7 OFFCURVE",
"371 -8 OFFCURVE",
"344 -7 CURVE SMOOTH",
"293 -5 OFFCURVE",
"264 -35 OFFCURVE",
"256 -101 CURVE SMOOTH",
"255 -114 OFFCURVE",
"256 -128 OFFCURVE",
"256 -142 CURVE SMOOTH",
"255 -179 OFFCURVE",
"241 -197 OFFCURVE",
"213 -201 CURVE SMOOTH",
"184 -205 OFFCURVE",
"152 -187 OFFCURVE",
"143 -159 CURVE SMOOTH",
"138 -146 OFFCURVE",
"137 -132 OFFCURVE",
"137 -118 CURVE SMOOTH",
"136 -78 OFFCURVE",
"136 -37 OFFCURVE",
"136 4 CURVE SMOOTH"
);
}
);
vertWidth = 1000;
width = 670;
}
);
note = cid00035;
unicode = 0042;
},
{
glyphname = C;
lastChange = "2020-11-05 18:12:30 +0000";
layers = (
{
layerId = "E24ABCAD-EB1C-406E-B20D-44C7493A2261";
paths = (
{
closed = 1;
nodes = (
"90 70 OFFCURVE",
"151 -30 OFFCURVE",
"262 -63 CURVE SMOOTH",
"323 -82 OFFCURVE",
"383 -67 OFFCURVE",
"442 -55 CURVE SMOOTH",
"501 -42 OFFCURVE",
"543 -5 OFFCURVE",
"577 42 CURVE SMOOTH",
"588 58 OFFCURVE",
"593 75 OFFCURVE",
"575 89 CURVE SMOOTH",
"557 105 OFFCURVE",
"544 94 OFFCURVE",
"531 81 CURVE SMOOTH",
"522 72 OFFCURVE",
"512 64 OFFCURVE",
"505 54 CURVE SMOOTH",
"474 16 OFFCURVE",
"431 -2 OFFCURVE",
"384 -11 CURVE SMOOTH",
"267 -33 OFFCURVE",
"194 6 OFFCURVE",
"149 116 CURVE SMOOTH",
"122 183 OFFCURVE",
"119 253 OFFCURVE",
"122 323 CURVE SMOOTH",
"127 427 OFFCURVE",
"189 500 OFFCURVE",
"288 555 CURVE SMOOTH",
"348 586 OFFCURVE",
"452 567 OFFCURVE",
"494 532 CURVE SMOOTH",
"501 526 OFFCURVE",
"509 520 OFFCURVE",
"518 517 CURVE SMOOTH",
"526 514 OFFCURVE",
"539 513 OFFCURVE",
"543 518 CURVE SMOOTH",
"548 524 OFFCURVE",
"550 537 OFFCURVE",
"548 547 CURVE SMOOTH",
"547 555 OFFCURVE",
"539 564 OFFCURVE",
"533 569 CURVE SMOOTH",
"477 618 OFFCURVE",
"413 645 OFFCURVE",
"339 632 CURVE SMOOTH",
"222 613 OFFCURVE",
"144 538 OFFCURVE",
"93 439 CURVE SMOOTH",
"69 391 OFFCURVE",
"56 281 OFFCURVE",
"69 200 CURVE SMOOTH"
);
},
{
closed = 1;
nodes = (
"400 6 OFFCURVE",
"446 28 OFFCURVE",
"484 71 CURVE SMOOTH",
"500 90 OFFCURVE",
"521 107 OFFCURVE",
"542 118 CURVE SMOOTH",
"565 132 OFFCURVE",
"587 124 OFFCURVE",
"603 103 CURVE SMOOTH",
"620 83 OFFCURVE",
"622 61 OFFCURVE",
"607 39 CURVE SMOOTH",
"555 -32 OFFCURVE",
"492 -80 OFFCURVE",
"398 -91 CURVE SMOOTH",
"334 -99 OFFCURVE",
"277 -101 OFFCURVE",
"217 -73 CURVE SMOOTH",
"135 -35 OFFCURVE",
"82 25 OFFCURVE",
"58 110 CURVE SMOOTH",
"23 235 OFFCURVE",
"19 361 OFFCURVE",
"85 477 CURVE SMOOTH",
"141 578 OFFCURVE",
"221 652 OFFCURVE",
"341 666 CURVE SMOOTH",
"431 676 OFFCURVE",
"505 646 OFFCURVE",
"566 583 CURVE SMOOTH",
"585 564 OFFCURVE",
"587 541 OFFCURVE",
"575 519 CURVE SMOOTH",
"562 495 OFFCURVE",
"540 487 OFFCURVE",
"515 494 CURVE SMOOTH",
"499 500 OFFCURVE",
"482 507 OFFCURVE",
"467 517 CURVE SMOOTH",
"393 568 OFFCURVE",
"318 558 OFFCURVE",
"248 505 CURVE SMOOTH",
"123 410 OFFCURVE",
"118 148 OFFCURVE",
"233 44 CURVE SMOOTH",
"260 20 OFFCURVE",
"278 13 OFFCURVE",
"350 12 CURVE"
);
}
);
vertWidth = 1000;
width = 657;
}
);
note = cid00036;
unicode = 0043;
},
{
glyphname = D;
lastChange = "2020-11-05 18:12:30 +0000";
layers = (
{
layerId = "E24ABCAD-EB1C-406E-B20D-44C7493A2261";
paths = (
{
closed = 1;
nodes = (
"161 83 OFFCURVE",
"162 60 OFFCURVE",
"161 36 CURVE SMOOTH",
"161 20 OFFCURVE",
"168 13 OFFCURVE",
"184 12 CURVE SMOOTH",
"252 8 OFFCURVE",
"337 53 OFFCURVE",
"365 116 CURVE SMOOTH",
"408 212 OFFCURVE",
"409 313 OFFCURVE",
"392 415 CURVE SMOOTH",
"376 509 OFFCURVE",
"299 546 OFFCURVE",
"211 531 CURVE SMOOTH",
"191 527 OFFCURVE",
"178 517 OFFCURVE",
"177 495 CURVE SMOOTH",
"172 366 OFFCURVE",
"167 236 OFFCURVE",
"161 108 CURVE SMOOTH"
);
},
{
closed = 1;
nodes = (
"152 415 OFFCURVE",
"149 442 OFFCURVE",
"147 468 CURVE SMOOTH",
"143 544 OFFCURVE",
"176 576 OFFCURVE",
"251 569 CURVE SMOOTH",
"348 561 OFFCURVE",
"429 485 OFFCURVE",
"431 387 CURVE SMOOTH",
"433 313 OFFCURVE",
"425 236 OFFCURVE",
"416 161 CURVE SMOOTH",
"410 99 OFFCURVE",
"374 58 OFFCURVE",
"318 29 CURVE SMOOTH",
"274 8 OFFCURVE",
"234 -20 OFFCURVE",
"180 -14 CURVE SMOOTH",
"141 -9 OFFCURVE",
"135 -8 OFFCURVE",
"135 31 CURVE SMOOTH",
"134 60 OFFCURVE",
"135 89 OFFCURVE",
"135 117 CURVE",
"133 117 OFFCURVE",
"145 298 OFFCURVE",
"150 389 CURVE SMOOTH"
);
},
{
closed = 1;
nodes = (
"478 474 OFFCURVE",
"454 534 OFFCURVE",
"391 576 CURVE SMOOTH",
"301 635 OFFCURVE",
"198 621 OFFCURVE",
"100 631 CURVE SMOOTH",
"62 635 OFFCURVE",
"46 596 OFFCURVE",
"67 561 CURVE SMOOTH",
"89 524 OFFCURVE",
"98 485 OFFCURVE",
"96 442 CURVE SMOOTH",
"93 390 OFFCURVE",
"89 338 OFFCURVE",
"87 286 CURVE SMOOTH",
"83 177 OFFCURVE",
"80 69 OFFCURVE",
"78 -38 CURVE SMOOTH",
"77 -63 OFFCURVE",
"87 -74 OFFCURVE",
"113 -75 CURVE SMOOTH",
"223 -78 OFFCURVE",
"321 -44 OFFCURVE",
"405 25 CURVE SMOOTH",
"434 49 OFFCURVE",
"455 80 OFFCURVE",
"461 117 CURVE SMOOTH",
"473 188 OFFCURVE",
"486 379 OFFCURVE",
"484 403 CURVE SMOOTH"
);
},
{
closed = 1;
nodes = (
"60 -100 OFFCURVE",
"42 -77 OFFCURVE",
"47 -6 CURVE SMOOTH",
"53 85 OFFCURVE",
"58 177 OFFCURVE",
"63 269 CURVE SMOOTH",
"66 327 OFFCURVE",
"71 386 OFFCURVE",
"69 443 CURVE SMOOTH",
"68 483 OFFCURVE",
"57 522 OFFCURVE",
"45 561 CURVE SMOOTH",
"28 617 OFFCURVE",
"70 677 OFFCURVE",
"126 661 CURVE SMOOTH",
"186 644 OFFCURVE",
"246 648 OFFCURVE",
"304 638 CURVE SMOOTH",
"406 621 OFFCURVE",
"505 520 OFFCURVE",
"510 416 CURVE SMOOTH",
"513 330 OFFCURVE",
"502 242 OFFCURVE",
"496 154 CURVE SMOOTH",
"489 48 OFFCURVE",
"428 -13 OFFCURVE",
"335 -56 CURVE SMOOTH",
"267 -88 OFFCURVE",
"195 -93 OFFCURVE",
"127 -100 CURVE"
);
}
);
vertWidth = 1000;
width = 541;
}
);
note = cid00037;
unicode = 0044;
},
{
glyphname = E;
lastChange = "2020-11-05 18:12:30 +0000";
layers = (
{
layerId = "E24ABCAD-EB1C-406E-B20D-44C7493A2261";
paths = (
{
closed = 1;
nodes = (
"82 67 OFFCURVE",
"80 29 OFFCURVE",
"82 -8 CURVE SMOOTH",
"84 -54 OFFCURVE",
"123 -85 OFFCURVE",
"170 -77 CURVE SMOOTH",
"192 -72 OFFCURVE",
"214 -67 OFFCURVE",
"236 -62 CURVE SMOOTH",
"342 -33 OFFCURVE",
"434 24 OFFCURVE",
"528 76 CURVE SMOOTH",
"538 82 OFFCURVE",
"555 96 OFFCURVE",
"550 109 CURVE SMOOTH",
"544 122 OFFCURVE",
"520 122 OFFCURVE",
"509 118 CURVE SMOOTH",
"469 106 OFFCURVE",
"430 88 OFFCURVE",
"392 73 CURVE SMOOTH",
"330 47 OFFCURVE",
"267 21 OFFCURVE",
"204 0 CURVE SMOOTH",
"170 -12 OFFCURVE",
"153 0 OFFCURVE",
"151 34 CURVE SMOOTH",
"148 87 OFFCURVE",
"144 140 OFFCURVE",
"144 194 CURVE SMOOTH",
"143 253 OFFCURVE",
"164 271 OFFCURVE",
"223 274 CURVE SMOOTH",
"303 277 OFFCURVE",
"382 281 OFFCURVE",
"461 287 CURVE SMOOTH",
"472 288 OFFCURVE",
"481 299 OFFCURVE",
"492 307 CURVE",
"482 315 OFFCURVE",
"473 328 OFFCURVE",
"463 330 CURVE SMOOTH",
"437 334 OFFCURVE",
"410 334 OFFCURVE",
"383 332 CURVE SMOOTH",
"320 327 OFFCURVE",
"257 320 OFFCURVE",
"194 316 CURVE SMOOTH",
"149 313 OFFCURVE",
"132 327 OFFCURVE",
"132 372 CURVE SMOOTH",
"130 423 OFFCURVE",
"131 474 OFFCURVE",
"132 523 CURVE SMOOTH",
"134 561 OFFCURVE",
"146 575 OFFCURVE",
"184 576 CURVE SMOOTH",
"259 580 OFFCURVE",
"336 581 OFFCURVE",
"411 583 CURVE SMOOTH",
"430 584 OFFCURVE",
"451 580 OFFCURVE",
"469 585 CURVE SMOOTH",
"479 588 OFFCURVE",
"491 602 OFFCURVE",
"493 613 CURVE SMOOTH",
"495 619 OFFCURVE",
"480 633 OFFCURVE",
"470 637 CURVE SMOOTH",
"458 641 OFFCURVE",
"443 642 OFFCURVE",
"429 641 CURVE SMOOTH",
"347 639 OFFCURVE",
"265 636 OFFCURVE",
"182 632 CURVE SMOOTH",
"159 631 OFFCURVE",
"135 631 OFFCURVE",
"112 628 CURVE SMOOTH",
"76 621 OFFCURVE",
"63 600 OFFCURVE",
"65 563 CURVE SMOOTH",
"72 410 OFFCURVE",
"83 104 OFFCURVE",
"82 104 CURVE"
);
},
{
closed = 1;
nodes = (
"207 560 LINE SMOOTH",
"174 559 OFFCURVE",
"160 546 OFFCURVE",
"159 513 CURVE SMOOTH",
"159 471 OFFCURVE",
"159 429 OFFCURVE",
"159 387 CURVE SMOOTH",
"159 360 OFFCURVE",
"167 344 OFFCURVE",
"202 348 CURVE SMOOTH",
"277 356 OFFCURVE",
"353 360 OFFCURVE",
"429 363 CURVE SMOOTH",
"448 364 OFFCURVE",
"470 364 OFFCURVE",
"485 356 CURVE SMOOTH",
"501 348 OFFCURVE",
"519 328 OFFCURVE",
"520 313 CURVE SMOOTH",
"521 299 OFFCURVE",
"503 277 OFFCURVE",
"488 271 CURVE SMOOTH",
"460 261 OFFCURVE",
"429 256 OFFCURVE",
"397 253 CURVE SMOOTH",
"342 249 OFFCURVE",
"286 247 OFFCURVE",
"231 244 CURVE SMOOTH",
"181 243 OFFCURVE",
"171 235 OFFCURVE",
"172 186 CURVE SMOOTH",
"173 145 OFFCURVE",
"176 103 OFFCURVE",
"178 61 CURVE SMOOTH",
"181 25 OFFCURVE",
"196 15 OFFCURVE",
"230 28 CURVE SMOOTH",
"304 58 OFFCURVE",
"378 90 OFFCURVE",
"452 120 CURVE SMOOTH",
"473 129 OFFCURVE",
"493 138 OFFCURVE",
"515 145 CURVE",
"533 153 OFFCURVE",
"552 153 OFFCURVE",
"563 133 CURVE SMOOTH",
"573 112 OFFCURVE",
"582 89 OFFCURVE",
"560 72 CURVE SMOOTH",
"537 53 OFFCURVE",
"512 34 OFFCURVE",
"485 21 CURVE SMOOTH",
"389 -22 OFFCURVE",
"299 -80 OFFCURVE",
"192 -98 CURVE SMOOTH",
"105 -113 OFFCURVE",
"53 -71 OFFCURVE",
"55 15 CURVE SMOOTH",
"57 142 OFFCURVE",
"50 267 OFFCURVE",
"37 394 CURVE SMOOTH",
"32 456 OFFCURVE",
"38 520 OFFCURVE",
"42 583 CURVE SMOOTH",
"44 618 OFFCURVE",
"72 647 OFFCURVE",
"108 650 CURVE SMOOTH",
"149 655 OFFCURVE",
"189 656 OFFCURVE",
"230 657 CURVE SMOOTH",
"305 660 OFFCURVE",
"382 664 OFFCURVE",
"457 665 CURVE SMOOTH",
"496 666 OFFCURVE",
"518 647 OFFCURVE",
"518 617 CURVE SMOOTH",
"518 590 OFFCURVE",
"491 562 OFFCURVE",
"458 560 CURVE SMOOTH",
"415 558 OFFCURVE",
"373 560 OFFCURVE",
"330 560 CURVE SMOOTH"
);
}
);
vertWidth = 1000;
width = 615;
}
);
note = cid00038;
unicode = 0045;
},
{
glyphname = F;
lastChange = "2020-11-05 18:12:30 +0000";
layers = (
{
layerId = "E24ABCAD-EB1C-406E-B20D-44C7493A2261";
paths = (
{
closed = 1;
nodes = (
"493 355 OFFCURVE",
"496 380 OFFCURVE",
"492 403 CURVE SMOOTH",
"489 416 OFFCURVE",
"481 438 OFFCURVE",
"466 437 CURVE SMOOTH",
"453 435 OFFCURVE",
"450 414 OFFCURVE",
"449 402 CURVE SMOOTH",
"445 366 OFFCURVE",
"437 355 OFFCURVE",
"402 354 CURVE SMOOTH",
"329 351 OFFCURVE",
"256 349 OFFCURVE",
"184 348 CURVE SMOOTH",
"157 347 OFFCURVE",
"144 356 OFFCURVE",
"144 385 CURVE SMOOTH",
"142 441 OFFCURVE",
"137 498 OFFCURVE",
"134 555 CURVE SMOOTH",
"132 591 OFFCURVE",
"151 614 OFFCURVE",
"188 616 CURVE SMOOTH",
"257 619 OFFCURVE",
"326 618 OFFCURVE",
"396 619 CURVE SMOOTH",
"533 621 OFFCURVE",
"518 692 OFFCURVE",
"429 691 CURVE SMOOTH",
"289 691 OFFCURVE",
"261 686 OFFCURVE",
"157 686 CURVE SMOOTH",
"144 686 OFFCURVE",
"99 679 OFFCURVE",
"86 681 CURVE SMOOTH",
"39 689 OFFCURVE",
"37 651 OFFCURVE",
"39 634 CURVE SMOOTH",
"43 601 OFFCURVE",
"57 570 OFFCURVE",
"58 538 CURVE SMOOTH",
"63 437 OFFCURVE",
"63 336 OFFCURVE",
"65 235 CURVE SMOOTH",
"66 202 OFFCURVE",
"68 168 OFFCURVE",
"68 136 CURVE SMOOTH",
"68 79 OFFCURVE",
"65 23 OFFCURVE",
"65 -32 CURVE SMOOTH",
"65 -56 OFFCURVE",
"79 -79 OFFCURVE",
"103 -75 CURVE SMOOTH",
"118 -73 OFFCURVE",
"135 -52 OFFCURVE",
"141 -36 CURVE SMOOTH",
"148 -17 OFFCURVE",
"141 3 OFFCURVE",
"142 23 CURVE SMOOTH",
"143 96 OFFCURVE",
"144 168 OFFCURVE",
"147 241 CURVE SMOOTH",
"148 272 OFFCURVE",
"166 288 OFFCURVE",
"198 289 CURVE SMOOTH",
"263 291 OFFCURVE",
"327 294 OFFCURVE",
"392 296 CURVE SMOOTH",
"421 297 OFFCURVE",
"443 289 OFFCURVE",
"449 255 CURVE SMOOTH",
"450 246 OFFCURVE",
"459 229 OFFCURVE",
"471 230 CURVE SMOOTH",
"484 230 OFFCURVE",
"491 249 OFFCURVE",
"492 260 CURVE SMOOTH",
"496 283 OFFCURVE",
"493 307 OFFCURVE",
"493 331 CURVE SMOOTH"
);
},
{
closed = 1;
nodes = (
"26 594 OFFCURVE",
"15 617 OFFCURVE",
"15 641 CURVE SMOOTH",
"14 660 OFFCURVE",
"19 682 OFFCURVE",
"30 698 CURVE SMOOTH",
"42 717 OFFCURVE",
"63 722 OFFCURVE",
"87 713 CURVE SMOOTH",
"99 708 OFFCURVE",
"111 705 OFFCURVE",
"124 706 CURVE SMOOTH",
"193 709 OFFCURVE",
"262 715 OFFCURVE",
"332 716 CURVE SMOOTH",
"383 718 OFFCURVE",
"435 717 OFFCURVE",
"488 715 CURVE SMOOTH",
"514 713 OFFCURVE",
"533 692 OFFCURVE",
"533 667 CURVE SMOOTH",
"533 650 OFFCURVE",
"520 625 OFFCURVE",
"506 619 CURVE SMOOTH",
"480 607 OFFCURVE",
"450 601 OFFCURVE",
"421 600 CURVE SMOOTH",
"350 597 OFFCURVE",
"278 599 OFFCURVE",
"206 594 CURVE SMOOTH",
"162 590 OFFCURVE",
"162 584 OFFCURVE",
"166 538 CURVE SMOOTH",
"170 493 OFFCURVE",
"172 447 OFFCURVE",
"174 402 CURVE SMOOTH",
"174 381 OFFCURVE",
"179 372 OFFCURVE",
"203 374 CURVE SMOOTH",
"264 378 OFFCURVE",
"324 378 OFFCURVE",
"384 377 CURVE SMOOTH",
"415 377 OFFCURVE",
"432 386 OFFCURVE",
"431 419 CURVE SMOOTH",
"431 443 OFFCURVE",
"440 461 OFFCURVE",
"470 460 CURVE SMOOTH",
"499 459 OFFCURVE",
"520 448 OFFCURVE",
"520 418 CURVE SMOOTH",
"521 366 OFFCURVE",
"521 313 OFFCURVE",
"520 261 CURVE SMOOTH",
"520 238 OFFCURVE",
"513 216 OFFCURVE",
"485 214 CURVE SMOOTH",
"461 213 OFFCURVE",
"442 221 OFFCURVE",
"430 246 CURVE SMOOTH",
"425 258 OFFCURVE",
"406 270 OFFCURVE",
"393 271 CURVE SMOOTH",
"331 271 OFFCURVE",
"268 267 OFFCURVE",
"205 266 CURVE SMOOTH",
"178 265 OFFCURVE",
"174 250 OFFCURVE",
"174 228 CURVE SMOOTH",
"175 148 OFFCURVE",
"177 69 OFFCURVE",
"173 -10 CURVE SMOOTH",
"172 -33 OFFCURVE",
"159 -60 OFFCURVE",
"144 -78 CURVE SMOOTH",
"120 -106 OFFCURVE",
"73 -106 OFFCURVE",
"53 -75 CURVE SMOOTH",
"42 -55 OFFCURVE",
"43 -26 OFFCURVE",
"42 -4 CURVE SMOOTH",
"40 57 OFFCURVE",
"35 441 OFFCURVE",
"27 571 CURVE SMOOTH"
);
}
);
vertWidth = 1000;
width = 551;
}
);
note = cid00039;
unicode = 0046;
},
{
glyphname = G;
lastChange = "2020-11-05 18:12:30 +0000";
layers = (
{
layerId = "E24ABCAD-EB1C-406E-B20D-44C7493A2261";
paths = (
{
closed = 1;
nodes = (
"449 117 OFFCURVE",
"455 116 OFFCURVE",
"460 115 CURVE",
"460 94 OFFCURVE",
"459 73 OFFCURVE",
"460 52 CURVE SMOOTH",
"460 15 OFFCURVE",
"460 -21 OFFCURVE",
"464 -58 CURVE",
"463 -79 OFFCURVE",
"480 -79 OFFCURVE",
"488 -79 CURVE SMOOTH",
"511 -80 OFFCURVE",
"518 -74 OFFCURVE",
"519 -28 CURVE SMOOTH",
"521 60 OFFCURVE",
"516 150 OFFCURVE",
"514 240 CURVE SMOOTH",
"513 282 OFFCURVE",
"520 290 OFFCURVE",
"562 293 CURVE SMOOTH",
"575 294 OFFCURVE",
"589 294 OFFCURVE",
"601 299 CURVE SMOOTH",
"610 303 OFFCURVE",
"621 339 OFFCURVE",
"596 345 CURVE SMOOTH",
"579 349 OFFCURVE",
"561 347 OFFCURVE",
"543 347 CURVE SMOOTH",
"489 346 OFFCURVE",
"434 345 OFFCURVE",
"379 341 CURVE SMOOTH",
"356 341 OFFCURVE",
"337 303 OFFCURVE",
"381 293 CURVE SMOOTH",
"390 291 OFFCURVE",
"402 292 OFFCURVE",
"411 293 CURVE SMOOTH",
"445 297 OFFCURVE",
"451 278 OFFCURVE",
"458 249 CURVE SMOOTH",
"472 184 OFFCURVE",
"359 74 OFFCURVE",
"294 78 CURVE SMOOTH",
"254 80 OFFCURVE",
"214 80 OFFCURVE",
"183 110 CURVE SMOOTH",
"146 145 OFFCURVE",
"125 188 OFFCURVE",
"117 239 CURVE SMOOTH",
"103 328 OFFCURVE",
"124 413 OFFCURVE",
"145 499 CURVE SMOOTH",
"162 566 OFFCURVE",
"273 629 OFFCURVE",
"352 606 CURVE SMOOTH",
"377 600 OFFCURVE",
"402 589 OFFCURVE",
"426 582 CURVE",
"442 580 OFFCURVE",
"460 578 OFFCURVE",
"474 581 CURVE SMOOTH",
"501 589 OFFCURVE",
"505 605 OFFCURVE",
"486 625 CURVE SMOOTH",
"472 638 OFFCURVE",
"456 651 OFFCURVE",
"439 660 CURVE SMOOTH",
"324 717 OFFCURVE",
"147 659 OFFCURVE",
"96 543 CURVE SMOOTH",
"72 489 OFFCURVE",
"57 430 OFFCURVE",
"51 371 CURVE SMOOTH",
"41 282 OFFCURVE",
"42 191 OFFCURVE",
"89 109 CURVE SMOOTH",
"132 32 OFFCURVE",
"229 -8 OFFCURVE",
"313 14 CURVE SMOOTH",
"372 30 OFFCURVE",
"427 49 OFFCURVE",
"445 119 CURVE"
);
},
{
closed = 1;
nodes = (
"408 32 OFFCURVE",
"381 11 OFFCURVE",
"351 -2 CURVE SMOOTH",
"238 -50 OFFCURVE",
"106 2 OFFCURVE",
"62 117 CURVE SMOOTH",
"4 265 OFFCURVE",
"11 413 OFFCURVE",
"79 555 CURVE SMOOTH",
"144 691 OFFCURVE",
"321 750 OFFCURVE",
"457 684 CURVE SMOOTH",
"472 677 OFFCURVE",
"486 665 OFFCURVE",
"499 653 CURVE SMOOTH",
"519 637 OFFCURVE",
"529 615 OFFCURVE",
"519 589 CURVE SMOOTH",
"510 562 OFFCURVE",
"486 554 OFFCURVE",
"461 556 CURVE SMOOTH",
"438 556 OFFCURVE",
"413 560 OFFCURVE",
"395 572 CURVE SMOOTH",
"314 620 OFFCURVE",
"170 552 OFFCURVE",
"159 452 CURVE SMOOTH",
"151 381 OFFCURVE",
"133 310 OFFCURVE",
"146 237 CURVE SMOOTH",
"153 194 OFFCURVE",
"172 158 OFFCURVE",
"203 128 CURVE SMOOTH",
"215 116 OFFCURVE",
"233 108 OFFCURVE",
"249 104 CURVE SMOOTH",
"311 88 OFFCURVE",
"418 159 OFFCURVE",
"431 220 CURVE SMOOTH",
"439 253 OFFCURVE",
"431 267 OFFCURVE",
"397 269 CURVE SMOOTH",
"346 270 OFFCURVE",
"328 299 OFFCURVE",
"329 321 CURVE SMOOTH",
"331 348 OFFCURVE",
"349 361 OFFCURVE",
"399 365 CURVE SMOOTH",
"451 369 OFFCURVE",
"504 374 OFFCURVE",
"556 377 CURVE SMOOTH",
"576 378 OFFCURVE",
"598 377 OFFCURVE",
"614 369 CURVE SMOOTH",
"629 360 OFFCURVE",
"643 341 OFFCURVE",
"645 324 CURVE SMOOTH",
"647 313 OFFCURVE",
"630 291 OFFCURVE",
"611 284 CURVE SMOOTH",
"549 262 OFFCURVE",
"549 262 OFFCURVE",
"548 199 CURVE SMOOTH",
"546 118 OFFCURVE",
"544 39 OFFCURVE",
"542 -40 CURVE SMOOTH",
"542 -63 OFFCURVE",
"542 -90 OFFCURVE",
"515 -99 CURVE SMOOTH",
"468 -113 OFFCURVE",
"438 -106 OFFCURVE",
"441 -52 CURVE SMOOTH",
"442 -18 OFFCURVE",
"441 16 OFFCURVE",
"441 51 CURVE"
);
}
);
vertWidth = 1000;
width = 669;
}
);
note = cid00040;
unicode = 0047;
},
{
glyphname = H;
lastChange = "2020-11-05 18:12:30 +0000";
layers = (
{
layerId = "E24ABCAD-EB1C-406E-B20D-44C7493A2261";
paths = (
{
closed = 1;
nodes = (
"438 430 OFFCURVE",
"439 392 OFFCURVE",
"438 352 CURVE SMOOTH",
"437 314 OFFCURVE",
"427 302 OFFCURVE",
"389 299 CURVE SMOOTH",
"314 294 OFFCURVE",
"238 291 OFFCURVE",
"162 288 CURVE SMOOTH",
"118 287 OFFCURVE",
"110 294 OFFCURVE",
"111 338 CURVE SMOOTH",
"112 425 OFFCURVE",
"116 511 OFFCURVE",
"118 599 CURVE SMOOTH",
"118 610 OFFCURVE",
"117 629 OFFCURVE",
"106 634 CURVE SMOOTH",
"93 640 OFFCURVE",
"73 627 OFFCURVE",
"67 618 CURVE SMOOTH",
"57 599 OFFCURVE",
"54 576 OFFCURVE",
"53 555 CURVE SMOOTH",
"51 530 OFFCURVE",
"55 505 OFFCURVE",
"55 481 CURVE SMOOTH",
"56 411 OFFCURVE",
"55 342 OFFCURVE",
"55 273 CURVE SMOOTH",
"55 264 OFFCURVE",
"58 254 OFFCURVE",
"58 245 CURVE SMOOTH",
"58 215 OFFCURVE",
"59 186 OFFCURVE",
"59 156 CURVE SMOOTH",
"58 93 OFFCURVE",
"56 29 OFFCURVE",
"57 -33 CURVE SMOOTH",
"57 -44 OFFCURVE",
"64 -62 OFFCURVE",
"76 -65 CURVE SMOOTH",
"89 -68 OFFCURVE",
"102 -52 OFFCURVE",
"108 -42 CURVE SMOOTH",
"115 -30 OFFCURVE",
"116 -15 OFFCURVE",
"116 -1 CURVE SMOOTH",
"116 59 OFFCURVE",
"114 119 OFFCURVE",
"116 179 CURVE SMOOTH",
"118 228 OFFCURVE",
"134 242 OFFCURVE",
"182 245 CURVE SMOOTH",
"240 249 OFFCURVE",
"298 250 OFFCURVE",
"355 252 CURVE SMOOTH",
"433 253 OFFCURVE",
"436 247 OFFCURVE",
"431 168 CURVE SMOOTH",
"426 102 OFFCURVE",
"427 36 OFFCURVE",
"428 -28 CURVE SMOOTH",
"428 -40 OFFCURVE",
"442 -61 OFFCURVE",
"451 -63 CURVE SMOOTH",
"472 -66 OFFCURVE",
"479 -48 OFFCURVE",
"479 -28 CURVE SMOOTH",
"481 82 OFFCURVE",
"483 194 OFFCURVE",
"486 306 CURVE SMOOTH",
"487 384 OFFCURVE",
"489 464 OFFCURVE",
"491 542 CURVE SMOOTH",
"491 564 OFFCURVE",
"493 588 OFFCURVE",
"489 609 CURVE SMOOTH",
"488 619 OFFCURVE",
"477 631 OFFCURVE",
"468 634 CURVE SMOOTH",
"461 636 OFFCURVE",
"448 625 OFFCURVE",
"444 616 CURVE SMOOTH",
"439 606 OFFCURVE",
"438 592 OFFCURVE",
"438 581 CURVE SMOOTH",
"437 544 OFFCURVE",
"438 507 OFFCURVE",
"438 469 CURVE SMOOTH"
);
},
{
closed = 1;
nodes = (
"505 -32 OFFCURVE",
"504 -40 OFFCURVE",
"500 -48 CURVE SMOOTH",
"488 -71 OFFCURVE",
"469 -84 OFFCURVE",
"442 -80 CURVE SMOOTH",
"415 -76 OFFCURVE",
"406 -56 OFFCURVE",
"406 -30 CURVE SMOOTH",
"406 186 LINE SMOOTH",
"406 232 OFFCURVE",
"406 233 OFFCURVE",
"360 231 CURVE SMOOTH",
"302 230 OFFCURVE",
"245 227 OFFCURVE",
"188 224 CURVE SMOOTH",
"158 222 OFFCURVE",
"143 208 OFFCURVE",
"143 177 CURVE SMOOTH",
"143 123 OFFCURVE",
"143 69 OFFCURVE",
"142 15 CURVE SMOOTH",
"141 -18 OFFCURVE",
"137 -49 OFFCURVE",
"110 -75 CURVE SMOOTH",
"82 -102 OFFCURVE",
"48 -94 OFFCURVE",
"38 -56 CURVE SMOOTH",
"33 -31 OFFCURVE",
"30 -6 OFFCURVE",
"30 18 CURVE SMOOTH",
"31 108 OFFCURVE",
"36 197 OFFCURVE",
"36 286 CURVE SMOOTH",
"36 383 OFFCURVE",
"33 478 OFFCURVE",
"31 574 CURVE SMOOTH",
"30 613 OFFCURVE",
"55 654 OFFCURVE",
"87 661 CURVE SMOOTH",
"123 669 OFFCURVE",
"149 651 OFFCURVE",
"148 614 CURVE SMOOTH",
"147 532 OFFCURVE",
"144 450 OFFCURVE",
"142 367 CURVE SMOOTH",
"141 319 OFFCURVE",
"142 319 OFFCURVE",
"192 319 CURVE SMOOTH",
"253 319 OFFCURVE",
"313 320 OFFCURVE",
"373 319 CURVE SMOOTH",
"401 319 OFFCURVE",
"412 330 OFFCURVE",
"413 357 CURVE SMOOTH",
"414 435 OFFCURVE",
"415 511 OFFCURVE",
"417 589 CURVE SMOOTH",
"418 602 OFFCURVE",
"420 618 OFFCURVE",
"424 630 CURVE SMOOTH",
"434 654 OFFCURVE",
"453 662 OFFCURVE",
"478 657 CURVE SMOOTH",
"501 652 OFFCURVE",
"513 638 OFFCURVE",
"513 614 CURVE SMOOTH",
"513 463 LINE",
"514 463 OFFCURVE",
"510 76 OFFCURVE",
"505 -24 CURVE SMOOTH"
);
}
);
vertWidth = 1000;
width = 550;
}
);
note = cid00041;
unicode = 0048;
},
{
glyphname = I;
lastChange = "2020-11-05 18:12:30 +0000";
layers = (
{
layerId = "E24ABCAD-EB1C-406E-B20D-44C7493A2261";
paths = (
{
closed = 1;
nodes = (
"319 -80 OFFCURVE",
"429 -74 OFFCURVE",
"484 -74 CURVE SMOOTH",
"501 -74 OFFCURVE",
"518 -73 OFFCURVE",
"519 -50 CURVE SMOOTH",
"520 -27 OFFCURVE",
"504 -21 OFFCURVE",
"485 -21 CURVE SMOOTH",
"450 -21 OFFCURVE",
"415 -22 OFFCURVE",
"380 -22 CURVE SMOOTH",
"336 -22 OFFCURVE",
"311 -3 OFFCURVE",
"305 39 CURVE SMOOTH",
"300 77 OFFCURVE",
"299 116 OFFCURVE",
"300 153 CURVE SMOOTH",
"301 225 OFFCURVE",
"306 298 OFFCURVE",
"307 370 CURVE SMOOTH",
"307 443 OFFCURVE",
"305 517 OFFCURVE",
"303 590 CURVE SMOOTH",
"303 614 OFFCURVE",
"314 623 OFFCURVE",
"337 624 CURVE SMOOTH",
"371 624 OFFCURVE",
"404 626 OFFCURVE",
"438 630 CURVE SMOOTH",
"458 631 OFFCURVE",
"489 620 OFFCURVE",
"489 654 CURVE SMOOTH",
"489 684 OFFCURVE",
"466 690 OFFCURVE",
"437 690 CURVE",
"432 691 OFFCURVE",
"428 690 OFFCURVE",
"423 690 CURVE SMOOTH",
"314 687 OFFCURVE",
"205 684 OFFCURVE",
"96 683 CURVE SMOOTH",
"74 683 OFFCURVE",
"54 679 OFFCURVE",
"56 652 CURVE SMOOTH",
"57 625 OFFCURVE",
"77 623 OFFCURVE",
"99 625 CURVE SMOOTH",
"131 628 OFFCURVE",
"162 629 OFFCURVE",
"193 630 CURVE SMOOTH",
"219 631 OFFCURVE",
"233 619 OFFCURVE",
"234 594 CURVE SMOOTH",
"237 566 OFFCURVE",
"241 538 OFFCURVE",
"241 510 CURVE SMOOTH",
"242 351 OFFCURVE",
"243 193 OFFCURVE",
"242 34 CURVE SMOOTH",
"242 -11 OFFCURVE",
"233 -19 OFFCURVE",
"187 -21 CURVE SMOOTH",
"152 -22 OFFCURVE",
"117 -21 OFFCURVE",
"81 -25 CURVE SMOOTH",
"72 -26 OFFCURVE",
"57 -36 OFFCURVE",
"56 -45 CURVE SMOOTH",
"55 -54 OFFCURVE",
"67 -69 OFFCURVE",
"76 -72 CURVE SMOOTH",
"92 -78 OFFCURVE",
"110 -80 OFFCURVE",
"127 -80 CURVE SMOOTH",
"191 -81 OFFCURVE",
"255 -80 OFFCURVE",
"319 -80 CURVE"
);
},
{
closed = 1;
nodes = (
"219 545 LINE SMOOTH",
"219 594 OFFCURVE",
"207 604 OFFCURVE",
"159 602 CURVE SMOOTH",
"128 601 OFFCURVE",
"96 602 OFFCURVE",
"66 609 CURVE SMOOTH",
"42 615 OFFCURVE",
"18 631 OFFCURVE",
"24 664 CURVE SMOOTH",
"29 693 OFFCURVE",
"54 704 OFFCURVE",
"81 706 CURVE SMOOTH",
"117 710 OFFCURVE",
"153 712 OFFCURVE",
"189 713 CURVE SMOOTH",
"278 714 OFFCURVE",
"366 714 OFFCURVE",
"454 713 CURVE SMOOTH",
"468 713 OFFCURVE",
"489 711 OFFCURVE",
"496 702 CURVE SMOOTH",
"509 687 OFFCURVE",
"519 666 OFFCURVE",
"520 646 CURVE SMOOTH",
"521 621 OFFCURVE",
"501 609 OFFCURVE",
"477 608 CURVE SMOOTH",
"442 606 OFFCURVE",
"407 605 OFFCURVE",
"373 607 CURVE SMOOTH",
"342 609 OFFCURVE",
"331 598 OFFCURVE",
"332 567 CURVE SMOOTH",
"333 487 OFFCURVE",
"333 407 OFFCURVE",
"332 327 CURVE SMOOTH",
"331 240 OFFCURVE",
"327 153 OFFCURVE",
"326 65 CURVE SMOOTH",
"325 5 OFFCURVE",
"333 0 OFFCURVE",
"393 0 CURVE SMOOTH",
"428 0 OFFCURVE",
"462 -2 OFFCURVE",
"497 -5 CURVE SMOOTH",
"526 -8 OFFCURVE",
"541 -27 OFFCURVE",
"540 -54 CURVE SMOOTH",
"540 -81 OFFCURVE",
"522 -97 OFFCURVE",
"495 -97 CURVE SMOOTH",
"430 -99 OFFCURVE",
"364 -99 OFFCURVE",
"297 -99 CURVE SMOOTH",
"274 -99 OFFCURVE",
"251 -99 OFFCURVE",
"228 -99 CURVE SMOOTH",
"180 -101 OFFCURVE",
"134 -105 OFFCURVE",
"86 -104 CURVE SMOOTH",
"54 -104 OFFCURVE",
"29 -76 OFFCURVE",
"30 -48 CURVE SMOOTH",
"31 -21 OFFCURVE",
"53 -2 OFFCURVE",
"88 0 CURVE SMOOTH",
"117 0 OFFCURVE",
"145 0 OFFCURVE",
"175 0 CURVE SMOOTH",
"207 -1 OFFCURVE",
"219 10 OFFCURVE",
"218 42 CURVE SMOOTH",
"217 127 OFFCURVE",
"218 212 OFFCURVE",
"218 297 CURVE",
"219 297 LINE"
);
}
);
vertWidth = 1000;
width = 561;
}
);
note = cid00042;
unicode = 0049;
},
{
glyphname = J;
lastChange = "2020-11-05 18:12:30 +0000";
layers = (
{
layerId = "E24ABCAD-EB1C-406E-B20D-44C7493A2261";
paths = (
{
closed = 1;
nodes = (
"298 26 OFFCURVE",
"279 -2 OFFCURVE",
"240 -10 CURVE SMOOTH",
"206 -18 OFFCURVE",
"184 -3 OFFCURVE",
"160 39 CURVE SMOOTH",
"148 59 OFFCURVE",
"139 80 OFFCURVE",
"126 99 CURVE SMOOTH",
"115 116 OFFCURVE",
"98 136 OFFCURVE",
"73 125 CURVE SMOOTH",
"50 115 OFFCURVE",
"49 91 OFFCURVE",
"56 67 CURVE SMOOTH",
"70 22 OFFCURVE",
"100 -11 OFFCURVE",
"138 -40 CURVE SMOOTH",
"185 -77 OFFCURVE",
"239 -84 OFFCURVE",
"294 -60 CURVE SMOOTH",
"346 -36 OFFCURVE",
"374 10 OFFCURVE",
"375 67 CURVE SMOOTH",
"378 192 OFFCURVE",
"376 318 OFFCURVE",
"376 444 CURVE SMOOTH",
"376 481 OFFCURVE",
"375 519 OFFCURVE",
"372 556 CURVE SMOOTH",
"367 600 OFFCURVE",
"385 624 OFFCURVE",
"429 627 CURVE SMOOTH",
"452 629 OFFCURVE",
"475 626 OFFCURVE",
"499 629 CURVE SMOOTH",
"509 630 OFFCURVE",
"528 637 OFFCURVE",
"529 650 CURVE SMOOTH",
"530 663 OFFCURVE",
"511 672 OFFCURVE",
"500 676 CURVE SMOOTH",
"488 681 OFFCURVE",
"472 678 OFFCURVE",
"457 678 CURVE SMOOTH",
"333 677 OFFCURVE",
"208 675 OFFCURVE",
"83 674 CURVE SMOOTH",
"60 674 OFFCURVE",
"58 662 OFFCURVE",
"67 647 CURVE",
"76 637 OFFCURVE",
"90 626 OFFCURVE",
"102 625 CURVE SMOOTH",
"153 622 OFFCURVE",
"205 621 OFFCURVE",
"256 622 CURVE SMOOTH",
"298 624 OFFCURVE",
"312 615 OFFCURVE",
"313 574 CURVE SMOOTH",
"314 485 OFFCURVE",
"313 101 OFFCURVE",
"305 62 CURVE SMOOTH"
);
},
{
closed = 1;
nodes = (
"538 691 OFFCURVE",
"553 670 OFFCURVE",
"552 655 CURVE SMOOTH",
"550 640 OFFCURVE",
"531 621 OFFCURVE",
"515 615 CURVE SMOOTH",
"492 607 OFFCURVE",
"465 608 OFFCURVE",
"440 604 CURVE SMOOTH",
"413 602 OFFCURVE",
"401 591 OFFCURVE",
"402 559 CURVE SMOOTH",
"407 462 OFFCURVE",
"406 365 OFFCURVE",
"407 267 CURVE SMOOTH",
"407 200 OFFCURVE",
"410 133 OFFCURVE",
"405 66 CURVE SMOOTH",
"397 -40 OFFCURVE",
"320 -110 OFFCURVE",
"215 -100 CURVE SMOOTH",
"179 -98 OFFCURVE",
"139 -79 OFFCURVE",
"112 -54 CURVE SMOOTH",
"79 -21 OFFCURVE",
"22 50 OFFCURVE",
"28 101 CURVE SMOOTH",
"30 124 OFFCURVE",
"57 147 OFFCURVE",
"71 150 CURVE SMOOTH",
"88 153 OFFCURVE",
"112 141 OFFCURVE",
"129 128 CURVE SMOOTH",
"144 116 OFFCURVE",
"153 95 OFFCURVE",
"166 78 CURVE SMOOTH",
"175 64 OFFCURVE",
"183 47 OFFCURVE",
"195 38 CURVE SMOOTH",
"210 28 OFFCURVE",
"230 17 OFFCURVE",
"245 21 CURVE SMOOTH",
"258 24 OFFCURVE",
"275 44 OFFCURVE",
"277 60 CURVE SMOOTH",
"286 119 OFFCURVE",
"295 180 OFFCURVE",
"295 241 CURVE SMOOTH",
"295 349 OFFCURVE",
"288 457 OFFCURVE",
"285 565 CURVE SMOOTH",
"283 595 OFFCURVE",
"271 604 OFFCURVE",
"241 602 CURVE SMOOTH",
"199 598 OFFCURVE",
"157 599 OFFCURVE",
"115 601 CURVE SMOOTH",
"97 602 OFFCURVE",
"79 610 OFFCURVE",
"62 618 CURVE SMOOTH",
"41 628 OFFCURVE",
"36 646 OFFCURVE",
"43 668 CURVE SMOOTH",
"49 691 OFFCURVE",
"63 701 OFFCURVE",
"86 701 CURVE SMOOTH",
"308 701 LINE",
"308 701 OFFCURVE",
"513 710 OFFCURVE",
"524 701 CURVE SMOOTH"
);
}
);
vertWidth = 1000;
width = 580;
}
);
note = cid00043;
unicode = 004A;
},
{
glyphname = K;
lastChange = "2020-11-05 18:12:30 +0000";
layers = (
{
layerId = "E24ABCAD-EB1C-406E-B20D-44C7493A2261";
paths = (
{
closed = 1;
nodes = (
"138 230 LINE",
"138 266 LINE SMOOTH",
"138 332 OFFCURVE",
"158 364 OFFCURVE",
"220 390 CURVE SMOOTH",
"259 406 OFFCURVE",
"266 404 OFFCURVE",
"281 364 CURVE SMOOTH",
"317 261 OFFCURVE",
"351 157 OFFCURVE",
"385 52 CURVE SMOOTH",
"393 28 OFFCURVE",
"396 2 OFFCURVE",
"405 -21 CURVE SMOOTH",
"414 -43 OFFCURVE",
"430 -60 OFFCURVE",
"458 -49 CURVE SMOOTH",
"487 -37 OFFCURVE",
"480 -16 OFFCURVE",
"472 4 CURVE SMOOTH",
"433 112 OFFCURVE",
"392 220 OFFCURVE",
"353 328 CURVE SMOOTH",
"312 437 OFFCURVE",
"312 437 OFFCURVE",
"395 519 CURVE SMOOTH",
"432 557 OFFCURVE",
"469 596 OFFCURVE",
"504 635 CURVE SMOOTH",
"511 643 OFFCURVE",
"518 661 OFFCURVE",
"510 671 CURVE SMOOTH",
"503 680 OFFCURVE",
"484 677 OFFCURVE",
"476 671 CURVE",
"453 659 OFFCURVE",
"434 642 OFFCURVE",
"414 626 CURVE SMOOTH",
"343 565 OFFCURVE",
"273 504 OFFCURVE",
"201 445 CURVE SMOOTH",
"190 436 OFFCURVE",
"169 430 OFFCURVE",
"156 435 CURVE SMOOTH",
"148 437 OFFCURVE",
"144 460 OFFCURVE",
"144 474 CURVE SMOOTH",
"145 528 OFFCURVE",
"148 582 OFFCURVE",
"149 636 CURVE SMOOTH",
"150 669 OFFCURVE",
"131 692 OFFCURVE",
"108 691 CURVE SMOOTH",
"85 691 OFFCURVE",
"74 669 OFFCURVE",
"76 633 CURVE SMOOTH",
"76 630 LINE SMOOTH",
"78 585 OFFCURVE",
"81 539 OFFCURVE",
"80 494 CURVE SMOOTH",
"80 446 OFFCURVE",
"76 399 OFFCURVE",
"75 351 CURVE SMOOTH",
"73 285 OFFCURVE",
"71 220 OFFCURVE",
"69 154 CURVE SMOOTH",
"68 97 OFFCURVE",
"68 41 OFFCURVE",
"68 -13 CURVE SMOOTH",
"68 -34 OFFCURVE",
"80 -52 OFFCURVE",
"102 -49 CURVE",
"111 -49 OFFCURVE",
"124 -31 OFFCURVE",
"129 -18 CURVE SMOOTH",
"135 0 OFFCURVE",
"136 21 OFFCURVE",
"137 41 CURVE SMOOTH",
"138 104 OFFCURVE",
"137 167 OFFCURVE",
"137 230 CURVE"
);
},
{
closed = 1;
nodes = (
"203 483 OFFCURVE",
"226 497 OFFCURVE",
"246 514 CURVE SMOOTH",
"313 569 OFFCURVE",
"378 625 OFFCURVE",
"444 679 CURVE SMOOTH",
"454 688 OFFCURVE",
"468 698 OFFCURVE",
"480 698 CURVE SMOOTH",
"496 698 OFFCURVE",
"518 693 OFFCURVE",
"527 681 CURVE SMOOTH",
"541 664 OFFCURVE",
"552 639 OFFCURVE",
"529 617 CURVE SMOOTH",
"503 592 OFFCURVE",
"476 569 OFFCURVE",
"450 545 CURVE SMOOTH",
"443 538 OFFCURVE",
"436 531 OFFCURVE",
"429 524 CURVE SMOOTH",
"375 467 OFFCURVE",
"345 412 OFFCURVE",
"385 328 CURVE SMOOTH",
"432 225 OFFCURVE",
"462 113 OFFCURVE",
"499 6 CURVE SMOOTH",
"514 -34 OFFCURVE",
"504 -55 OFFCURVE",
"466 -69 CURVE SMOOTH",
"430 -83 OFFCURVE",
"403 -73 OFFCURVE",
"389 -32 CURVE SMOOTH",
"362 42 OFFCURVE",
"338 120 OFFCURVE",
"313 197 CURVE SMOOTH",
"297 247 OFFCURVE",
"279 295 OFFCURVE",
"263 345 CURVE SMOOTH",
"254 374 OFFCURVE",
"238 375 OFFCURVE",
"217 360 CURVE SMOOTH",
"185 339 OFFCURVE",
"165 312 OFFCURVE",
"165 272 CURVE SMOOTH",
"165 191 OFFCURVE",
"165 110 OFFCURVE",
"165 28 CURVE SMOOTH",
"164 5 OFFCURVE",
"156 -17 OFFCURVE",
"154 -40 CURVE SMOOTH",
"150 -67 OFFCURVE",
"131 -72 OFFCURVE",
"110 -75 CURVE",
"85 -76 OFFCURVE",
"65 -72 OFFCURVE",
"57 -47 CURVE SMOOTH",
"51 -24 OFFCURVE",
"46 -1 OFFCURVE",
"46 22 CURVE SMOOTH",
"48 125 OFFCURVE",
"54 229 OFFCURVE",
"55 333 CURVE SMOOTH",
"55 433 OFFCURVE",
"52 533 OFFCURVE",
"47 633 CURVE SMOOTH",
"44 689 OFFCURVE",
"63 725 OFFCURVE",
"102 726 CURVE SMOOTH",
"143 729 OFFCURVE",
"173 691 OFFCURVE",
"173 638 CURVE SMOOTH",
"173 473 LINE",
"175 472 OFFCURVE",
"179 470 OFFCURVE",
"182 467 CURVE"
);
}
);
vertWidth = 1000;
width = 563;
}
);
note = cid00044;
unicode = 004B;
},
{
glyphname = L;
lastChange = "2020-11-05 18:12:30 +0000";
layers = (
{
layerId = "E24ABCAD-EB1C-406E-B20D-44C7493A2261";
paths = (
{
closed = 1;
nodes = (
"219 22 LINE SMOOTH",
"126 22 OFFCURVE",
"117 32 OFFCURVE",
"119 126 CURVE SMOOTH",
"119 127 OFFCURVE",
"119 128 OFFCURVE",
"120 129 CURVE",
"125 245 OFFCURVE",
"133 361 OFFCURVE",
"137 477 CURVE SMOOTH",
"139 537 OFFCURVE",
"135 596 OFFCURVE",
"131 657 CURVE SMOOTH",
"130 684 OFFCURVE",
"107 697 OFFCURVE",
"86 680 CURVE SMOOTH",
"71 669 OFFCURVE",
"58 648 OFFCURVE",
"58 630 CURVE SMOOTH",
"56 561 OFFCURVE",
"63 492 OFFCURVE",
"62 424 CURVE SMOOTH",
"60 313 OFFCURVE",
"54 202 OFFCURVE",
"50 92 CURVE SMOOTH",
"50 63 OFFCURVE",
"48 33 OFFCURVE",
"50 3 CURVE SMOOTH",
"53 -23 OFFCURVE",
"67 -40 OFFCURVE",
"100 -39 CURVE SMOOTH",
"220 -35 OFFCURVE",
"340 -35 OFFCURVE",
"461 -33 CURVE SMOOTH",
"471 -32 OFFCURVE",
"487 -26 OFFCURVE",
"491 -18 CURVE SMOOTH",
"495 -8 OFFCURVE",
"495 14 OFFCURVE",
"488 19 CURVE SMOOTH",
"474 28 OFFCURVE",
"455 34 OFFCURVE",
"437 33 CURVE SMOOTH",
"381 30 OFFCURVE",
"267 22 OFFCURVE",
"267 22 CURVE"
);
},
{
closed = 1;
nodes = (
"142 54 OFFCURVE",
"156 43 OFFCURVE",
"214 46 CURVE SMOOTH",
"272 48 OFFCURVE",
"329 54 OFFCURVE",
"387 55 CURVE SMOOTH",
"417 57 OFFCURVE",
"446 55 OFFCURVE",
"475 52 CURVE SMOOTH",
"502 49 OFFCURVE",
"518 30 OFFCURVE",
"525 5 CURVE SMOOTH",
"536 -35 OFFCURVE",
"523 -57 OFFCURVE",
"480 -60 CURVE SMOOTH",
"379 -67 OFFCURVE",
"286 -65 OFFCURVE",
"185 -69 CURVE SMOOTH",
"147 -69 OFFCURVE",
"100 -73 OFFCURVE",
"62 -66 CURVE SMOOTH",
"52 -64 OFFCURVE",
"39 -50 OFFCURVE",
"37 -40 CURVE SMOOTH",
"29 -6 OFFCURVE",
"22 29 OFFCURVE",
"22 65 CURVE SMOOTH",
"24 249 OFFCURVE",
"29 433 OFFCURVE",
"33 616 CURVE SMOOTH",
"34 638 OFFCURVE",
"38 660 OFFCURVE",
"45 680 CURVE SMOOTH",
"55 706 OFFCURVE",
"73 725 OFFCURVE",
"104 721 CURVE SMOOTH",
"134 719 OFFCURVE",
"156 698 OFFCURVE",
"158 665 CURVE SMOOTH",
"161 627 OFFCURVE",
"158 588 OFFCURVE",
"158 550 CURVE",
"160 550 OFFCURVE",
"149 266 OFFCURVE",
"144 124 CURVE SMOOTH"
);
}
);
vertWidth = 1000;
width = 542;
}
);
note = cid00045;
unicode = 004C;
},
{
glyphname = M;
lastChange = "2020-11-05 18:12:30 +0000";
layers = (
{
layerId = "E24ABCAD-EB1C-406E-B20D-44C7493A2261";
paths = (
{
closed = 1;
nodes = (
"579 44 OFFCURVE",
"578 4 OFFCURVE",
"585 -32 CURVE SMOOTH",
"589 -47 OFFCURVE",
"607 -70 OFFCURVE",
"620 -70 CURVE SMOOTH",
"634 -70 OFFCURVE",
"651 -51 OFFCURVE",
"661 -36 CURVE SMOOTH",
"666 -27 OFFCURVE",
"664 -12 OFFCURVE",
"661 0 CURVE SMOOTH",
"641 64 OFFCURVE",
"651 128 OFFCURVE",
"653 194 CURVE SMOOTH",
"660 349 OFFCURVE",
"661 504 OFFCURVE",
"663 659 CURVE SMOOTH",
"663 672 OFFCURVE",
"658 693 OFFCURVE",
"645 696 CURVE SMOOTH",
"631 700 OFFCURVE",
"616 684 OFFCURVE",
"609 674 CURVE SMOOTH",
"528 562 OFFCURVE",
"449 449 OFFCURVE",
"370 336 CURVE SMOOTH",
"353 310 OFFCURVE",
"337 309 OFFCURVE",
"321 336 CURVE SMOOTH",
"294 382 OFFCURVE",
"268 428 OFFCURVE",
"244 475 CURVE SMOOTH",
"211 538 OFFCURVE",
"180 603 OFFCURVE",
"146 666 CURVE SMOOTH",
"136 684 OFFCURVE",
"121 704 OFFCURVE",
"94 695 CURVE SMOOTH",
"67 686 OFFCURVE",
"70 664 OFFCURVE",
"71 643 CURVE SMOOTH",
"73 552 OFFCURVE",
"77 461 OFFCURVE",
"76 370 CURVE SMOOTH",
"76 239 OFFCURVE",
"70 108 OFFCURVE",
"66 -22 CURVE SMOOTH",
"65 -52 OFFCURVE",
"82 -77 OFFCURVE",
"104 -79 CURVE SMOOTH",
"130 -81 OFFCURVE",
"156 -60 OFFCURVE",
"158 -31 CURVE SMOOTH",
"160 -17 OFFCURVE",
"158 -4 OFFCURVE",
"157 9 CURVE SMOOTH",
"154 64 OFFCURVE",
"148 118 OFFCURVE",
"147 173 CURVE SMOOTH",
"143 247 OFFCURVE",
"141 321 OFFCURVE",
"140 395 CURVE SMOOTH",
"140 407 OFFCURVE",
"143 429 OFFCURVE",
"157 433 CURVE SMOOTH",
"169 437 OFFCURVE",
"181 422 OFFCURVE",
"187 412 CURVE SMOOTH",
"228 351 OFFCURVE",
"265 288 OFFCURVE",
"307 226 CURVE SMOOTH",
"332 188 OFFCURVE",
"358 187 OFFCURVE",
"385 221 CURVE SMOOTH",
"434 283 OFFCURVE",
"481 344 OFFCURVE",
"530 406 CURVE SMOOTH",
"536 414 OFFCURVE",
"544 423 OFFCURVE",
"551 429 CURVE SMOOTH",
"566 442 OFFCURVE",
"577 435 OFFCURVE",
"581 418 CURVE SMOOTH",
"584 408 OFFCURVE",
"584 397 OFFCURVE",
"584 387 CURVE SMOOTH",
"584 286 OFFCURVE",
"579 82 OFFCURVE",
"576 82 CURVE"
);
},
{
closed = 1;
nodes = (
"392 400 OFFCURVE",
"430 451 OFFCURVE",
"465 503 CURVE SMOOTH",
"506 562 OFFCURVE",
"544 622 OFFCURVE",
"584 682 CURVE SMOOTH",
"591 693 OFFCURVE",
"601 707 OFFCURVE",
"612 711 CURVE SMOOTH",
"631 718 OFFCURVE",
"652 721 OFFCURVE",
"671 717 CURVE SMOOTH",
"679 715 OFFCURVE",
"688 691 OFFCURVE",
"688 676 CURVE SMOOTH",
"686 492 OFFCURVE",
"682 308 OFFCURVE",
"680 124 CURVE SMOOTH",
"680 78 OFFCURVE",
"683 32 OFFCURVE",
"687 -13 CURVE SMOOTH",
"688 -53 OFFCURVE",
"669 -86 OFFCURVE",
"631 -98 CURVE SMOOTH",
"592 -110 OFFCURVE",
"561 -91 OFFCURVE",
"555 -51 CURVE SMOOTH",
"552 -31 OFFCURVE",
"553 -10 OFFCURVE",
"553 10 CURVE SMOOTH",
"555 114 OFFCURVE",
"559 218 OFFCURVE",
"561 323 CURVE SMOOTH",
"561 344 OFFCURVE",
"557 366 OFFCURVE",
"555 387 CURVE",
"553 387 OFFCURVE",
"550 388 OFFCURVE",
"547 389 CURVE",
"526 366 OFFCURVE",
"505 343 OFFCURVE",
"486 317 CURVE SMOOTH",
"458 282 OFFCURVE",
"433 245 OFFCURVE",
"406 209 CURVE SMOOTH",
"364 154 OFFCURVE",
"329 153 OFFCURVE",
"288 209 CURVE SMOOTH",
"256 253 OFFCURVE",
"229 303 OFFCURVE",
"200 350 CURVE SMOOTH",
"195 358 OFFCURVE",
"190 366 OFFCURVE",
"178 372 CURVE",
"178 216 LINE SMOOTH",
"178 181 OFFCURVE",
"180 145 OFFCURVE",
"180 109 CURVE SMOOTH",
"181 84 OFFCURVE",
"182 59 OFFCURVE",
"181 34 CURVE SMOOTH",
"180 5 OFFCURVE",
"180 -23 OFFCURVE",
"175 -51 CURVE SMOOTH",
"169 -82 OFFCURVE",
"139 -101 OFFCURVE",
"109 -98 CURVE SMOOTH",
"73 -96 OFFCURVE",
"49 -75 OFFCURVE",
"49 -39 CURVE SMOOTH",
"49 29 OFFCURVE",
"51 100 OFFCURVE",
"53 170 CURVE SMOOTH",
"53 190 OFFCURVE",
"56 211 OFFCURVE",
"55 232 CURVE SMOOTH",
"51 347 OFFCURVE",
"47 461 OFFCURVE",
"43 576 CURVE SMOOTH",
"42 606 OFFCURVE",
"46 636 OFFCURVE",
"48 666 CURVE SMOOTH",
"49 697 OFFCURVE",
"67 715 OFFCURVE",
"96 720 CURVE SMOOTH",
"128 726 OFFCURVE",
"153 713 OFFCURVE",
"167 684 CURVE SMOOTH",
"199 616 OFFCURVE",
"229 548 OFFCURVE",
"264 481 CURVE SMOOTH",
"287 435 OFFCURVE",
"316 393 OFFCURVE",
"342 350 CURVE",
"356 350 LINE"
);
}
);
vertWidth = 1000;
width = 731;
}
);
note = cid00046;
unicode = 004D;
},
{
glyphname = N;
lastChange = "2020-11-05 18:12:30 +0000";
layers = (
{
layerId = "E24ABCAD-EB1C-406E-B20D-44C7493A2261";
paths = (
{
closed = 1;
nodes = (
"226 497 OFFCURVE",
"210 480 OFFCURVE",
"213 461 CURVE SMOOTH",
"213 460 LINE SMOOTH",
"217 433 OFFCURVE",
"232 403 OFFCURVE",
"223 379 CURVE SMOOTH",
"201 319 OFFCURVE",
"176 258 OFFCURVE",
"141 204 CURVE SMOOTH",
"93 132 OFFCURVE",
"71 51 OFFCURVE",
"42 -26 CURVE",
"40 -29 OFFCURVE",
"39 -36 OFFCURVE",
"42 -38 CURVE",
"48 -50 OFFCURVE",
"54 -66 OFFCURVE",
"65 -71 CURVE SMOOTH",
"74 -74 OFFCURVE",
"92 -67 OFFCURVE",
"99 -59 CURVE SMOOTH",
"111 -45 OFFCURVE",
"119 -28 OFFCURVE",
"125 -13 CURVE SMOOTH",
"164 77 OFFCURVE",
"202 169 OFFCURVE",
"240 261 CURVE SMOOTH",
"261 311 OFFCURVE",
"286 316 OFFCURVE",
"324 277 CURVE SMOOTH",
"395 205 OFFCURVE",
"466 132 OFFCURVE",
"536 60 CURVE SMOOTH",
"543 53 OFFCURVE",
"550 45 OFFCURVE",
"558 39 CURVE SMOOTH",
"596 10 OFFCURVE",
"618 16 OFFCURVE",
"635 61 CURVE SMOOTH",
"679 171 OFFCURVE",
"723 281 OFFCURVE",
"765 393 CURVE SMOOTH",
"792 466 OFFCURVE",
"816 540 OFFCURVE",
"842 612 CURVE SMOOTH",
"850 636 OFFCURVE",
"848 657 OFFCURVE",
"825 667 CURVE SMOOTH",
"799 678 OFFCURVE",
"785 659 OFFCURVE",
"774 639 CURVE SMOOTH",
"769 630 OFFCURVE",
"767 619 OFFCURVE",
"763 608 CURVE SMOOTH",
"714 467 OFFCURVE",
"665 325 OFFCURVE",
"614 185 CURVE SMOOTH",
"593 128 OFFCURVE",
"570 121 OFFCURVE",
"525 162 CURVE SMOOTH",
"456 229 OFFCURVE",
"390 300 OFFCURVE",
"327 373 CURVE SMOOTH",
"314 388 OFFCURVE",
"313 423 OFFCURVE",
"319 445 CURVE SMOOTH",
"336 505 OFFCURVE",
"360 564 OFFCURVE",
"382 622 CURVE SMOOTH",
"386 633 OFFCURVE",
"393 645 OFFCURVE",
"390 655 CURVE SMOOTH",
"387 666 OFFCURVE",
"378 681 OFFCURVE",
"368 684 CURVE SMOOTH",
"359 687 OFFCURVE",
"340 680 OFFCURVE",
"336 672 CURVE SMOOTH",
"317 630 OFFCURVE",
"301 587 OFFCURVE",
"287 544 CURVE SMOOTH",
"273 503 OFFCURVE",
"270 491 OFFCURVE",
"245 494 CURVE SMOOTH"
);
},
{
closed = 1;
nodes = (
"865 604 OFFCURVE",
"862 582 OFFCURVE",
"854 561 CURVE SMOOTH",
"802 414 OFFCURVE",
"750 266 OFFCURVE",
"696 119 CURVE SMOOTH",
"686 92 OFFCURVE",
"673 66 OFFCURVE",
"656 42 CURVE SMOOTH",
"624 -9 OFFCURVE",
"579 -13 OFFCURVE",
"536 28 CURVE SMOOTH",
"475 89 OFFCURVE",
"415 150 OFFCURVE",
"354 210 CURVE SMOOTH",
"341 223 OFFCURVE",
"329 234 OFFCURVE",
"314 246 CURVE SMOOTH",
"282 274 OFFCURVE",
"274 272 OFFCURVE",
"258 234 CURVE SMOOTH",
"234 177 OFFCURVE",
"211 119 OFFCURVE",
"187 63 CURVE SMOOTH",
"169 21 OFFCURVE",
"152 -19 OFFCURVE",
"133 -60 CURVE SMOOTH",
"121 -86 OFFCURVE",
"99 -99 OFFCURVE",
"71 -98 CURVE SMOOTH",
"31 -96 OFFCURVE",
"8 -72 OFFCURVE",
"18 -33 CURVE SMOOTH",
"32 17 OFFCURVE",
"48 69 OFFCURVE",
"70 117 CURVE SMOOTH",
"105 198 OFFCURVE",
"148 275 OFFCURVE",
"183 355 CURVE SMOOTH",
"194 380 OFFCURVE",
"192 411 OFFCURVE",
"192 440 CURVE SMOOTH",
"192 456 OFFCURVE",
"184 472 OFFCURVE",
"183 489 CURVE SMOOTH",
"181 518 OFFCURVE",
"199 531 OFFCURVE",
"227 528 CURVE SMOOTH",
"236 527 OFFCURVE",
"251 533 OFFCURVE",
"255 540 CURVE SMOOTH",
"264 556 OFFCURVE",
"268 574 OFFCURVE",
"273 591 CURVE SMOOTH",
"284 621 OFFCURVE",
"292 654 OFFCURVE",
"306 683 CURVE SMOOTH",
"323 714 OFFCURVE",
"350 723 OFFCURVE",
"377 711 CURVE SMOOTH",
"411 696 OFFCURVE",
"424 668 OFFCURVE",
"413 633 CURVE SMOOTH",
"392 569 OFFCURVE",
"368 505 OFFCURVE",
"350 441 CURVE SMOOTH",
"345 421 OFFCURVE",
"352 389 OFFCURVE",
"366 373 CURVE SMOOTH",
"415 314 OFFCURVE",
"468 257 OFFCURVE",
"521 200 CURVE SMOOTH",
"558 162 OFFCURVE",
"573 165 OFFCURVE",
"592 216 CURVE SMOOTH",
"640 351 OFFCURVE",
"688 486 OFFCURVE",
"736 621 CURVE SMOOTH",
"743 640 OFFCURVE",
"755 657 OFFCURVE",
"766 674 CURVE",
"781 692 OFFCURVE",
"800 704 OFFCURVE",
"826 692 CURVE SMOOTH",
"853 679 OFFCURVE",
"871 658 OFFCURVE",
"870 622 CURVE"
);
}
);
vertWidth = 1000;
width = 886;
}
);
note = cid00047;
unicode = 004E;
},
{
glyphname = O;
lastChange = "2020-11-05 18:12:30 +0000";
layers = (
{
layerId = "E24ABCAD-EB1C-406E-B20D-44C7493A2261";
paths = (
{
closed = 1;
nodes = (
"189 20 OFFCURVE",
"252 -2 OFFCURVE",
"291 19 CURVE SMOOTH",
"343 48 OFFCURVE",
"395 80 OFFCURVE",
"423 135 CURVE SMOOTH",
"471 230 OFFCURVE",
"496 332 OFFCURVE",
"475 439 CURVE SMOOTH",
"460 518 OFFCURVE",
"401 564 OFFCURVE",
"323 567 CURVE SMOOTH",
"266 570 OFFCURVE",
"169 507 OFFCURVE",
"161 443 CURVE SMOOTH",
"150 365 OFFCURVE",
"97 145 OFFCURVE",
"163 56 CURVE SMOOTH"
);
},
{
closed = 1;
nodes = (
"100 320 OFFCURVE",
"114 394 OFFCURVE",
"143 465 CURVE SMOOTH",
"178 552 OFFCURVE",
"257 601 OFFCURVE",
"345 591 CURVE SMOOTH",
"422 582 OFFCURVE",
"496 505 OFFCURVE",
"506 419 CURVE SMOOTH",
"520 299 OFFCURVE",
"493 185 OFFCURVE",
"426 88 CURVE SMOOTH",
"381 23 OFFCURVE",
"316 -30 OFFCURVE",
"222 -13 CURVE SMOOTH",
"158 0 OFFCURVE",
"110 51 OFFCURVE",
"104 119 CURVE SMOOTH",
"101 160 OFFCURVE",
"100 202 OFFCURVE",
"97 251 CURVE"
);
},
{
closed = 1;
nodes = (
"48 11 OFFCURVE",
"140 -75 OFFCURVE",
"248 -69 CURVE SMOOTH",
"365 -64 OFFCURVE",
"445 -1 OFFCURVE",
"501 96 CURVE SMOOTH",
"554 188 OFFCURVE",
"574 289 OFFCURVE",
"572 393 CURVE SMOOTH",
"572 505 OFFCURVE",
"509 596 OFFCURVE",
"413 629 CURVE SMOOTH",
"334 656 OFFCURVE",
"254 657 OFFCURVE",
"184 607 CURVE SMOOTH",
"124 564 OFFCURVE",
"83 505 OFFCURVE",
"70 432 CURVE SMOOTH",
"57 347 OFFCURVE",
"43 138 OFFCURVE",
"44 119 CURVE SMOOTH"
);
},
{
closed = 1;
nodes = (
"122 686 OFFCURVE",
"382 718 OFFCURVE",
"509 603 CURVE SMOOTH",
"566 550 OFFCURVE",
"590 479 OFFCURVE",
"593 403 CURVE SMOOTH",
"601 251 OFFCURVE",
"563 113 OFFCURVE",
"459 -3 CURVE SMOOTH",
"395 -74 OFFCURVE",
"248 -113 OFFCURVE",
"157 -81 CURVE SMOOTH",
"86 -55 OFFCURVE",
"24 34 OFFCURVE",
"23 117 CURVE SMOOTH",
"22 144 OFFCURVE",
"35 383 OFFCURVE",
"61 472 CURVE SMOOTH"
);
}
);
vertWidth = 1000;
width = 618;
}
);
note = cid00048;
unicode = 004F;
},
{
glyphname = P;
lastChange = "2020-11-05 18:12:30 +0000";
layers = (
{
layerId = "E24ABCAD-EB1C-406E-B20D-44C7493A2261";
paths = (
{
closed = 1;
nodes = (
"169 350 LINE SMOOTH",
"170 330 OFFCURVE",
"170 308 OFFCURVE",
"199 309 CURVE SMOOTH",
"237 311 OFFCURVE",
"277 312 OFFCURVE",
"315 318 CURVE SMOOTH",
"356 324 OFFCURVE",
"386 348 OFFCURVE",
"394 389 CURVE SMOOTH",
"400 426 OFFCURVE",
"403 464 OFFCURVE",
"402 500 CURVE SMOOTH",
"400 543 OFFCURVE",
"380 567 OFFCURVE",
"336 573 CURVE SMOOTH",
"293 579 OFFCURVE",
"247 579 OFFCURVE",
"203 581 CURVE SMOOTH",
"185 581 OFFCURVE",
"177 571 OFFCURVE",
"176 554 CURVE SMOOTH",
"174 515 OFFCURVE",
"171 476 OFFCURVE",
"169 440 CURVE SMOOTH"
);
},
{
closed = 1;
nodes = (
"277 601 OFFCURVE",
"296 602 OFFCURVE",
"314 601 CURVE SMOOTH",
"382 600 OFFCURVE",
"430 555 OFFCURVE",
"433 487 CURVE SMOOTH",
"434 463 OFFCURVE",
"432 439 OFFCURVE",
"429 414 CURVE SMOOTH",
"420 336 OFFCURVE",
"396 307 OFFCURVE",
"318 295 CURVE SMOOTH",
"273 287 OFFCURVE",
"225 290 OFFCURVE",
"179 288 CURVE SMOOTH",
"158 288 OFFCURVE",
"147 299 OFFCURVE",
"147 318 CURVE SMOOTH",
"147 397 OFFCURVE",
"146 476 OFFCURVE",
"149 555 CURVE SMOOTH",
"151 592 OFFCURVE",
"165 600 OFFCURVE",
"203 601 CURVE SMOOTH",
"258 601 LINE SMOOTH"
);
},
{
closed = 1;
nodes = (
"102 72 OFFCURVE",
"101 -13 OFFCURVE",
"101 -55 CURVE SMOOTH",
"101 -73 OFFCURVE",
"109 -88 OFFCURVE",
"127 -85 CURVE SMOOTH",
"140 -83 OFFCURVE",
"151 -86 OFFCURVE",
"163 -66 CURVE SMOOTH",
"167 -59 OFFCURVE",
"163 -42 OFFCURVE",
"163 -32 CURVE SMOOTH",
"161 43 OFFCURVE",
"159 119 OFFCURVE",
"158 194 CURVE SMOOTH",
"158 231 OFFCURVE",
"174 244 OFFCURVE",
"211 245 CURVE SMOOTH",
"254 246 OFFCURVE",
"298 248 OFFCURVE",
"342 251 CURVE SMOOTH",
"377 254 OFFCURVE",
"407 271 OFFCURVE",
"428 300 CURVE SMOOTH",
"499 394 OFFCURVE",
"500 506 OFFCURVE",
"437 599 CURVE SMOOTH",
"425 618 OFFCURVE",
"400 635 OFFCURVE",
"378 638 CURVE SMOOTH",
"328 645 OFFCURVE",
"276 647 OFFCURVE",
"224 646 CURVE SMOOTH",
"169 645 OFFCURVE",
"170 643 OFFCURVE",
"149 694 CURVE SMOOTH",
"145 706 OFFCURVE",
"131 723 OFFCURVE",
"117 721 CURVE SMOOTH",
"104 719 OFFCURVE",
"98 699 OFFCURVE",
"97 687 CURVE SMOOTH",
"94 653 OFFCURVE",
"96 618 OFFCURVE",
"95 582 CURVE SMOOTH",
"94 500 OFFCURVE",
"93 418 OFFCURVE",
"92 337 CURVE SMOOTH",
"92 306 OFFCURVE",
"78 289 OFFCURVE",
"45 284 CURVE SMOOTH",
"36 283 OFFCURVE",
"20 271 OFFCURVE",
"20 259 CURVE SMOOTH",
"21 247 OFFCURVE",
"26 232 OFFCURVE",
"65 234 CURVE SMOOTH",
"93 235 OFFCURVE",
"102 217 OFFCURVE",
"102 192 CURVE SMOOTH",
"102 72 LINE"
);
},
{
closed = 1;
nodes = (
"82 47 OFFCURVE",
"81 110 OFFCURVE",
"82 173 CURVE SMOOTH",
"82 197 OFFCURVE",
"77 214 OFFCURVE",
"47 215 CURVE SMOOTH",
"22 216 OFFCURVE",
"9 235 OFFCURVE",
"6 258 CURVE SMOOTH",
"4 283 OFFCURVE",
"16 302 OFFCURVE",
"39 306 CURVE SMOOTH",
"71 313 OFFCURVE",
"75 332 OFFCURVE",
"75 359 CURVE SMOOTH",
"74 465 OFFCURVE",
"75 570 OFFCURVE",
"75 676 CURVE SMOOTH",
"75 721 OFFCURVE",
"87 740 OFFCURVE",
"114 744 CURVE SMOOTH",
"142 748 OFFCURVE",
"169 728 OFFCURVE",
"181 692 CURVE SMOOTH",
"188 672 OFFCURVE",
"199 668 OFFCURVE",
"218 669 CURVE SMOOTH",
"271 669 OFFCURVE",
"324 670 OFFCURVE",
"376 664 CURVE SMOOTH",
"427 657 OFFCURVE",
"460 623 OFFCURVE",
"479 574 CURVE SMOOTH",
"508 500 OFFCURVE",
"505 427 OFFCURVE",
"481 352 CURVE SMOOTH",
"458 283 OFFCURVE",
"388 230 OFFCURVE",
"310 225 CURVE SMOOTH",
"283 224 OFFCURVE",
"255 225 OFFCURVE",
"228 223 CURVE SMOOTH",
"192 221 OFFCURVE",
"183 212 OFFCURVE",
"183 176 CURVE SMOOTH",
"184 104 OFFCURVE",
"185 30 OFFCURVE",
"186 -42 CURVE SMOOTH",
"186 -80 OFFCURVE",
"169 -105 OFFCURVE",
"139 -106 CURVE SMOOTH",
"105 -107 OFFCURVE",
"83 -82 OFFCURVE",
"82 -42 CURVE SMOOTH",
"82 -16 LINE SMOOTH"
);
}
);
vertWidth = 1000;
width = 530;
}
);
note = cid00049;
unicode = 0050;
},
{
glyphname = Q;
lastChange = "2020-11-05 18:12:30 +0000";
layers = (
{
layerId = "E24ABCAD-EB1C-406E-B20D-44C7493A2261";
paths = (
{
closed = 1;
nodes = (
"356 59 OFFCURVE",
"358 74 OFFCURVE",
"348 82 CURVE SMOOTH",
"324 101 OFFCURVE",
"288 131 OFFCURVE",
"273 146 CURVE SMOOTH",
"252 166 OFFCURVE",
"252 187 OFFCURVE",
"269 210 CURVE SMOOTH",
"286 233 OFFCURVE",
"306 230 OFFCURVE",
"327 218 CURVE SMOOTH",
"358 200 OFFCURVE",
"387 180 OFFCURVE",
"417 161 CURVE SMOOTH",
"423 157 OFFCURVE",
"430 154 OFFCURVE",
"439 149 CURVE",
"481 273 OFFCURVE",
"489 393 OFFCURVE",
"440 511 CURVE SMOOTH",
"413 577 OFFCURVE",
"366 603 OFFCURVE",
"289 601 CURVE SMOOTH",
"227 601 OFFCURVE",
"179 567 OFFCURVE",
"157 505 CURVE SMOOTH",
"115 383 OFFCURVE",
"124 259 OFFCURVE",
"162 138 CURVE SMOOTH",
"185 61 OFFCURVE",
"266 26 OFFCURVE",
"344 54 CURVE SMOOTH"
);
},
{
closed = 1;
nodes = (
"500 282 OFFCURVE",
"488 228 OFFCURVE",
"474 175 CURVE SMOOTH",
"457 116 OFFCURVE",
"438 111 OFFCURVE",
"387 147 CURVE SMOOTH",
"366 161 OFFCURVE",
"346 177 OFFCURVE",
"323 188 CURVE",
"315 193 OFFCURVE",
"300 198 OFFCURVE",
"293 189 CURVE SMOOTH",
"286 181 OFFCURVE",
"291 163 OFFCURVE",
"297 157 CURVE SMOOTH",
"321 132 OFFCURVE",
"347 111 OFFCURVE",
"370 88 CURVE SMOOTH",
"379 78 OFFCURVE",
"391 73 OFFCURVE",
"387 51 CURVE SMOOTH",
"384 41 OFFCURVE",
"365 34 OFFCURVE",
"352 30 CURVE SMOOTH",
"340 26 OFFCURVE",
"326 26 OFFCURVE",
"313 24 CURVE SMOOTH",
"201 11 OFFCURVE",
"135 85 OFFCURVE",
"122 187 CURVE SMOOTH",
"111 266 OFFCURVE",
"108 346 OFFCURVE",
"111 424 CURVE SMOOTH",
"113 467 OFFCURVE",
"132 512 OFFCURVE",
"152 552 CURVE SMOOTH",
"179 604 OFFCURVE",
"225 636 OFFCURVE",
"286 635 CURVE SMOOTH",
"355 634 OFFCURVE",
"418 615 OFFCURVE",
"451 547 CURVE SMOOTH",
"485 482 OFFCURVE",
"508 411 OFFCURVE",
"503 322 CURVE SMOOTH"
);
},
{
closed = 1;
nodes = (
"51 286 OFFCURVE",
"54 219 OFFCURVE",
"67 153 CURVE SMOOTH",
"102 -19 OFFCURVE",
"297 -88 OFFCURVE",
"414 7 CURVE SMOOTH",
"435 23 OFFCURVE",
"455 18 OFFCURVE",
"475 2 CURVE SMOOTH",
"500 -19 OFFCURVE",
"525 -40 OFFCURVE",
"553 -59 CURVE SMOOTH",
"562 -65 OFFCURVE",
"582 -72 OFFCURVE",
"591 -63 CURVE SMOOTH",
"600 -54 OFFCURVE",
"593 -33 OFFCURVE",
"586 -25 CURVE SMOOTH",
"571 -4 OFFCURVE",
"551 12 OFFCURVE",
"532 30 CURVE SMOOTH",
"491 71 OFFCURVE",
"490 80 OFFCURVE",
"515 134 CURVE SMOOTH",
"529 162 OFFCURVE",
"542 192 OFFCURVE",
"548 222 CURVE SMOOTH",
"568 326 OFFCURVE",
"553 428 OFFCURVE",
"518 527 CURVE SMOOTH",
"472 655 OFFCURVE",
"385 700 OFFCURVE",
"260 687 CURVE SMOOTH",
"184 679 OFFCURVE",
"115 644 OFFCURVE",
"82 565 CURVE SMOOTH",
"54 496 OFFCURVE",
"45 425 OFFCURVE",
"43 352 CURVE"
);
},
{
closed = 1;
nodes = (
"24 391 OFFCURVE",
"28 448 OFFCURVE",
"39 503 CURVE SMOOTH",
"75 679 OFFCURVE",
"295 785 OFFCURVE",
"451 664 CURVE SMOOTH",
"500 626 OFFCURVE",
"528 570 OFFCURVE",
"548 511 CURVE SMOOTH",
"577 424 OFFCURVE",
"593 335 OFFCURVE",
"575 243 CURVE SMOOTH",
"567 202 OFFCURVE",
"551 161 OFFCURVE",
"535 122 CURVE SMOOTH",
"525 97 OFFCURVE",
"524 77 OFFCURVE",
"544 57 CURVE SMOOTH",
"566 35 OFFCURVE",
"587 11 OFFCURVE",
"609 -11 CURVE SMOOTH",
"627 -31 OFFCURVE",
"633 -51 OFFCURVE",
"611 -73 CURVE SMOOTH",
"585 -103 OFFCURVE",
"570 -109 OFFCURVE",
"542 -88 CURVE SMOOTH",
"516 -69 OFFCURVE",
"494 -46 OFFCURVE",
"470 -24 CURVE SMOOTH",
"455 -9 OFFCURVE",
"442 -6 OFFCURVE",
"423 -18 CURVE SMOOTH",
"246 -125 OFFCURVE",
"51 -10 OFFCURVE",
"34 181 CURVE SMOOTH",
"29 232 OFFCURVE",
"22 284 OFFCURVE",
"23 347 CURVE SMOOTH"
);
}
);
vertWidth = 1000;
width = 636;
}
);
note = cid00050;
unicode = 0051;
},
{
glyphname = R;
lastChange = "2020-11-05 18:12:30 +0000";
layers = (
{
layerId = "E24ABCAD-EB1C-406E-B20D-44C7493A2261";
paths = (
{
closed = 1;
nodes = (
"141 364 OFFCURVE",
"150 353 OFFCURVE",
"171 352 CURVE SMOOTH",
"211 352 OFFCURVE",
"253 350 OFFCURVE",
"293 353 CURVE SMOOTH",
"343 356 OFFCURVE",
"369 386 OFFCURVE",
"371 436 CURVE SMOOTH",
"372 454 OFFCURVE",
"372 471 OFFCURVE",
"372 490 CURVE SMOOTH",
"371 538 OFFCURVE",
"354 563 OFFCURVE",
"307 569 CURVE SMOOTH",
"260 574 OFFCURVE",
"212 571 OFFCURVE",
"165 569 CURVE SMOOTH",
"159 569 OFFCURVE",
"148 554 OFFCURVE",
"147 546 CURVE SMOOTH",
"143 514 OFFCURVE",
"142 406 OFFCURVE",
"141 385 CURVE SMOOTH"
);
},
{
closed = 1;
nodes = (
"123 580 OFFCURVE",
"139 594 OFFCURVE",
"163 594 CURVE SMOOTH",
"212 593 OFFCURVE",
"262 593 OFFCURVE",
"310 589 CURVE SMOOTH",
"354 584 OFFCURVE",
"380 556 OFFCURVE",
"391 513 CURVE SMOOTH",
"401 470 OFFCURVE",
"397 428 OFFCURVE",
"382 388 CURVE SMOOTH",
"372 360 OFFCURVE",
"352 339 OFFCURVE",
"323 337 CURVE SMOOTH",
"262 335 OFFCURVE",
"202 337 OFFCURVE",
"142 337 CURVE SMOOTH",
"122 337 OFFCURVE",
"117 349 OFFCURVE",
"118 367 CURVE SMOOTH",
"118 446 LINE",
"117 446 OFFCURVE",
"119 517 OFFCURVE",
"121 553 CURVE SMOOTH"
);
},
{
closed = 1;
nodes = (
"122 197 OFFCURVE",
"120 220 OFFCURVE",
"123 240 CURVE SMOOTH",
"125 251 OFFCURVE",
"133 265 OFFCURVE",
"141 268 CURVE SMOOTH",
"148 270 OFFCURVE",
"163 261 OFFCURVE",
"169 252 CURVE SMOOTH",
"246 148 OFFCURVE",
"408 -76 OFFCURVE",
"426 -79 CURVE SMOOTH",
"440 -82 OFFCURVE",
"448 -77 OFFCURVE",
"460 -70 CURVE SMOOTH",
"478 -61 OFFCURVE",
"467 -48 OFFCURVE",
"460 -37 CURVE SMOOTH",
"441 -11 OFFCURVE",
"421 15 OFFCURVE",
"401 41 CURVE SMOOTH",
"345 112 OFFCURVE",
"289 182 OFFCURVE",
"235 252 CURVE SMOOTH",
"220 271 OFFCURVE",
"226 282 OFFCURVE",
"250 283 CURVE SMOOTH",
"269 285 OFFCURVE",
"288 283 OFFCURVE",
"307 283 CURVE SMOOTH",
"370 286 OFFCURVE",
"416 319 OFFCURVE",
"434 381 CURVE SMOOTH",
"442 408 OFFCURVE",
"447 437 OFFCURVE",
"450 466 CURVE SMOOTH",
"455 541 OFFCURVE",
"405 618 OFFCURVE",
"336 629 CURVE SMOOTH",
"281 639 OFFCURVE",
"224 639 OFFCURVE",
"168 640 CURVE SMOOTH",
"139 641 OFFCURVE",
"119 637 OFFCURVE",
"111 675 CURVE SMOOTH",
"108 696 OFFCURVE",
"89 702 OFFCURVE",
"73 687 CURVE",
"65 677 OFFCURVE",
"57 661 OFFCURVE",
"56 648 CURVE SMOOTH",
"54 615 OFFCURVE",
"55 581 OFFCURVE",
"56 549 CURVE SMOOTH",
"57 443 OFFCURVE",
"59 337 OFFCURVE",
"61 232 CURVE SMOOTH",
"62 157 OFFCURVE",
"62 81 OFFCURVE",
"64 6 CURVE SMOOTH",
"64 -14 OFFCURVE",
"66 -38 OFFCURVE",
"73 -59 CURVE SMOOTH",
"76 -68 OFFCURVE",
"91 -79 OFFCURVE",
"100 -79 CURVE SMOOTH",
"108 -79 OFFCURVE",
"120 -66 OFFCURVE",
"123 -57 CURVE SMOOTH",
"129 -37 OFFCURVE",
"132 -15 OFFCURVE",
"131 4 CURVE SMOOTH",
"129 60 OFFCURVE",
"122 175 OFFCURVE",
"122 175 CURVE"
);
},
{
closed = 1;
nodes = (
"277 226 OFFCURVE",
"298 197 OFFCURVE",
"321 168 CURVE SMOOTH",
"371 103 OFFCURVE",
"423 40 OFFCURVE",
"473 -23 CURVE SMOOTH",
"485 -38 OFFCURVE",
"499 -55 OFFCURVE",
"483 -74 CURVE SMOOTH",
"466 -94 OFFCURVE",
"436 -104 OFFCURVE",
"412 -92 CURVE SMOOTH",
"395 -83 OFFCURVE",
"385 -67 OFFCURVE",
"373 -50 CURVE SMOOTH",
"302 39 OFFCURVE",
"233 130 OFFCURVE",
"163 222 CURVE SMOOTH",
"160 226 OFFCURVE",
"153 232 OFFCURVE",
"150 230 CURVE",
"150 196 OFFCURVE",
"149 162 OFFCURVE",
"150 128 CURVE SMOOTH",
"151 75 OFFCURVE",
"153 22 OFFCURVE",
"153 -29 CURVE SMOOTH",
"153 -43 OFFCURVE",
"147 -60 OFFCURVE",
"138 -71 CURVE SMOOTH",
"128 -83 OFFCURVE",
"111 -96 OFFCURVE",
"99 -95 CURVE SMOOTH",
"85 -94 OFFCURVE",
"64 -79 OFFCURVE",
"60 -67 CURVE SMOOTH",
"50 -34 OFFCURVE",
"46 0 OFFCURVE",
"44 34 CURVE SMOOTH",
"41 79 OFFCURVE",
"44 124 OFFCURVE",
"43 169 CURVE SMOOTH",
"41 293 OFFCURVE",
"38 418 OFFCURVE",
"37 543 CURVE SMOOTH",
"37 581 OFFCURVE",
"36 620 OFFCURVE",
"37 658 CURVE SMOOTH",
"39 686 OFFCURVE",
"57 702 OFFCURVE",
"84 707 CURVE SMOOTH",
"110 713 OFFCURVE",
"121 697 OFFCURVE",
"134 678 CURVE SMOOTH",
"139 670 OFFCURVE",
"153 664 OFFCURVE",
"163 664 CURVE SMOOTH",
"205 662 OFFCURVE",
"246 661 OFFCURVE",
"288 663 CURVE SMOOTH",
"390 670 OFFCURVE",
"488 560 OFFCURVE",
"469 457 CURVE SMOOTH",
"462 422 OFFCURVE",
"454 386 OFFCURVE",
"442 353 CURVE SMOOTH",
"422 301 OFFCURVE",
"381 273 OFFCURVE",
"325 269 CURVE SMOOTH",
"303 268 OFFCURVE",
"282 265 OFFCURVE",
"250 262 CURVE"
);
}
);
vertWidth = 1000;
width = 525;
}
);
note = cid00051;
unicode = 0052;
},
{
glyphname = S;
lastChange = "2020-11-05 18:12:30 +0000";
layers = (
{
layerId = "E24ABCAD-EB1C-406E-B20D-44C7493A2261";
paths = (
{
closed = 1;
nodes = (
"312 -72 OFFCURVE",
"317 -72 OFFCURVE",
"322 -72 CURVE SMOOTH",
"401 -67 OFFCURVE",
"465 -47 OFFCURVE",
"501 28 CURVE SMOOTH",
"530 90 OFFCURVE",
"515 182 OFFCURVE",
"453 239 CURVE SMOOTH",
"418 271 OFFCURVE",
"380 294 OFFCURVE",
"335 311 CURVE SMOOTH",
"266 338 OFFCURVE",
"204 377 OFFCURVE",
"156 435 CURVE SMOOTH",
"103 500 OFFCURVE",
"138 584 OFFCURVE",
"211 614 CURVE SMOOTH",
"339 668 OFFCURVE",
"407 585 OFFCURVE",
"429 550 CURVE SMOOTH",
"439 534 OFFCURVE",
"448 517 OFFCURVE",
"460 503 CURVE SMOOTH",
"464 497 OFFCURVE",
"477 494 OFFCURVE",
"482 496 CURVE SMOOTH",
"489 500 OFFCURVE",
"497 510 OFFCURVE",
"497 518 CURVE SMOOTH",
"498 527 OFFCURVE",
"493 538 OFFCURVE",
"490 547 CURVE SMOOTH",
"458 671 OFFCURVE",
"259 718 OFFCURVE",
"156 657 CURVE SMOOTH",
"92 619 OFFCURVE",
"51 536 OFFCURVE",
"77 459 CURVE SMOOTH",
"101 386 OFFCURVE",
"156 342 OFFCURVE",
"218 304 CURVE SMOOTH",
"269 272 OFFCURVE",
"324 246 OFFCURVE",
"377 217 CURVE SMOOTH",
"432 188 OFFCURVE",
"452 139 OFFCURVE",
"449 79 CURVE SMOOTH",
"446 37 OFFCURVE",
"413 -4 OFFCURVE",
"372 -8 CURVE SMOOTH",
"277 -16 OFFCURVE",
"191 1 OFFCURVE",
"128 83 CURVE SMOOTH",
"119 96 OFFCURVE",
"108 108 OFFCURVE",
"96 118 CURVE",
"91 124 OFFCURVE",
"76 132 OFFCURVE",
"67 130 CURVE",
"61 126 OFFCURVE",
"51 116 OFFCURVE",
"51 96 CURVE SMOOTH",
"51 74 OFFCURVE",
"59 57 OFFCURVE",
"70 39 CURVE SMOOTH",
"123 -45 OFFCURVE",
"218 -64 OFFCURVE",
"307 -72 CURVE SMOOTH"
);
},
{
closed = 1;
nodes = (
"328 708 OFFCURVE",
"379 693 OFFCURVE",
"429 663 CURVE SMOOTH",
"474 635 OFFCURVE",
"502 589 OFFCURVE",
"520 543 CURVE SMOOTH",
"529 520 OFFCURVE",
"524 490 OFFCURVE",
"499 477 CURVE SMOOTH",
"476 464 OFFCURVE",
"450 470 OFFCURVE",
"436 497 CURVE SMOOTH",
"398 569 OFFCURVE",
"367 613 OFFCURVE",
"263 606 CURVE SMOOTH",
"217 603 OFFCURVE",
"163 557 OFFCURVE",
"155 510 CURVE SMOOTH",
"152 498 OFFCURVE",
"156 483 OFFCURVE",
"162 470 CURVE SMOOTH",
"185 420 OFFCURVE",
"228 388 OFFCURVE",
"277 363 CURVE SMOOTH",
"317 343 OFFCURVE",
"358 326 OFFCURVE",
"398 306 CURVE SMOOTH",
"480 262 OFFCURVE",
"534 198 OFFCURVE",
"538 100 CURVE SMOOTH",
"542 8 OFFCURVE",
"459 -81 OFFCURVE",
"366 -89 CURVE SMOOTH",
"273 -98 OFFCURVE",
"192 -95 OFFCURVE",
"120 -47 CURVE SMOOTH",
"94 -30 OFFCURVE",
"-4 56 OFFCURVE",
"32 129 CURVE SMOOTH",
"49 161 OFFCURVE",
"79 170 OFFCURVE",
"102 144 CURVE SMOOTH",
"121 123 OFFCURVE",
"146 91 OFFCURVE",
"166 72 CURVE SMOOTH",
"220 18 OFFCURVE",
"289 11 OFFCURVE",
"360 17 CURVE SMOOTH",
"390 20 OFFCURVE",
"412 44 OFFCURVE",
"416 74 CURVE SMOOTH",
"426 129 OFFCURVE",
"401 172 OFFCURVE",
"352 199 CURVE SMOOTH",
"285 237 OFFCURVE",
"217 274 OFFCURVE",
"153 317 CURVE SMOOTH",
"89 360 OFFCURVE",
"55 435 OFFCURVE",
"46 510 CURVE SMOOTH",
"39 575 OFFCURVE",
"69 622 OFFCURVE",
"116 660 CURVE SMOOTH",
"157 693 OFFCURVE",
"206 715 OFFCURVE",
"285 711 CURVE SMOOTH"
);
}
);
vertWidth = 1000;
width = 563;
}
);
note = cid00052;
unicode = 0053;
},
{
glyphname = T;
lastChange = "2020-11-05 18:12:30 +0000";
layers = (
{
layerId = "E24ABCAD-EB1C-406E-B20D-44C7493A2261";
paths = (
{
closed = 1;
nodes = (
"285 -67 OFFCURVE",
"288 -72 OFFCURVE",
"291 -78 CURVE SMOOTH",
"303 -96 OFFCURVE",
"329 -98 OFFCURVE",
"345 -83 CURVE",
"348 -81 OFFCURVE",
"351 -78 OFFCURVE",
"353 -75 CURVE SMOOTH",
"358 -68 OFFCURVE",
"358 -54 OFFCURVE",
"359 -44 CURVE SMOOTH",
"364 48 OFFCURVE",
"368 143 OFFCURVE",
"373 236 CURVE SMOOTH",
"377 338 OFFCURVE",
"382 439 OFFCURVE",
"386 540 CURVE SMOOTH",
"387 567 OFFCURVE",
"401 578 OFFCURVE",
"429 577 CURVE SMOOTH",
"481 577 OFFCURVE",
"611 590 OFFCURVE",
"623 596 CURVE SMOOTH",
"647 609 OFFCURVE",
"653 637 OFFCURVE",
"629 650 CURVE SMOOTH",
"611 660 OFFCURVE",
"586 664 OFFCURVE",
"566 664 CURVE SMOOTH",
"486 663 OFFCURVE",
"408 658 OFFCURVE",
"325 661 CURVE SMOOTH",
"246 664 OFFCURVE",
"167 652 OFFCURVE",
"87 647 CURVE SMOOTH",
"66 646 OFFCURVE",
"49 641 OFFCURVE",
"46 614 CURVE SMOOTH",
"44 588 OFFCURVE",
"61 569 OFFCURVE",
"81 568 CURVE SMOOTH",
"130 566 OFFCURVE",
"180 563 OFFCURVE",
"228 566 CURVE SMOOTH",
"304 573 OFFCURVE",
"319 570 OFFCURVE",
"315 495 CURVE SMOOTH",
"315 486 OFFCURVE",
"314 477 OFFCURVE",
"313 469 CURVE SMOOTH",
"302 330 OFFCURVE",
"278 -24 OFFCURVE",
"284 -64 CURVE"
);
},
{
closed = 1;
nodes = (
"649 680 OFFCURVE",
"664 659 OFFCURVE",
"669 644 CURVE SMOOTH",
"676 623 OFFCURVE",
"661 586 OFFCURVE",
"638 575 CURVE SMOOTH",
"629 571 OFFCURVE",
"619 567 OFFCURVE",
"610 566 CURVE SMOOTH",
"561 561 OFFCURVE",
"512 555 OFFCURVE",
"464 553 CURVE SMOOTH",
"419 550 OFFCURVE",
"416 559 OFFCURVE",
"414 514 CURVE SMOOTH",
"408 364 OFFCURVE",
"401 215 OFFCURVE",
"394 65 CURVE SMOOTH",
"392 23 OFFCURVE",
"393 -25 OFFCURVE",
"386 -67 CURVE SMOOTH",
"380 -105 OFFCURVE",
"354 -119 OFFCURVE",
"323 -120 CURVE SMOOTH",
"293 -122 OFFCURVE",
"263 -99 OFFCURVE",
"259 -60 CURVE SMOOTH",
"253 -9 OFFCURVE",
"261 38 OFFCURVE",
"263 91 CURVE SMOOTH",
"266 165 OFFCURVE",
"271 240 OFFCURVE",
"275 314 CURVE SMOOTH",
"277 375 OFFCURVE",
"279 436 OFFCURVE",
"281 497 CURVE SMOOTH",
"282 547 OFFCURVE",
"275 545 OFFCURVE",
"225 545 CURVE SMOOTH",
"181 545 OFFCURVE",
"136 543 OFFCURVE",
"92 545 CURVE SMOOTH",
"75 546 OFFCURVE",
"49 551 OFFCURVE",
"38 562 CURVE SMOOTH",
"25 575 OFFCURVE",
"22 602 OFFCURVE",
"24 619 CURVE SMOOTH",
"27 634 OFFCURVE",
"31 655 OFFCURVE",
"63 668 CURVE",
"102 677 OFFCURVE",
"143 682 OFFCURVE",
"184 682 CURVE SMOOTH",
"273 684 OFFCURVE",
"568 690 OFFCURVE",
"625 683 CURVE SMOOTH"
);
}
);
vertWidth = 1000;
width = 695;
}
);
note = cid00053;
unicode = 0054;
},
{
glyphname = U;
lastChange = "2020-11-05 18:12:30 +0000";
layers = (
{
layerId = "E24ABCAD-EB1C-406E-B20D-44C7493A2261";
paths = (
{
closed = 1;
nodes = (
"533 215 LINE SMOOTH",
"531 97 OFFCURVE",
"472 28 OFFCURVE",
"366 1 CURVE SMOOTH",
"296 -16 OFFCURVE",
"217 18 OFFCURVE",
"189 58 CURVE SMOOTH",
"154 107 OFFCURVE",
"139 164 OFFCURVE",
"140 223 CURVE SMOOTH",
"142 308 OFFCURVE",
"151 393 OFFCURVE",
"157 477 CURVE SMOOTH",
"162 532 OFFCURVE",
"171 587 OFFCURVE",
"172 641 CURVE SMOOTH",
"172 680 OFFCURVE",
"145 694 OFFCURVE",
"112 673 CURVE SMOOTH",
"97 663 OFFCURVE",
"85 641 OFFCURVE",
"82 623 CURVE SMOOTH",
"77 589 OFFCURVE",
"81 554 OFFCURVE",
"79 519 CURVE SMOOTH",
"73 414 OFFCURVE",
"67 311 OFFCURVE",
"62 206 CURVE SMOOTH",
"58 138 OFFCURVE",
"56 59 OFFCURVE",
"135 -11 CURVE SMOOTH",
"204 -72 OFFCURVE",
"295 -93 OFFCURVE",
"391 -70 CURVE SMOOTH",
"478 -48 OFFCURVE",
"548 -9 OFFCURVE",
"582 80 CURVE SMOOTH",
"635 222 OFFCURVE",
"617 400 OFFCURVE",
"617 466 CURVE SMOOTH",
"617 509 OFFCURVE",
"610 583 OFFCURVE",
"612 626 CURVE SMOOTH",
"612 655 OFFCURVE",
"590 685 OFFCURVE",
"565 687 CURVE SMOOTH",
"540 689 OFFCURVE",
"527 670 OFFCURVE",
"526 632 CURVE SMOOTH",
"525 600 OFFCURVE",
"521 567 OFFCURVE",
"522 535 CURVE SMOOTH",
"526 466 OFFCURVE",
"534 330 OFFCURVE",
"533 330 CURVE"
);
},
{
closed = 1;
nodes = (
"485 674 OFFCURVE",
"512 703 OFFCURVE",
"543 712 CURVE SMOOTH",
"575 720 OFFCURVE",
"611 713 OFFCURVE",
"627 679 CURVE SMOOTH",
"636 660 OFFCURVE",
"642 638 OFFCURVE",
"642 617 CURVE SMOOTH",
"644 490 OFFCURVE",
"648 356 OFFCURVE",
"647 229 CURVE SMOOTH",
"646 164 OFFCURVE",
"629 82 OFFCURVE",
"594 26 CURVE SMOOTH",
"534 -70 OFFCURVE",
"431 -95 OFFCURVE",
"323 -99 CURVE SMOOTH",
"163 -103 OFFCURVE",
"48 -11 OFFCURVE",
"38 146 CURVE SMOOTH",
"34 223 OFFCURVE",
"37 300 OFFCURVE",
"40 377 CURVE SMOOTH",
"43 457 OFFCURVE",
"48 537 OFFCURVE",
"52 617 CURVE SMOOTH",
"54 651 OFFCURVE",
"63 681 OFFCURVE",
"95 699 CURVE SMOOTH",
"139 724 OFFCURVE",
"199 713 OFFCURVE",
"205 664 CURVE SMOOTH",
"208 620 OFFCURVE",
"203 576 OFFCURVE",
"197 533 CURVE SMOOTH",
"184 412 OFFCURVE",
"158 282 OFFCURVE",
"178 160 CURVE SMOOTH",
"188 96 OFFCURVE",
"216 42 OFFCURVE",
"288 22 CURVE SMOOTH",
"350 4 OFFCURVE",
"442 45 OFFCURVE",
"472 101 CURVE SMOOTH",
"533 215 OFFCURVE",
"485 540 OFFCURVE",
"485 631 CURVE SMOOTH"
);
}
);
vertWidth = 1000;
width = 684;
}
);
note = cid00054;
unicode = 0055;
},
{
glyphname = V;
lastChange = "2020-11-05 18:12:30 +0000";
layers = (
{
layerId = "E24ABCAD-EB1C-406E-B20D-44C7493A2261";
paths = (
{
closed = 1;
nodes = (
"82 471 OFFCURVE",
"150 338 OFFCURVE",
"199 197 CURVE SMOOTH",
"228 110 OFFCURVE",
"276 30 OFFCURVE",
"317 -50 CURVE SMOOTH",
"333 -82 OFFCURVE",
"364 -86 OFFCURVE",
"386 -58 CURVE SMOOTH",
"398 -45 OFFCURVE",
"406 -28 OFFCURVE",
"415 -12 CURVE SMOOTH",
"456 59 OFFCURVE",
"495 134 OFFCURVE",
"541 204 CURVE SMOOTH",
"614 314 OFFCURVE",
"668 433 OFFCURVE",
"721 553 CURVE SMOOTH",
"726 566 OFFCURVE",
"732 583 OFFCURVE",
"728 595 CURVE SMOOTH",
"726 604 OFFCURVE",
"721 612 OFFCURVE",
"716 619 CURVE SMOOTH",
"707 633 OFFCURVE",
"689 636 OFFCURVE",
"676 625 CURVE SMOOTH",
"671 621 OFFCURVE",
"666 616 OFFCURVE",
"663 611 CURVE SMOOTH",
"634 556 OFFCURVE",
"610 497 OFFCURVE",
"582 442 CURVE SMOOTH",
"534 348 OFFCURVE",
"483 253 OFFCURVE",
"433 160 CURVE SMOOTH",
"423 142 OFFCURVE",
"410 123 OFFCURVE",
"395 109 CURVE SMOOTH",
"369 86 OFFCURVE",
"346 92 OFFCURVE",
"330 123 CURVE SMOOTH",
"323 135 OFFCURVE",
"318 149 OFFCURVE",
"310 162 CURVE",
"253 278 OFFCURVE",
"201 395 OFFCURVE",
"167 520 CURVE SMOOTH",
"157 562 OFFCURVE",
"143 603 OFFCURVE",
"128 644 CURVE",
"123 654 OFFCURVE",
"103 665 OFFCURVE",
"94 662 CURVE SMOOTH",
"84 659 OFFCURVE",
"66 645 OFFCURVE",
"66 631 CURVE"
);
},
{
closed = 1;
nodes = (
"351 140 OFFCURVE",
"380 138 OFFCURVE",
"392 156 CURVE SMOOTH",
"401 168 OFFCURVE",
"409 180 OFFCURVE",
"416 192 CURVE SMOOTH",
"460 269 OFFCURVE",
"567 477 OFFCURVE",
"580 503 CURVE SMOOTH",
"601 549 OFFCURVE",
"623 594 OFFCURVE",
"648 636 CURVE SMOOTH",
"660 656 OFFCURVE",
"679 675 OFFCURVE",
"706 663 CURVE SMOOTH",
"735 649 OFFCURVE",
"757 622 OFFCURVE",
"756 589 CURVE SMOOTH",
"756 581 OFFCURVE",
"753 571 OFFCURVE",
"751 563 CURVE",
"709 452 OFFCURVE",
"498 66 OFFCURVE",
"444 -20 CURVE SMOOTH",
"432 -40 OFFCURVE",
"419 -61 OFFCURVE",
"403 -77 CURVE SMOOTH",
"367 -112 OFFCURVE",
"301 -105 OFFCURVE",
"280 -60 CURVE SMOOTH",
"211 86 OFFCURVE",
"141 233 OFFCURVE",
"93 391 CURVE SMOOTH",
"74 451 OFFCURVE",
"32 587 OFFCURVE",
"30 610 CURVE SMOOTH",
"24 658 OFFCURVE",
"52 679 OFFCURVE",
"91 686 CURVE SMOOTH",
"127 693 OFFCURVE",
"148 676 OFFCURVE",
"163 633 CURVE SMOOTH",
"186 558 OFFCURVE",
"208 481 OFFCURVE",
"237 406 CURVE SMOOTH",
"269 324 OFFCURVE",
"307 243 OFFCURVE",
"344 161 CURVE",
"344 161 OFFCURVE",
"344 160 OFFCURVE",
"344 160 CURVE"
);
}
);
vertWidth = 1000;
width = 786;
}
);
note = cid00055;
unicode = 0056;
},
{
glyphname = W;
lastChange = "2020-11-05 18:12:30 +0000";
layers = (
{
layerId = "E24ABCAD-EB1C-406E-B20D-44C7493A2261";
paths = (
{
closed = 1;
nodes = (
"140 595 LINE",
"140 612 LINE SMOOTH",
"141 638 OFFCURVE",
"132 657 OFFCURVE",
"104 659 CURVE SMOOTH",
"79 660 OFFCURVE",
"61 646 OFFCURVE",
"60 619 CURVE SMOOTH",
"59 597 OFFCURVE",
"60 575 OFFCURVE",
"63 553 CURVE SMOOTH",
"75 484 OFFCURVE",
"88 415 OFFCURVE",
"102 346 CURVE SMOOTH",
"124 226 OFFCURVE",
"145 108 OFFCURVE",
"168 -10 CURVE SMOOTH",
"173 -40 OFFCURVE",
"194 -56 OFFCURVE",
"222 -63 CURVE SMOOTH",
"250 -69 OFFCURVE",
"274 -61 OFFCURVE",
"290 -38 CURVE SMOOTH",
"304 -17 OFFCURVE",
"319 3 OFFCURVE",
"326 27 CURVE SMOOTH",
"349 107 OFFCURVE",
"367 187 OFFCURVE",
"388 266 CURVE SMOOTH",
"392 279 OFFCURVE",
"400 300 OFFCURVE",
"415 300 CURVE SMOOTH",
"428 300 OFFCURVE",
"434 280 OFFCURVE",
"439 269 CURVE",
"470 179 OFFCURVE",
"500 87 OFFCURVE",
"530 -3 CURVE SMOOTH",
"541 -36 OFFCURVE",
"568 -61 OFFCURVE",
"601 -61 CURVE SMOOTH",
"622 -60 OFFCURVE",
"646 -38 OFFCURVE",
"664 -21 CURVE SMOOTH",
"676 -9 OFFCURVE",
"678 10 OFFCURVE",
"682 27 CURVE SMOOTH",
"710 180 OFFCURVE",
"739 332 OFFCURVE",
"767 484 CURVE SMOOTH",
"773 520 OFFCURVE",
"779 557 OFFCURVE",
"781 594 CURVE SMOOTH",
"784 620 OFFCURVE",
"767 631 OFFCURVE",
"743 634 CURVE SMOOTH",
"719 636 OFFCURVE",
"700 630 OFFCURVE",
"696 603 CURVE SMOOTH",
"692 571 OFFCURVE",
"689 540 OFFCURVE",
"684 510 CURVE SMOOTH",
"663 372 OFFCURVE",
"642 234 OFFCURVE",
"619 98 CURVE SMOOTH",
"616 83 OFFCURVE",
"607 59 OFFCURVE",
"592 59 CURVE SMOOTH",
"577 59 OFFCURVE",
"570 81 OFFCURVE",
"566 95 CURVE SMOOTH",
"546 160 OFFCURVE",
"527 225 OFFCURVE",
"507 290 CURVE SMOOTH",
"497 325 OFFCURVE",
"489 362 OFFCURVE",
"476 396 CURVE SMOOTH",
"457 446 OFFCURVE",
"414 455 OFFCURVE",
"376 417 CURVE SMOOTH",
"367 408 OFFCURVE",
"359 396 OFFCURVE",
"356 383 CURVE SMOOTH",
"329 294 OFFCURVE",
"303 203 OFFCURVE",
"275 114 CURVE SMOOTH",
"269 97 OFFCURVE",
"264 65 OFFCURVE",
"245 65 CURVE SMOOTH",
"227 66 OFFCURVE",
"223 96 OFFCURVE",
"220 112 CURVE SMOOTH",
"192 265 OFFCURVE",
"167 419 OFFCURVE",
"141 572 CURVE SMOOTH",
"139 580 OFFCURVE",
"141 588 OFFCURVE",
"141 595 CURVE"
);
},
{
closed = 1;
nodes = (
"401 162 OFFCURVE",
"387 106 OFFCURVE",
"367 52 CURVE SMOOTH",
"352 12 OFFCURVE",
"331 -27 OFFCURVE",
"304 -59 CURVE SMOOTH",
"263 -108 OFFCURVE",
"172 -95 OFFCURVE",
"150 -36 CURVE SMOOTH",
"128 18 OFFCURVE",
"118 79 OFFCURVE",
"107 137 CURVE SMOOTH",
"83 269 OFFCURVE",
"61 401 OFFCURVE",
"39 533 CURVE SMOOTH",
"34 562 OFFCURVE",
"34 593 OFFCURVE",
"38 622 CURVE SMOOTH",
"44 662 OFFCURVE",
"69 679 OFFCURVE",
"106 678 CURVE SMOOTH",
"142 676 OFFCURVE",
"166 656 OFFCURVE",
"172 615 CURVE SMOOTH",
"183 542 OFFCURVE",
"193 469 OFFCURVE",
"202 396 CURVE SMOOTH",
"214 309 OFFCURVE",
"223 222 OFFCURVE",
"235 135 CURVE SMOOTH",
"236 126 OFFCURVE",
"239 118 OFFCURVE",
"248 109 CURVE",
"252 120 OFFCURVE",
"258 131 OFFCURVE",
"260 142 CURVE SMOOTH",
"280 216 OFFCURVE",
"301 290 OFFCURVE",
"320 365 CURVE SMOOTH",
"330 404 OFFCURVE",
"352 430 OFFCURVE",
"385 450 CURVE SMOOTH",
"430 477 OFFCURVE",
"471 467 OFFCURVE",
"489 418 CURVE SMOOTH",
"519 334 OFFCURVE",
"544 249 OFFCURVE",
"571 163 CURVE SMOOTH",
"576 146 OFFCURVE",
"581 128 OFFCURVE",
"586 110 CURVE",
"590 111 OFFCURVE",
"592 111 OFFCURVE",
"596 111 CURVE",
"607 171 OFFCURVE",
"619 231 OFFCURVE",
"628 290 CURVE SMOOTH",
"644 394 OFFCURVE",
"658 498 OFFCURVE",
"673 602 CURVE SMOOTH",
"680 645 OFFCURVE",
"706 663 OFFCURVE",
"754 656 CURVE SMOOTH",
"790 651 OFFCURVE",
"813 621 OFFCURVE",
"807 580 CURVE SMOOTH",
"794 495 OFFCURVE",
"780 408 OFFCURVE",
"766 323 CURVE SMOOTH",
"749 208 OFFCURVE",
"736 95 OFFCURVE",
"694 -12 CURVE SMOOTH",
"682 -47 OFFCURVE",
"664 -74 OFFCURVE",
"624 -80 CURVE SMOOTH",
"581 -86 OFFCURVE",
"544 -72 OFFCURVE",
"525 -33 CURVE SMOOTH",
"500 18 OFFCURVE",
"480 72 OFFCURVE",
"458 126 CURVE SMOOTH",
"446 157 OFFCURVE",
"435 188 OFFCURVE",
"420 227 CURVE"
);
}
);
vertWidth = 1000;
width = 844;
}
);
note = cid00056;
unicode = 0057;
},
{
glyphname = X;
lastChange = "2020-11-05 18:12:30 +0000";
layers = (
{
layerId = "E24ABCAD-EB1C-406E-B20D-44C7493A2261";
paths = (
{
closed = 1;
nodes = (
"351 233 OFFCURVE",
"362 216 OFFCURVE",
"374 200 CURVE",
"429 113 OFFCURVE",
"483 28 OFFCURVE",
"538 -56 CURVE SMOOTH",
"549 -73 OFFCURVE",
"563 -85 OFFCURVE",
"584 -74 CURVE SMOOTH",
"605 -62 OFFCURVE",
"607 -43 OFFCURVE",
"598 -24 CURVE SMOOTH",
"592 -10 OFFCURVE",
"585 2 OFFCURVE",
"577 15 CURVE SMOOTH",
"522 104 OFFCURVE",
"468 192 OFFCURVE",
"414 281 CURVE SMOOTH",
"393 316 OFFCURVE",
"394 333 OFFCURVE",
"421 362 CURVE SMOOTH",
"450 396 OFFCURVE",
"482 427 OFFCURVE",
"511 461 CURVE SMOOTH",
"546 502 OFFCURVE",
"580 544 OFFCURVE",
"613 587 CURVE SMOOTH",
"628 605 OFFCURVE",
"628 628 OFFCURVE",
"608 641 CURVE SMOOTH",
"602 646 OFFCURVE",
"582 634 OFFCURVE",
"568 627 CURVE SMOOTH",
"561 623 OFFCURVE",
"557 615 OFFCURVE",
"550 609 CURVE",
"493 547 OFFCURVE",
"435 485 OFFCURVE",
"378 424 CURVE SMOOTH",
"343 388 OFFCURVE",
"339 388 OFFCURVE",
"308 427 CURVE SMOOTH",
"274 473 OFFCURVE",
"243 522 OFFCURVE",
"207 567 CURVE SMOOTH",
"184 596 OFFCURVE",
"158 623 OFFCURVE",
"129 648 CURVE SMOOTH",
"120 656 OFFCURVE",
"96 655 OFFCURVE",
"87 648 CURVE SMOOTH",
"79 641 OFFCURVE",
"77 619 OFFCURVE",
"81 606 CURVE SMOOTH",
"86 590 OFFCURVE",
"99 577 OFFCURVE",
"108 562 CURVE",
"162 491 OFFCURVE",
"215 420 OFFCURVE",
"268 349 CURVE SMOOTH",
"289 321 OFFCURVE",
"288 298 OFFCURVE",
"267 271 CURVE SMOOTH",
"207 191 OFFCURVE",
"147 110 OFFCURVE",
"90 30 CURVE SMOOTH",
"77 14 OFFCURVE",
"67 -5 OFFCURVE",
"63 -24 CURVE SMOOTH",
"61 -36 OFFCURVE",
"67 -58 OFFCURVE",
"77 -64 CURVE SMOOTH",
"87 -70 OFFCURVE",
"108 -65 OFFCURVE",
"119 -57 CURVE SMOOTH",
"135 -45 OFFCURVE",
"148 -27 OFFCURVE",
"159 -12 CURVE SMOOTH",
"192 36 OFFCURVE",
"224 85 OFFCURVE",
"257 134 CURVE SMOOTH",
"282 172 OFFCURVE",
"308 209 OFFCURVE",
"338 253 CURVE"
);
},
{
closed = 1;
nodes = (
"287 133 OFFCURVE",
"235 57 OFFCURVE",
"183 -16 CURVE SMOOTH",
"168 -38 OFFCURVE",
"153 -59 OFFCURVE",
"135 -78 CURVE SMOOTH",
"110 -104 OFFCURVE",
"84 -106 OFFCURVE",
"59 -90 CURVE SMOOTH",
"35 -74 OFFCURVE",
"23 -45 OFFCURVE",
"37 -16 CURVE SMOOTH",
"54 18 OFFCURVE",
"74 51 OFFCURVE",
"96 83 CURVE SMOOTH",
"139 145 OFFCURVE",
"184 204 OFFCURVE",
"227 265 CURVE SMOOTH",
"259 310 OFFCURVE",
"258 313 OFFCURVE",
"226 356 CURVE SMOOTH",
"180 423 OFFCURVE",
"132 488 OFFCURVE",
"86 556 CURVE SMOOTH",
"72 576 OFFCURVE",
"60 600 OFFCURVE",
"59 623 CURVE SMOOTH",
"58 641 OFFCURVE",
"73 663 OFFCURVE",
"87 677 CURVE SMOOTH",
"103 693 OFFCURVE",
"124 684 OFFCURVE",
"139 669 CURVE SMOOTH",
"161 650 OFFCURVE",
"183 631 OFFCURVE",
"201 608 CURVE SMOOTH",
"243 557 OFFCURVE",
"282 504 OFFCURVE",
"322 451 CURVE SMOOTH",
"335 433 OFFCURVE",
"347 433 OFFCURVE",
"361 448 CURVE SMOOTH",
"416 504 OFFCURVE",
"472 560 OFFCURVE",
"527 617 CURVE SMOOTH",
"538 628 OFFCURVE",
"545 643 OFFCURVE",
"558 650 CURVE SMOOTH",
"573 659 OFFCURVE",
"597 672 OFFCURVE",
"608 666 CURVE SMOOTH",
"624 656 OFFCURVE",
"643 632 OFFCURVE",
"642 614 CURVE SMOOTH",
"640 588 OFFCURVE",
"627 560 OFFCURVE",
"610 539 CURVE SMOOTH",
"559 476 OFFCURVE",
"504 416 OFFCURVE",
"450 354 CURVE SMOOTH",
"428 330 OFFCURVE",
"428 307 OFFCURVE",
"445 279 CURVE SMOOTH",
"500 191 OFFCURVE",
"554 103 OFFCURVE",
"608 16 CURVE SMOOTH",
"611 11 OFFCURVE",
"613 7 OFFCURVE",
"616 2 CURVE SMOOTH",
"634 -34 OFFCURVE",
"627 -76 OFFCURVE",
"598 -93 CURVE SMOOTH",
"569 -110 OFFCURVE",
"533 -101 OFFCURVE",
"509 -63 CURVE SMOOTH",
"458 16 OFFCURVE",
"408 100 OFFCURVE",
"359 182 CURVE",
"352 191 OFFCURVE",
"347 202 OFFCURVE",
"341 213 CURVE"
);
}
);
vertWidth = 1000;
width = 674;
}
);
note = cid00057;
unicode = 0058;
},
{
glyphname = Y;
lastChange = "2020-11-05 18:12:30 +0000";
layers = (
{
layerId = "E24ABCAD-EB1C-406E-B20D-44C7493A2261";
paths = (
{
closed = 1;
nodes = (
"306 -4 LINE SMOOTH",
"306 -21 OFFCURVE",
"306 -38 OFFCURVE",
"309 -54 CURVE SMOOTH",
"311 -72 OFFCURVE",
"315 -96 OFFCURVE",
"339 -91 CURVE SMOOTH",
"351 -89 OFFCURVE",
"364 -70 OFFCURVE",
"372 -55 CURVE SMOOTH",
"378 -45 OFFCURVE",
"376 -31 OFFCURVE",
"375 -18 CURVE SMOOTH",
"374 32 OFFCURVE",
"369 82 OFFCURVE",
"370 134 CURVE SMOOTH",
"372 207 OFFCURVE",
"376 280 OFFCURVE",
"418 346 CURVE SMOOTH",
"454 403 OFFCURVE",
"486 462 OFFCURVE",
"520 521 CURVE SMOOTH",
"539 554 OFFCURVE",
"558 587 OFFCURVE",
"574 622 CURVE SMOOTH",
"578 632 OFFCURVE",
"580 654 OFFCURVE",
"569 662 CURVE SMOOTH",
"558 671 OFFCURVE",
"539 662 OFFCURVE",
"527 655 CURVE SMOOTH",
"515 648 OFFCURVE",
"506 633 OFFCURVE",
"499 621 CURVE SMOOTH",
"458 547 OFFCURVE",
"418 473 OFFCURVE",
"376 399 CURVE SMOOTH",
"354 360 OFFCURVE",
"330 360 OFFCURVE",
"301 392 CURVE SMOOTH",
"237 466 OFFCURVE",
"174 540 OFFCURVE",
"110 612 CURVE SMOOTH",
"98 626 OFFCURVE",
"79 650 OFFCURVE",
"62 637 CURVE SMOOTH",
"38 619 OFFCURVE",
"40 585 OFFCURVE",
"67 555 CURVE SMOOTH",
"126 490 OFFCURVE",
"182 423 OFFCURVE",
"243 360 CURVE SMOOTH",
"287 315 OFFCURVE",
"312 267 OFFCURVE",
"307 204 CURVE SMOOTH",
"305 170 OFFCURVE",
"306 135 OFFCURVE",
"306 101 CURVE SMOOTH"
);
},
{
closed = 1;
nodes = (
"281 282 OFFCURVE",
"258 310 OFFCURVE",
"233 338 CURVE SMOOTH",
"174 400 OFFCURVE",
"116 462 OFFCURVE",
"58 525 CURVE SMOOTH",
"45 540 OFFCURVE",
"35 558 OFFCURVE",
"27 576 CURVE SMOOTH",
"10 608 OFFCURVE",
"16 636 OFFCURVE",
"39 651 CURVE SMOOTH",
"60 666 OFFCURVE",
"91 659 OFFCURVE",
"113 635 CURVE SMOOTH",
"159 584 OFFCURVE",
"203 531 OFFCURVE",
"249 481 CURVE SMOOTH",
"270 456 OFFCURVE",
"294 433 OFFCURVE",
"317 410 CURVE SMOOTH",
"334 392 OFFCURVE",
"349 395 OFFCURVE",
"360 416 CURVE SMOOTH",
"401 490 OFFCURVE",
"441 563 OFFCURVE",
"482 638 CURVE SMOOTH",
"504 679 OFFCURVE",
"535 697 OFFCURVE",
"568 685 CURVE SMOOTH",
"594 677 OFFCURVE",
"607 660 OFFCURVE",
"600 632 CURVE",
"596 621 OFFCURVE",
"593 609 OFFCURVE",
"587 599 CURVE SMOOTH",
"536 508 OFFCURVE",
"481 419 OFFCURVE",
"432 326 CURVE SMOOTH",
"414 291 OFFCURVE",
"400 249 OFFCURVE",
"397 209 CURVE SMOOTH",
"394 130 OFFCURVE",
"399 50 OFFCURVE",
"402 -29 CURVE SMOOTH",
"404 -79 OFFCURVE",
"378 -111 OFFCURVE",
"335 -110 CURVE SMOOTH",
"301 -108 OFFCURVE",
"287 -96 OFFCURVE",
"286 -61 CURVE SMOOTH",
"285 -15 OFFCURVE",
"286 31 OFFCURVE",
"286 78 CURVE",
"284 78 OFFCURVE",
"281 187 OFFCURVE",
"281 241 CURVE SMOOTH"
);
}
);
vertWidth = 1000;
width = 620;
}
);
note = cid00058;
unicode = 0059;
},
{
glyphname = Z;
lastChange = "2020-11-05 18:12:30 +0000";
layers = (
{
layerId = "E24ABCAD-EB1C-406E-B20D-44C7493A2261";
paths = (
{
closed = 1;
nodes = (
"309 -66 OFFCURVE",
"598 -60 OFFCURVE",
"743 -60 CURVE SMOOTH",
"755 -60 OFFCURVE",
"768 -58 OFFCURVE",
"779 -55 CURVE SMOOTH",
"809 -48 OFFCURVE",
"813 -26 OFFCURVE",
"810 -1 CURVE SMOOTH",
"806 23 OFFCURVE",
"788 29 OFFCURVE",
"767 28 CURVE SMOOTH",
"716 27 OFFCURVE",
"666 21 OFFCURVE",
"616 20 CURVE SMOOTH",
"516 17 OFFCURVE",
"415 10 OFFCURVE",
"314 14 CURVE SMOOTH",
"233 17 OFFCURVE",
"225 35 OFFCURVE",
"265 104 CURVE SMOOTH",
"337 230 OFFCURVE",
"415 352 OFFCURVE",
"488 478 CURVE SMOOTH",
"506 508 OFFCURVE",
"517 545 OFFCURVE",
"522 580 CURVE SMOOTH",
"527 630 OFFCURVE",
"510 644 OFFCURVE",
"460 645 CURVE SMOOTH",
"375 645 OFFCURVE",
"291 644 OFFCURVE",
"206 643 CURVE SMOOTH",
"163 642 OFFCURVE",
"120 640 OFFCURVE",
"78 633 CURVE SMOOTH",
"61 631 OFFCURVE",
"36 612 OFFCURVE",
"35 599 CURVE SMOOTH",
"33 570 OFFCURVE",
"57 558 OFFCURVE",
"85 559 CURVE SMOOTH",
"139 559 OFFCURVE",
"193 561 OFFCURVE",
"247 563 CURVE SMOOTH",
"288 564 OFFCURVE",
"328 573 OFFCURVE",
"368 567 CURVE SMOOTH",
"431 557 OFFCURVE",
"440 532 OFFCURVE",
"407 478 CURVE SMOOTH",
"324 348 OFFCURVE",
"238 218 OFFCURVE",
"157 87 CURVE SMOOTH",
"138 55 OFFCURVE",
"128 15 OFFCURVE",
"120 -22 CURVE SMOOTH",
"112 -53 OFFCURVE",
"132 -69 OFFCURVE",
"165 -69 CURVE SMOOTH",
"309 -69 LINE"
);
},
{
closed = 1;
nodes = (
"532 667 OFFCURVE",
"566 633 OFFCURVE",
"550 566 CURVE SMOOTH",
"536 512 OFFCURVE",
"510 460 OFFCURVE",
"482 412 CURVE SMOOTH",
"418 301 OFFCURVE",
"348 194 OFFCURVE",
"281 85 CURVE SMOOTH",
"274 73 OFFCURVE",
"273 59 OFFCURVE",
"269 46 CURVE",
"282 44 OFFCURVE",
"294 39 OFFCURVE",
"307 39 CURVE SMOOTH",
"454 44 OFFCURVE",
"599 50 OFFCURVE",
"745 54 CURVE SMOOTH",
"814 55 OFFCURVE",
"841 37 OFFCURVE",
"842 -9 CURVE SMOOTH",
"843 -55 OFFCURVE",
"814 -81 OFFCURVE",
"749 -83 CURVE SMOOTH",
"694 -85 OFFCURVE",
"638 -80 OFFCURVE",
"583 -80 CURVE SMOOTH",
"509 -81 OFFCURVE",
"436 -87 OFFCURVE",
"362 -89 CURVE SMOOTH",
"298 -90 OFFCURVE",
"234 -93 OFFCURVE",
"170 -90 CURVE SMOOTH",
"107 -88 OFFCURVE",
"83 -57 OFFCURVE",
"98 3 CURVE SMOOTH",
"108 45 OFFCURVE",
"125 85 OFFCURVE",
"147 122 CURVE SMOOTH",
"216 236 OFFCURVE",
"289 349 OFFCURVE",
"360 462 CURVE SMOOTH",
"366 472 OFFCURVE",
"372 481 OFFCURVE",
"377 491 CURVE SMOOTH",
"394 523 OFFCURVE",
"388 538 OFFCURVE",
"351 539 CURVE SMOOTH",
"285 540 OFFCURVE",
"219 537 OFFCURVE",
"152 536 CURVE SMOOTH",
"119 536 OFFCURVE",
"85 532 OFFCURVE",
"53 539 CURVE SMOOTH",
"37 542 OFFCURVE",
"13 560 OFFCURVE",
"10 576 CURVE SMOOTH",
"6 595 OFFCURVE",
"14 626 OFFCURVE",
"29 637 CURVE SMOOTH",
"49 654 OFFCURVE",
"80 666 OFFCURVE",
"108 667 CURVE SMOOTH",
"169 672 OFFCURVE",
"231 669 OFFCURVE",
"292 669 CURVE",
"292 669 OFFCURVE",
"406 668 OFFCURVE",
"462 667 CURVE SMOOTH"
);
}
);
vertWidth = 1000;
width = 864;
}
);
note = cid00059;
unicode = 005A;
},
{
glyphname = A.rotat;
lastChange = "2020-11-05 18:12:30 +0000";
layers = (
{
layerId = "E24ABCAD-EB1C-406E-B20D-44C7493A2261";
paths = (
{
closed = 1;
nodes = (
"474 468 OFFCURVE",
"606 479 OFFCURVE",
"606 492 CURVE SMOOTH",
"606 515 OFFCURVE",
"474 532 OFFCURVE",
"411 549 CURVE",
"411 459 LINE"
);
},
{
closed = 1;
nodes = (
"376 589 OFFCURVE",
"389 593 OFFCURVE",
"412 587 CURVE SMOOTH",
"469 570 OFFCURVE",
"525 554 OFFCURVE",
"583 537 CURVE SMOOTH",
"607 530 OFFCURVE",
"640 528 OFFCURVE",
"640 492 CURVE SMOOTH",
"640 458 OFFCURVE",
"608 453 OFFCURVE",
"584 448 CURVE SMOOTH",
"532 435 OFFCURVE",
"479 428 OFFCURVE",
"426 421 CURVE SMOOTH",
"392 417 OFFCURVE",
"381 431 OFFCURVE",
"380 464 CURVE SMOOTH",
"379 482 OFFCURVE",
"380 499 OFFCURVE",
"380 516 CURVE",
"380 516 OFFCURVE",
"380 547 OFFCURVE",
"379 561 CURVE SMOOTH"
);
},
{
closed = 1;
nodes = (
"324 279 OFFCURVE",
"321 263 OFFCURVE",
"327 251 CURVE SMOOTH",
"332 240 OFFCURVE",
"345 223 OFFCURVE",
"358 224 CURVE SMOOTH",
"370 226 OFFCURVE",
"377 243 OFFCURVE",
"380 255 CURVE SMOOTH",
"384 273 OFFCURVE",
"382 293 OFFCURVE",
"383 313 CURVE SMOOTH",
"385 340 OFFCURVE",
"397 360 OFFCURVE",
"425 367 CURVE SMOOTH",
"542 396 OFFCURVE",
"669 417 OFFCURVE",
"786 444 CURVE SMOOTH",
"813 450 OFFCURVE",
"834 453 OFFCURVE",
"860 457 CURVE SMOOTH",
"873 460 OFFCURVE",
"892 475 OFFCURVE",
"894 488 CURVE SMOOTH",
"899 507 OFFCURVE",
"841 525 OFFCURVE",
"831 528 CURVE SMOOTH",
"693 566 OFFCURVE",
"554 603 OFFCURVE",
"416 642 CURVE SMOOTH",
"367 655 OFFCURVE",
"358 672 OFFCURVE",
"362 725 CURVE SMOOTH",
"364 754 OFFCURVE",
"368 784 OFFCURVE",
"367 812 CURVE SMOOTH",
"366 823 OFFCURVE",
"359 839 OFFCURVE",
"347 841 CURVE SMOOTH",
"335 842 OFFCURVE",
"323 825 OFFCURVE",
"320 816 CURVE SMOOTH",
"313 792 OFFCURVE",
"312 767 OFFCURVE",
"311 743 CURVE SMOOTH",
"306 691 OFFCURVE",
"290 680 OFFCURVE",
"241 692 CURVE SMOOTH",
"230 695 OFFCURVE",
"219 701 OFFCURVE",
"208 705 CURVE SMOOTH",
"165 720 OFFCURVE",
"122 736 OFFCURVE",
"81 750 CURVE SMOOTH",
"64 756 OFFCURVE",
"46 760 OFFCURVE",
"37 739 CURVE SMOOTH",
"28 717 OFFCURVE",
"34 696 OFFCURVE",
"55 686 CURVE SMOOTH",
"75 676 OFFCURVE",
"97 669 OFFCURVE",
"118 663 CURVE SMOOTH",
"168 649 OFFCURVE",
"219 637 OFFCURVE",
"271 625 CURVE SMOOTH",
"306 615 OFFCURVE",
"322 591 OFFCURVE",
"323 556 CURVE SMOOTH",
"324 525 OFFCURVE",
"323 493 OFFCURVE",
"325 462 CURVE SMOOTH",
"327 431 OFFCURVE",
"312 412 OFFCURVE",
"283 407 CURVE SMOOTH",
"234 399 OFFCURVE",
"185 394 OFFCURVE",
"136 388 CURVE SMOOTH",
"115 385 OFFCURVE",
"92 385 OFFCURVE",
"71 378 CURVE SMOOTH",
"58 375 OFFCURVE",
"41 365 OFFCURVE",
"44 347 CURVE SMOOTH",
"47 331 OFFCURVE",
"58 323 OFFCURVE",
"69 320 CURVE SMOOTH",
"89 316 OFFCURVE",
"112 314 OFFCURVE",
"130 318 CURVE SMOOTH",
"179 328 OFFCURVE",
"228 343 OFFCURVE",
"277 355 CURVE SMOOTH",
"308 362 OFFCURVE",
"321 351 OFFCURVE",
"324 322 CURVE SMOOTH",
"325 313 OFFCURVE",
"324 302 OFFCURVE",
"324 293 CURVE SMOOTH"
);
},
{
closed = 1;
nodes = (
"278 745 OFFCURVE",
"279 766 OFFCURVE",
"283 789 CURVE SMOOTH",
"287 808 OFFCURVE",
"292 829 OFFCURVE",
"300 847 CURVE SMOOTH",
"310 868 OFFCURVE",
"330 874 OFFCURVE",
"352 868 CURVE SMOOTH",
"375 863 OFFCURVE",
"384 848 OFFCURVE",
"384 825 CURVE SMOOTH",
"383 790 OFFCURVE",
"385 754 OFFCURVE",
"383 719 CURVE SMOOTH",
"382 689 OFFCURVE",
"392 673 OFFCURVE",
"421 664 CURVE SMOOTH",
"562 617 OFFCURVE",
"702 574 OFFCURVE",
"849 550 CURVE SMOOTH",
"871 547 OFFCURVE",
"895 535 OFFCURVE",
"911 519 CURVE SMOOTH",
"939 493 OFFCURVE",
"931 454 OFFCURVE",
"894 441 CURVE SMOOTH",
"862 430 OFFCURVE",
"827 428 OFFCURVE",
"794 421 CURVE SMOOTH",
"676 396 OFFCURVE",
"558 370 OFFCURVE",
"440 343 CURVE SMOOTH",
"413 338 OFFCURVE",
"406 320 OFFCURVE",
"409 296 CURVE SMOOTH",
"411 282 OFFCURVE",
"414 270 OFFCURVE",
"413 257 CURVE SMOOTH",
"412 227 OFFCURVE",
"390 204 OFFCURVE",
"364 202 CURVE SMOOTH",
"338 199 OFFCURVE",
"311 219 OFFCURVE",
"305 247 CURVE SMOOTH",
"302 262 OFFCURVE",
"302 280 OFFCURVE",
"302 296 CURVE SMOOTH",
"301 324 OFFCURVE",
"287 335 OFFCURVE",
"259 328 CURVE SMOOTH",
"214 318 OFFCURVE",
"170 303 OFFCURVE",
"124 297 CURVE SMOOTH",
"99 292 OFFCURVE",
"70 295 OFFCURVE",
"44 304 CURVE SMOOTH",
"29 310 OFFCURVE",
"12 334 OFFCURVE",
"12 350 CURVE SMOOTH",
"12 365 OFFCURVE",
"29 387 OFFCURVE",
"44 396 CURVE SMOOTH",
"59 407 OFFCURVE",
"82 407 OFFCURVE",
"103 409 CURVE SMOOTH",
"153 415 OFFCURVE",
"204 422 OFFCURVE",
"254 428 CURVE SMOOTH",
"286 432 OFFCURVE",
"301 447 OFFCURVE",
"297 480 CURVE SMOOTH",
"295 493 OFFCURVE",
"297 508 OFFCURVE",
"297 522 CURVE SMOOTH",
"296 583 OFFCURVE",
"291 590 OFFCURVE",
"232 608 CURVE SMOOTH",
"180 622 OFFCURVE",
"130 637 OFFCURVE",
"81 654 CURVE SMOOTH",
"64 660 OFFCURVE",
"48 668 OFFCURVE",
"33 679 CURVE SMOOTH",
"9 696 OFFCURVE",
"8 720 OFFCURVE",
"18 745 CURVE SMOOTH",
"27 770 OFFCURVE",
"45 784 OFFCURVE",
"70 779 CURVE SMOOTH",
"119 766 OFFCURVE",
"166 750 OFFCURVE",
"214 736 CURVE SMOOTH",
"233 730 OFFCURVE",
"253 724 OFFCURVE",
"275 716 CURVE"
);
}
);
vertWidth = 683;
width = 1000;
}
);
note = cid08753;
},
{
glyphname = B.rotat;
lastChange = "2020-11-05 18:12:30 +0000";
layers = (
{
layerId = "E24ABCAD-EB1C-406E-B20D-44C7493A2261";
paths = (
{
closed = 1;
nodes = (
"202 559 OFFCURVE",
"197 519 OFFCURVE",
"203 480 CURVE SMOOTH",
"208 450 OFFCURVE",
"220 417 OFFCURVE",
"241 398 CURVE SMOOTH",
"284 357 OFFCURVE",
"363 370 OFFCURVE",
"432 420 CURVE SMOOTH",
"468 447 OFFCURVE",
"470 472 OFFCURVE",
"445 540 CURVE SMOOTH",
"444 543 OFFCURVE",
"443 546 OFFCURVE",
"442 549 CURVE SMOOTH",
"433 582 OFFCURVE",
"444 601 OFFCURVE",
"478 600 CURVE SMOOTH",
"516 599 OFFCURVE",
"555 593 OFFCURVE",
"594 591 CURVE SMOOTH",
"634 589 OFFCURVE",
"674 587 OFFCURVE",
"713 591 CURVE SMOOTH",
"743 594 OFFCURVE",
"750 620 OFFCURVE",
"741 667 CURVE SMOOTH",
"736 697 OFFCURVE",
"714 690 OFFCURVE",
"696 688 CURVE SMOOTH",
"661 683 OFFCURVE",
"626 674 OFFCURVE",
"591 670 CURVE SMOOTH",
"522 662 OFFCURVE",
"453 656 OFFCURVE",
"384 650 CURVE SMOOTH",
"363 648 OFFCURVE",
"344 644 OFFCURVE",
"355 615 CURVE SMOOTH",
"363 595 OFFCURVE",
"353 582 OFFCURVE",
"334 579 CURVE SMOOTH",
"315 577 OFFCURVE",
"296 577 OFFCURVE",
"277 581 CURVE SMOOTH",
"256 585 OFFCURVE",
"235 595 OFFCURVE",
"202 607 CURVE"
);
},
{
closed = 1;
nodes = (
"474 578 OFFCURVE",
"470 573 OFFCURVE",
"477 545 CURVE SMOOTH",
"483 525 OFFCURVE",
"492 503 OFFCURVE",
"491 483 CURVE SMOOTH",
"489 460 OFFCURVE",
"482 434 OFFCURVE",
"469 417 CURVE SMOOTH",
"419 347 OFFCURVE",
"308 323 OFFCURVE",
"234 366 CURVE SMOOTH",
"218 375 OFFCURVE",
"205 394 OFFCURVE",
"197 412 CURVE SMOOTH",
"170 474 OFFCURVE",
"176 542 OFFCURVE",
"180 607 CURVE SMOOTH",
"182 636 OFFCURVE",
"203 646 OFFCURVE",
"231 634 CURVE SMOOTH",
"251 626 OFFCURVE",
"269 613 OFFCURVE",
"289 605 CURVE SMOOTH",
"298 602 OFFCURVE",
"316 598 OFFCURVE",
"322 607 CURVE SMOOTH",
"329 615 OFFCURVE",
"321 628 OFFCURVE",
"317 637 CURVE SMOOTH",
"304 665 OFFCURVE",
"310 675 OFFCURVE",
"342 678 CURVE SMOOTH",
"467 690 OFFCURVE",
"593 703 OFFCURVE",
"718 716 CURVE SMOOTH",
"734 718 OFFCURVE",
"762 686 OFFCURVE",
"769 658 CURVE SMOOTH",
"783 600 OFFCURVE",
"752 561 OFFCURVE",
"693 560 CURVE SMOOTH",
"673 559 OFFCURVE",
"654 560 OFFCURVE",
"635 560 CURVE",
"634 558 OFFCURVE",
"546 566 OFFCURVE",
"503 573 CURVE SMOOTH"
);
},
{
closed = 1;
nodes = (
"76 655 OFFCURVE",
"149 621 OFFCURVE",
"132 514 CURVE SMOOTH",
"123 458 OFFCURVE",
"134 401 OFFCURVE",
"174 356 CURVE SMOOTH",
"224 299 OFFCURVE",
"287 278 OFFCURVE",
"361 297 CURVE SMOOTH",
"435 316 OFFCURVE",
"504 343 OFFCURVE",
"526 428 CURVE SMOOTH",
"532 450 OFFCURVE",
"538 471 OFFCURVE",
"542 495 CURVE SMOOTH",
"546 512 OFFCURVE",
"554 520 OFFCURVE",
"574 518 CURVE SMOOTH",
"610 513 OFFCURVE",
"647 510 OFFCURVE",
"683 507 CURVE SMOOTH",
"806 499 OFFCURVE",
"852 592 OFFCURVE",
"810 675 CURVE SMOOTH",
"798 699 OFFCURVE",
"802 721 OFFCURVE",
"816 743 CURVE SMOOTH",
"832 769 OFFCURVE",
"822 788 OFFCURVE",
"791 792 CURVE SMOOTH",
"780 793 OFFCURVE",
"769 792 OFFCURVE",
"758 790 CURVE SMOOTH",
"701 780 OFFCURVE",
"645 767 OFFCURVE",
"588 757 CURVE SMOOTH",
"528 747 OFFCURVE",
"468 733 OFFCURVE",
"409 730 CURVE SMOOTH",
"269 722 OFFCURVE",
"130 720 OFFCURVE",
"-7 716 CURVE SMOOTH",
"-31 716 OFFCURVE",
"-52 713 OFFCURVE",
"-52 682 CURVE SMOOTH",
"-51 650 OFFCURVE",
"-26 657 OFFCURVE",
"-7 656 CURVE SMOOTH"
);
},
{
closed = 1;
nodes = (
"305 740 OFFCURVE",
"486 765 OFFCURVE",
"667 791 CURVE SMOOTH",
"696 796 OFFCURVE",
"723 806 OFFCURVE",
"752 812 CURVE SMOOTH",
"764 815 OFFCURVE",
"777 816 OFFCURVE",
"791 816 CURVE SMOOTH",
"838 816 OFFCURVE",
"862 778 OFFCURVE",
"839 737 CURVE SMOOTH",
"826 715 OFFCURVE",
"824 696 OFFCURVE",
"837 671 CURVE SMOOTH",
"873 608 OFFCURVE",
"846 532 OFFCURVE",
"781 500 CURVE SMOOTH",
"731 474 OFFCURVE",
"680 473 OFFCURVE",
"626 484 CURVE SMOOTH",
"582 493 OFFCURVE",
"577 491 OFFCURVE",
"562 446 CURVE SMOOTH",
"527 337 OFFCURVE",
"451 275 OFFCURVE",
"338 266 CURVE SMOOTH",
"224 258 OFFCURVE",
"115 322 OFFCURVE",
"113 455 CURVE SMOOTH",
"112 483 OFFCURVE",
"111 509 OFFCURVE",
"112 536 CURVE SMOOTH",
"114 587 OFFCURVE",
"84 616 OFFCURVE",
"18 624 CURVE SMOOTH",
"5 625 OFFCURVE",
"-9 624 OFFCURVE",
"-23 624 CURVE SMOOTH",
"-60 625 OFFCURVE",
"-78 639 OFFCURVE",
"-82 667 CURVE SMOOTH",
"-86 696 OFFCURVE",
"-68 728 OFFCURVE",
"-40 737 CURVE SMOOTH",
"-27 742 OFFCURVE",
"-13 743 OFFCURVE",
"1 743 CURVE SMOOTH",
"41 744 OFFCURVE",
"82 744 OFFCURVE",
"123 744 CURVE SMOOTH"
);
}
);
vertWidth = 670;
width = 1000;
}
);
note = cid08754;
},
{
glyphname = C.rotat;
lastChange = "2020-11-05 18:12:30 +0000";
layers = (
{
layerId = "E24ABCAD-EB1C-406E-B20D-44C7493A2261";
paths = (
{
closed = 1;
nodes = (
"190 790 OFFCURVE",
"90 729 OFFCURVE",
"57 618 CURVE SMOOTH",
"38 557 OFFCURVE",
"53 497 OFFCURVE",
"65 438 CURVE SMOOTH",
"78 379 OFFCURVE",
"115 337 OFFCURVE",
"162 303 CURVE SMOOTH",
"178 292 OFFCURVE",
"195 287 OFFCURVE",
"209 305 CURVE SMOOTH",
"225 323 OFFCURVE",
"214 336 OFFCURVE",
"201 349 CURVE SMOOTH",
"192 358 OFFCURVE",
"184 368 OFFCURVE",
"174 375 CURVE SMOOTH",
"136 406 OFFCURVE",
"118 449 OFFCURVE",
"109 496 CURVE SMOOTH",
"87 613 OFFCURVE",
"126 686 OFFCURVE",
"236 731 CURVE SMOOTH",
"303 758 OFFCURVE",
"373 761 OFFCURVE",
"443 758 CURVE SMOOTH",
"547 753 OFFCURVE",
"620 691 OFFCURVE",
"675 592 CURVE SMOOTH",
"706 532 OFFCURVE",
"687 428 OFFCURVE",
"652 386 CURVE SMOOTH",
"646 379 OFFCURVE",
"640 371 OFFCURVE",
"637 362 CURVE SMOOTH",
"634 354 OFFCURVE",
"633 341 OFFCURVE",
"638 337 CURVE SMOOTH",
"644 332 OFFCURVE",
"657 330 OFFCURVE",
"667 332 CURVE SMOOTH",
"675 333 OFFCURVE",
"684 341 OFFCURVE",
"689 347 CURVE SMOOTH",
"738 403 OFFCURVE",
"765 467 OFFCURVE",
"752 541 CURVE SMOOTH",
"733 658 OFFCURVE",
"658 736 OFFCURVE",
"559 787 CURVE SMOOTH",
"511 811 OFFCURVE",
"401 824 OFFCURVE",
"320 811 CURVE SMOOTH"
);
},
{
closed = 1;
nodes = (
"126 480 OFFCURVE",
"148 434 OFFCURVE",
"191 396 CURVE SMOOTH",
"210 380 OFFCURVE",
"227 359 OFFCURVE",
"238 338 CURVE SMOOTH",
"252 315 OFFCURVE",
"244 293 OFFCURVE",
"223 277 CURVE SMOOTH",
"203 260 OFFCURVE",
"181 258 OFFCURVE",
"159 273 CURVE SMOOTH",
"88 325 OFFCURVE",
"40 388 OFFCURVE",
"29 482 CURVE SMOOTH",
"21 546 OFFCURVE",
"19 603 OFFCURVE",
"47 663 CURVE SMOOTH",
"85 745 OFFCURVE",
"145 798 OFFCURVE",
"230 822 CURVE SMOOTH",
"355 857 OFFCURVE",
"481 861 OFFCURVE",
"597 795 CURVE SMOOTH",
"698 739 OFFCURVE",
"772 659 OFFCURVE",
"786 539 CURVE SMOOTH",
"796 449 OFFCURVE",
"766 375 OFFCURVE",
"703 314 CURVE SMOOTH",
"684 295 OFFCURVE",
"661 293 OFFCURVE",
"639 305 CURVE SMOOTH",
"615 318 OFFCURVE",
"607 340 OFFCURVE",
"614 365 CURVE SMOOTH",
"620 381 OFFCURVE",
"627 398 OFFCURVE",
"637 413 CURVE SMOOTH",
"688 487 OFFCURVE",
"678 562 OFFCURVE",
"625 632 CURVE SMOOTH",
"530 757 OFFCURVE",
"268 762 OFFCURVE",
"164 647 CURVE SMOOTH",
"140 620 OFFCURVE",
"133 602 OFFCURVE",
"132 530 CURVE"
);
}
);
vertWidth = 657;
width = 1000;
}
);
note = cid08755;
},
{
glyphname = D.rotat;
lastChange = "2020-11-05 18:12:30 +0000";
layers = (
{
layerId = "E24ABCAD-EB1C-406E-B20D-44C7493A2261";
paths = (
{
closed = 1;
nodes = (
"202 719 OFFCURVE",
"179 718 OFFCURVE",
"155 719 CURVE SMOOTH",
"139 719 OFFCURVE",
"132 712 OFFCURVE",
"131 696 CURVE SMOOTH",
"127 628 OFFCURVE",
"172 543 OFFCURVE",
"235 515 CURVE SMOOTH",
"331 472 OFFCURVE",
"432 471 OFFCURVE",
"534 488 CURVE SMOOTH",
"628 504 OFFCURVE",
"665 581 OFFCURVE",
"650 669 CURVE SMOOTH",
"646 689 OFFCURVE",
"636 702 OFFCURVE",
"614 703 CURVE SMOOTH",
"485 708 OFFCURVE",
"355 713 OFFCURVE",
"227 719 CURVE SMOOTH"
);
},
{
closed = 1;
nodes = (
"534 728 OFFCURVE",
"561 731 OFFCURVE",
"587 733 CURVE SMOOTH",
"663 737 OFFCURVE",
"695 704 OFFCURVE",
"688 629 CURVE SMOOTH",
"680 532 OFFCURVE",
"604 451 OFFCURVE",
"506 449 CURVE SMOOTH",
"432 447 OFFCURVE",
"355 455 OFFCURVE",
"280 464 CURVE SMOOTH",
"218 470 OFFCURVE",
"177 506 OFFCURVE",
"148 562 CURVE SMOOTH",
"127 606 OFFCURVE",
"99 646 OFFCURVE",
"105 700 CURVE SMOOTH",
"110 739 OFFCURVE",
"111 745 OFFCURVE",
"150 745 CURVE SMOOTH",
"179 746 OFFCURVE",
"208 745 OFFCURVE",
"236 745 CURVE",
"236 747 OFFCURVE",
"417 735 OFFCURVE",
"508 730 CURVE SMOOTH"
);
},
{
closed = 1;
nodes = (
"593 402 OFFCURVE",
"653 426 OFFCURVE",
"695 489 CURVE SMOOTH",
"754 579 OFFCURVE",
"740 682 OFFCURVE",
"750 780 CURVE SMOOTH",
"754 818 OFFCURVE",
"715 834 OFFCURVE",
"680 813 CURVE SMOOTH",
"643 791 OFFCURVE",
"604 782 OFFCURVE",
"561 784 CURVE SMOOTH",
"509 787 OFFCURVE",
"457 791 OFFCURVE",
"405 793 CURVE SMOOTH",
"296 797 OFFCURVE",
"188 800 OFFCURVE",
"81 802 CURVE SMOOTH",
"56 803 OFFCURVE",
"45 793 OFFCURVE",
"44 767 CURVE SMOOTH",
"41 657 OFFCURVE",
"75 559 OFFCURVE",
"144 475 CURVE SMOOTH",
"168 446 OFFCURVE",
"199 425 OFFCURVE",
"236 419 CURVE SMOOTH",
"307 407 OFFCURVE",
"498 394 OFFCURVE",
"522 396 CURVE SMOOTH"
);
},
{
closed = 1;
nodes = (
"19 820 OFFCURVE",
"42 838 OFFCURVE",
"113 833 CURVE SMOOTH",
"204 827 OFFCURVE",
"296 822 OFFCURVE",
"388 817 CURVE SMOOTH",
"446 814 OFFCURVE",
"505 809 OFFCURVE",
"562 811 CURVE SMOOTH",
"602 812 OFFCURVE",
"641 823 OFFCURVE",
"680 835 CURVE SMOOTH",
"736 852 OFFCURVE",
"796 810 OFFCURVE",
"780 754 CURVE SMOOTH",
"763 694 OFFCURVE",
"767 634 OFFCURVE",
"757 576 CURVE SMOOTH",
"740 474 OFFCURVE",
"639 375 OFFCURVE",
"535 370 CURVE SMOOTH",
"449 367 OFFCURVE",
"361 378 OFFCURVE",
"273 384 CURVE SMOOTH",
"167 391 OFFCURVE",
"106 452 OFFCURVE",
"63 545 CURVE SMOOTH",
"31 613 OFFCURVE",
"26 685 OFFCURVE",
"19 753 CURVE"
);
}
);
vertWidth = 541;
width = 1000;
}
);
note = cid08756;
},
{
glyphname = E.rotat;
lastChange = "2020-11-05 18:12:30 +0000";
layers = (
{
layerId = "E24ABCAD-EB1C-406E-B20D-44C7493A2261";
paths = (
{
closed = 1;
nodes = (
"187 798 OFFCURVE",
"149 800 OFFCURVE",
"112 798 CURVE SMOOTH",
"66 796 OFFCURVE",
"35 757 OFFCURVE",
"43 710 CURVE SMOOTH",
"48 688 OFFCURVE",
"53 666 OFFCURVE",
"58 644 CURVE SMOOTH",
"87 538 OFFCURVE",
"144 446 OFFCURVE",
"196 352 CURVE SMOOTH",
"202 342 OFFCURVE",
"216 325 OFFCURVE",
"229 330 CURVE SMOOTH",
"242 336 OFFCURVE",
"242 360 OFFCURVE",
"238 371 CURVE SMOOTH",
"226 411 OFFCURVE",
"208 450 OFFCURVE",
"193 488 CURVE SMOOTH",
"167 550 OFFCURVE",
"141 613 OFFCURVE",
"120 676 CURVE SMOOTH",
"108 710 OFFCURVE",
"120 727 OFFCURVE",
"154 729 CURVE SMOOTH",
"207 732 OFFCURVE",
"260 736 OFFCURVE",
"314 736 CURVE SMOOTH",
"373 737 OFFCURVE",
"391 716 OFFCURVE",
"394 657 CURVE SMOOTH",
"397 577 OFFCURVE",
"401 498 OFFCURVE",
"407 419 CURVE SMOOTH",
"408 408 OFFCURVE",
"419 399 OFFCURVE",
"427 388 CURVE",
"435 398 OFFCURVE",
"448 407 OFFCURVE",
"450 417 CURVE SMOOTH",
"454 443 OFFCURVE",
"454 470 OFFCURVE",
"452 497 CURVE SMOOTH",
"447 560 OFFCURVE",
"440 623 OFFCURVE",
"436 686 CURVE SMOOTH",
"433 731 OFFCURVE",
"447 748 OFFCURVE",
"492 748 CURVE SMOOTH",
"543 750 OFFCURVE",
"594 749 OFFCURVE",
"643 748 CURVE SMOOTH",
"681 746 OFFCURVE",
"695 734 OFFCURVE",
"696 696 CURVE SMOOTH",
"700 621 OFFCURVE",
"701 544 OFFCURVE",
"703 469 CURVE SMOOTH",
"704 450 OFFCURVE",
"700 429 OFFCURVE",
"705 411 CURVE SMOOTH",
"708 401 OFFCURVE",
"722 389 OFFCURVE",
"733 387 CURVE SMOOTH",
"739 385 OFFCURVE",
"753 400 OFFCURVE",
"757 410 CURVE SMOOTH",
"761 422 OFFCURVE",
"762 437 OFFCURVE",
"761 451 CURVE SMOOTH",
"759 533 OFFCURVE",
"756 615 OFFCURVE",
"752 698 CURVE SMOOTH",
"751 721 OFFCURVE",
"751 745 OFFCURVE",
"748 768 CURVE SMOOTH",
"741 804 OFFCURVE",
"720 817 OFFCURVE",
"683 815 CURVE SMOOTH",
"530 808 OFFCURVE",
"224 797 OFFCURVE",
"224 798 CURVE"
);
},
{
closed = 1;
nodes = (
"680 673 LINE SMOOTH",
"679 706 OFFCURVE",
"666 720 OFFCURVE",
"633 721 CURVE SMOOTH",
"591 721 OFFCURVE",
"549 721 OFFCURVE",
"507 721 CURVE SMOOTH",
"480 721 OFFCURVE",
"464 713 OFFCURVE",
"468 678 CURVE SMOOTH",
"476 603 OFFCURVE",
"480 527 OFFCURVE",
"483 451 CURVE SMOOTH",
"484 432 OFFCURVE",
"484 410 OFFCURVE",
"476 395 CURVE SMOOTH",
"468 379 OFFCURVE",
"448 361 OFFCURVE",
"433 360 CURVE SMOOTH",
"419 359 OFFCURVE",
"397 377 OFFCURVE",
"391 392 CURVE SMOOTH",
"381 420 OFFCURVE",
"376 451 OFFCURVE",
"373 483 CURVE SMOOTH",
"369 538 OFFCURVE",
"367 594 OFFCURVE",
"364 649 CURVE SMOOTH",
"363 699 OFFCURVE",
"355 709 OFFCURVE",
"306 708 CURVE SMOOTH",
"265 707 OFFCURVE",
"223 704 OFFCURVE",
"181 702 CURVE SMOOTH",
"145 699 OFFCURVE",
"135 684 OFFCURVE",
"148 650 CURVE SMOOTH",
"178 576 OFFCURVE",
"210 502 OFFCURVE",
"240 428 CURVE SMOOTH",
"249 407 OFFCURVE",
"258 387 OFFCURVE",
"265 365 CURVE",
"273 347 OFFCURVE",
"273 328 OFFCURVE",
"253 317 CURVE SMOOTH",
"232 307 OFFCURVE",
"209 298 OFFCURVE",
"192 320 CURVE SMOOTH",
"173 343 OFFCURVE",
"154 368 OFFCURVE",
"141 395 CURVE SMOOTH",
"98 491 OFFCURVE",
"40 581 OFFCURVE",
"22 688 CURVE SMOOTH",
"7 775 OFFCURVE",
"49 827 OFFCURVE",
"135 825 CURVE SMOOTH",
"262 823 OFFCURVE",
"387 830 OFFCURVE",
"514 843 CURVE SMOOTH",
"576 848 OFFCURVE",
"640 842 OFFCURVE",
"703 838 CURVE SMOOTH",
"738 836 OFFCURVE",
"767 808 OFFCURVE",
"770 772 CURVE SMOOTH",
"775 731 OFFCURVE",
"776 691 OFFCURVE",
"777 650 CURVE SMOOTH",
"780 575 OFFCURVE",
"784 498 OFFCURVE",
"785 423 CURVE SMOOTH",
"786 384 OFFCURVE",
"767 362 OFFCURVE",
"737 362 CURVE SMOOTH",
"710 362 OFFCURVE",
"682 389 OFFCURVE",
"680 422 CURVE SMOOTH",
"678 465 OFFCURVE",
"680 507 OFFCURVE",
"680 550 CURVE SMOOTH"
);
}
);
vertWidth = 615;
width = 1000;
}
);
note = cid08757;
},
{
glyphname = F.rotat;
lastChange = "2020-11-05 18:12:30 +0000";
layers = (
{
layerId = "E24ABCAD-EB1C-406E-B20D-44C7493A2261";
paths = (
{
closed = 1;
nodes = (
"474 386 OFFCURVE",
"499 383 OFFCURVE",
"522 387 CURVE SMOOTH",
"535 390 OFFCURVE",
"557 398 OFFCURVE",
"556 413 CURVE SMOOTH",
"554 426 OFFCURVE",
"533 429 OFFCURVE",
"521 430 CURVE SMOOTH",
"485 434 OFFCURVE",
"474 442 OFFCURVE",
"473 477 CURVE SMOOTH",
"470 550 OFFCURVE",
"468 623 OFFCURVE",
"467 695 CURVE SMOOTH",
"466 722 OFFCURVE",
"475 735 OFFCURVE",
"504 735 CURVE SMOOTH",
"560 737 OFFCURVE",
"617 742 OFFCURVE",
"674 745 CURVE SMOOTH",
"710 747 OFFCURVE",
"733 728 OFFCURVE",
"735 691 CURVE SMOOTH",
"738 622 OFFCURVE",
"737 553 OFFCURVE",
"738 483 CURVE SMOOTH",
"740 346 OFFCURVE",
"811 361 OFFCURVE",
"810 450 CURVE SMOOTH",
"810 590 OFFCURVE",
"805 618 OFFCURVE",
"805 722 CURVE SMOOTH",
"805 735 OFFCURVE",
"798 780 OFFCURVE",
"800 793 CURVE SMOOTH",
"808 840 OFFCURVE",
"770 842 OFFCURVE",
"753 840 CURVE SMOOTH",
"720 836 OFFCURVE",
"689 822 OFFCURVE",
"657 821 CURVE SMOOTH",
"556 816 OFFCURVE",
"455 816 OFFCURVE",
"354 814 CURVE SMOOTH",
"321 813 OFFCURVE",
"287 811 OFFCURVE",
"255 811 CURVE SMOOTH",
"198 811 OFFCURVE",
"142 814 OFFCURVE",
"87 814 CURVE SMOOTH",
"63 814 OFFCURVE",
"40 800 OFFCURVE",
"44 776 CURVE SMOOTH",
"46 761 OFFCURVE",
"67 744 OFFCURVE",
"83 738 CURVE SMOOTH",
"102 731 OFFCURVE",
"122 738 OFFCURVE",
"142 737 CURVE SMOOTH",
"215 736 OFFCURVE",
"287 735 OFFCURVE",
"360 732 CURVE SMOOTH",
"391 731 OFFCURVE",
"407 713 OFFCURVE",
"408 681 CURVE SMOOTH",
"410 616 OFFCURVE",
"413 552 OFFCURVE",
"415 487 CURVE SMOOTH",
"416 458 OFFCURVE",
"408 436 OFFCURVE",
"374 430 CURVE SMOOTH",
"365 429 OFFCURVE",
"348 420 OFFCURVE",
"349 408 CURVE SMOOTH",
"349 395 OFFCURVE",
"368 388 OFFCURVE",
"379 387 CURVE SMOOTH",
"402 383 OFFCURVE",
"426 386 OFFCURVE",
"450 386 CURVE SMOOTH"
);
},
{
closed = 1;
nodes = (
"713 853 OFFCURVE",
"736 864 OFFCURVE",
"760 864 CURVE SMOOTH",
"779 865 OFFCURVE",
"801 860 OFFCURVE",
"817 849 CURVE SMOOTH",
"836 837 OFFCURVE",
"841 816 OFFCURVE",
"832 792 CURVE SMOOTH",
"827 780 OFFCURVE",
"824 768 OFFCURVE",
"825 755 CURVE SMOOTH",
"828 686 OFFCURVE",
"834 617 OFFCURVE",
"835 547 CURVE SMOOTH",
"837 496 OFFCURVE",
"836 444 OFFCURVE",
"834 391 CURVE SMOOTH",
"832 365 OFFCURVE",
"811 346 OFFCURVE",
"786 346 CURVE SMOOTH",
"769 346 OFFCURVE",
"744 359 OFFCURVE",
"738 373 CURVE SMOOTH",
"726 399 OFFCURVE",
"720 429 OFFCURVE",
"719 458 CURVE SMOOTH",
"716 529 OFFCURVE",
"718 601 OFFCURVE",
"713 673 CURVE SMOOTH",
"709 717 OFFCURVE",
"703 717 OFFCURVE",
"657 713 CURVE SMOOTH",
"612 709 OFFCURVE",
"566 707 OFFCURVE",
"521 705 CURVE SMOOTH",
"500 705 OFFCURVE",
"491 700 OFFCURVE",
"493 676 CURVE SMOOTH",
"497 615 OFFCURVE",
"497 555 OFFCURVE",
"496 495 CURVE SMOOTH",
"496 464 OFFCURVE",
"505 447 OFFCURVE",
"538 448 CURVE SMOOTH",
"562 448 OFFCURVE",
"580 439 OFFCURVE",
"579 409 CURVE SMOOTH",
"578 380 OFFCURVE",
"567 359 OFFCURVE",
"537 359 CURVE SMOOTH",
"485 358 OFFCURVE",
"432 358 OFFCURVE",
"380 359 CURVE SMOOTH",
"357 359 OFFCURVE",
"335 366 OFFCURVE",
"333 394 CURVE SMOOTH",
"332 418 OFFCURVE",
"340 437 OFFCURVE",
"365 449 CURVE SMOOTH",
"377 454 OFFCURVE",
"389 473 OFFCURVE",
"390 486 CURVE SMOOTH",
"390 548 OFFCURVE",
"386 611 OFFCURVE",
"385 674 CURVE SMOOTH",
"384 701 OFFCURVE",
"369 705 OFFCURVE",
"347 705 CURVE SMOOTH",
"267 704 OFFCURVE",
"188 702 OFFCURVE",
"109 706 CURVE SMOOTH",
"86 707 OFFCURVE",
"59 720 OFFCURVE",
"41 735 CURVE SMOOTH",
"13 759 OFFCURVE",
"13 806 OFFCURVE",
"44 826 CURVE SMOOTH",
"64 837 OFFCURVE",
"93 836 OFFCURVE",
"115 837 CURVE SMOOTH",
"176 839 OFFCURVE",
"560 844 OFFCURVE",
"690 852 CURVE SMOOTH"
);
}
);
vertWidth = 551;
width = 1000;
}
);
note = cid08758;
},
{
glyphname = G.rotat;
lastChange = "2020-11-05 18:12:30 +0000";
layers = (
{
layerId = "E24ABCAD-EB1C-406E-B20D-44C7493A2261";
paths = (
{
closed = 1;
nodes = (
"236 431 OFFCURVE",
"235 425 OFFCURVE",
"234 420 CURVE",
"213 420 OFFCURVE",
"192 421 OFFCURVE",
"171 420 CURVE SMOOTH",
"134 420 OFFCURVE",
"98 420 OFFCURVE",
"61 416 CURVE",
"40 417 OFFCURVE",
"40 400 OFFCURVE",
"40 392 CURVE SMOOTH",
"39 369 OFFCURVE",
"45 362 OFFCURVE",
"91 361 CURVE SMOOTH",
"179 359 OFFCURVE",
"269 364 OFFCURVE",
"359 366 CURVE SMOOTH",
"401 367 OFFCURVE",
"409 360 OFFCURVE",
"412 318 CURVE SMOOTH",
"413 305 OFFCURVE",
"413 291 OFFCURVE",
"418 279 CURVE SMOOTH",
"422 270 OFFCURVE",
"458 259 OFFCURVE",
"464 284 CURVE SMOOTH",
"468 301 OFFCURVE",
"466 319 OFFCURVE",
"466 337 CURVE SMOOTH",
"465 391 OFFCURVE",
"464 446 OFFCURVE",
"460 501 CURVE SMOOTH",
"460 524 OFFCURVE",
"422 543 OFFCURVE",
"412 499 CURVE SMOOTH",
"410 490 OFFCURVE",
"411 478 OFFCURVE",
"412 469 CURVE SMOOTH",
"416 435 OFFCURVE",
"397 429 OFFCURVE",
"368 422 CURVE SMOOTH",
"303 408 OFFCURVE",
"193 521 OFFCURVE",
"197 586 CURVE SMOOTH",
"199 626 OFFCURVE",
"199 666 OFFCURVE",
"229 697 CURVE SMOOTH",
"264 734 OFFCURVE",
"307 755 OFFCURVE",
"358 763 CURVE SMOOTH",
"447 777 OFFCURVE",
"532 756 OFFCURVE",
"618 735 CURVE SMOOTH",
"685 718 OFFCURVE",
"748 607 OFFCURVE",
"725 528 CURVE SMOOTH",
"719 503 OFFCURVE",
"708 478 OFFCURVE",
"701 454 CURVE",
"699 438 OFFCURVE",
"697 420 OFFCURVE",
"700 406 CURVE SMOOTH",
"708 379 OFFCURVE",
"724 375 OFFCURVE",
"744 394 CURVE SMOOTH",
"757 408 OFFCURVE",
"770 424 OFFCURVE",
"779 441 CURVE SMOOTH",
"836 556 OFFCURVE",
"778 733 OFFCURVE",
"662 784 CURVE SMOOTH",
"608 808 OFFCURVE",
"549 823 OFFCURVE",
"490 829 CURVE SMOOTH",
"401 839 OFFCURVE",
"310 838 OFFCURVE",
"228 791 CURVE SMOOTH",
"151 748 OFFCURVE",
"111 651 OFFCURVE",
"133 567 CURVE SMOOTH",
"149 508 OFFCURVE",
"168 453 OFFCURVE",
"238 435 CURVE"
);
},
{
closed = 1;
nodes = (
"151 472 OFFCURVE",
"130 499 OFFCURVE",
"117 529 CURVE SMOOTH",
"69 642 OFFCURVE",
"121 774 OFFCURVE",
"236 818 CURVE SMOOTH",
"384 876 OFFCURVE",
"532 869 OFFCURVE",
"674 801 CURVE SMOOTH",
"810 736 OFFCURVE",
"869 559 OFFCURVE",
"803 423 CURVE SMOOTH",
"796 408 OFFCURVE",
"784 394 OFFCURVE",
"772 381 CURVE SMOOTH",
"756 361 OFFCURVE",
"734 351 OFFCURVE",
"708 361 CURVE SMOOTH",
"681 370 OFFCURVE",
"673 394 OFFCURVE",
"675 419 CURVE SMOOTH",
"675 442 OFFCURVE",
"679 467 OFFCURVE",
"691 485 CURVE SMOOTH",
"739 566 OFFCURVE",
"671 710 OFFCURVE",
"571 721 CURVE SMOOTH",
"500 729 OFFCURVE",
"429 747 OFFCURVE",
"356 734 CURVE SMOOTH",
"313 727 OFFCURVE",
"277 708 OFFCURVE",
"247 677 CURVE SMOOTH",
"235 665 OFFCURVE",
"227 647 OFFCURVE",
"223 631 CURVE SMOOTH",
"207 569 OFFCURVE",
"278 462 OFFCURVE",
"339 449 CURVE SMOOTH",
"372 441 OFFCURVE",
"386 449 OFFCURVE",
"388 483 CURVE SMOOTH",
"389 534 OFFCURVE",
"418 552 OFFCURVE",
"440 551 CURVE SMOOTH",
"467 549 OFFCURVE",
"480 531 OFFCURVE",
"484 481 CURVE SMOOTH",
"488 429 OFFCURVE",
"493 376 OFFCURVE",
"496 324 CURVE SMOOTH",
"497 304 OFFCURVE",
"496 282 OFFCURVE",
"488 266 CURVE SMOOTH",
"479 251 OFFCURVE",
"460 237 OFFCURVE",
"443 235 CURVE SMOOTH",
"432 233 OFFCURVE",
"410 250 OFFCURVE",
"403 269 CURVE SMOOTH",
"381 331 OFFCURVE",
"381 331 OFFCURVE",
"318 332 CURVE SMOOTH",
"237 334 OFFCURVE",
"158 336 OFFCURVE",
"79 338 CURVE SMOOTH",
"56 338 OFFCURVE",
"29 338 OFFCURVE",
"20 365 CURVE SMOOTH",
"6 412 OFFCURVE",
"13 442 OFFCURVE",
"67 439 CURVE SMOOTH",
"101 438 OFFCURVE",
"135 439 OFFCURVE",
"170 439 CURVE"
);
}
);
vertWidth = 669;
width = 1000;
}
);
note = cid08759;
},
{
glyphname = H.rotat;
lastChange = "2020-11-05 18:12:30 +0000";
layers = (
{
layerId = "E24ABCAD-EB1C-406E-B20D-44C7493A2261";
paths = (
{
closed = 1;
nodes = (
"550 441 OFFCURVE",
"512 440 OFFCURVE",
"472 441 CURVE SMOOTH",
"434 442 OFFCURVE",
"422 452 OFFCURVE",
"419 490 CURVE SMOOTH",
"414 565 OFFCURVE",
"411 641 OFFCURVE",
"408 717 CURVE SMOOTH",
"407 761 OFFCURVE",
"414 769 OFFCURVE",
"458 768 CURVE SMOOTH",
"545 767 OFFCURVE",
"631 763 OFFCURVE",
"719 761 CURVE SMOOTH",
"730 761 OFFCURVE",
"749 762 OFFCURVE",
"754 773 CURVE SMOOTH",
"760 786 OFFCURVE",
"747 806 OFFCURVE",
"738 812 CURVE SMOOTH",
"719 822 OFFCURVE",
"696 825 OFFCURVE",
"675 826 CURVE SMOOTH",
"650 828 OFFCURVE",
"625 824 OFFCURVE",
"601 824 CURVE SMOOTH",
"531 823 OFFCURVE",
"462 824 OFFCURVE",
"393 824 CURVE SMOOTH",
"384 824 OFFCURVE",
"374 821 OFFCURVE",
"365 821 CURVE SMOOTH",
"335 821 OFFCURVE",
"306 820 OFFCURVE",
"276 820 CURVE SMOOTH",
"213 821 OFFCURVE",
"149 823 OFFCURVE",
"87 822 CURVE SMOOTH",
"76 822 OFFCURVE",
"58 815 OFFCURVE",
"55 803 CURVE SMOOTH",
"52 790 OFFCURVE",
"68 777 OFFCURVE",
"78 771 CURVE SMOOTH",
"90 764 OFFCURVE",
"105 763 OFFCURVE",
"119 763 CURVE SMOOTH",
"179 763 OFFCURVE",
"239 765 OFFCURVE",
"299 763 CURVE SMOOTH",
"348 761 OFFCURVE",
"362 745 OFFCURVE",
"365 697 CURVE SMOOTH",
"369 639 OFFCURVE",
"370 581 OFFCURVE",
"372 524 CURVE SMOOTH",
"373 446 OFFCURVE",
"367 443 OFFCURVE",
"288 448 CURVE SMOOTH",
"222 453 OFFCURVE",
"156 452 OFFCURVE",
"92 451 CURVE SMOOTH",
"80 451 OFFCURVE",
"59 437 OFFCURVE",
"57 428 CURVE SMOOTH",
"54 407 OFFCURVE",
"72 400 OFFCURVE",
"92 400 CURVE SMOOTH",
"202 398 OFFCURVE",
"314 396 OFFCURVE",
"426 393 CURVE SMOOTH",
"504 392 OFFCURVE",
"584 390 OFFCURVE",
"662 388 CURVE SMOOTH",
"684 388 OFFCURVE",
"708 386 OFFCURVE",
"729 390 CURVE SMOOTH",
"739 391 OFFCURVE",
"751 402 OFFCURVE",
"754 411 CURVE SMOOTH",
"756 418 OFFCURVE",
"745 431 OFFCURVE",
"736 435 CURVE SMOOTH",
"726 440 OFFCURVE",
"712 441 OFFCURVE",
"701 441 CURVE SMOOTH",
"664 442 OFFCURVE",
"627 441 OFFCURVE",
"589 441 CURVE SMOOTH"
);
},
{
closed = 1;
nodes = (
"88 374 OFFCURVE",
"80 375 OFFCURVE",
"72 379 CURVE SMOOTH",
"49 391 OFFCURVE",
"36 410 OFFCURVE",
"40 437 CURVE SMOOTH",
"44 464 OFFCURVE",
"64 473 OFFCURVE",
"90 473 CURVE SMOOTH",
"306 473 LINE SMOOTH",
"352 473 OFFCURVE",
"353 473 OFFCURVE",
"351 519 CURVE SMOOTH",
"350 577 OFFCURVE",
"347 634 OFFCURVE",
"344 691 CURVE SMOOTH",
"342 721 OFFCURVE",
"328 736 OFFCURVE",
"297 736 CURVE SMOOTH",
"243 736 OFFCURVE",
"189 736 OFFCURVE",
"135 737 CURVE SMOOTH",
"102 738 OFFCURVE",
"71 742 OFFCURVE",
"45 769 CURVE SMOOTH",
"18 797 OFFCURVE",
"26 831 OFFCURVE",
"64 841 CURVE SMOOTH",
"89 846 OFFCURVE",
"114 849 OFFCURVE",
"138 849 CURVE SMOOTH",
"228 848 OFFCURVE",
"317 843 OFFCURVE",
"406 843 CURVE SMOOTH",
"503 843 OFFCURVE",
"598 846 OFFCURVE",
"694 848 CURVE SMOOTH",
"733 849 OFFCURVE",
"774 824 OFFCURVE",
"781 792 CURVE SMOOTH",
"789 756 OFFCURVE",
"771 730 OFFCURVE",
"734 731 CURVE SMOOTH",
"652 732 OFFCURVE",
"570 735 OFFCURVE",
"487 737 CURVE SMOOTH",
"439 738 OFFCURVE",
"439 737 OFFCURVE",
"439 687 CURVE SMOOTH",
"439 626 OFFCURVE",
"440 566 OFFCURVE",
"439 506 CURVE SMOOTH",
"439 478 OFFCURVE",
"450 467 OFFCURVE",
"477 466 CURVE SMOOTH",
"555 465 OFFCURVE",
"631 464 OFFCURVE",
"709 462 CURVE SMOOTH",
"722 461 OFFCURVE",
"738 459 OFFCURVE",
"750 455 CURVE SMOOTH",
"774 445 OFFCURVE",
"782 426 OFFCURVE",
"777 401 CURVE SMOOTH",
"772 378 OFFCURVE",
"758 366 OFFCURVE",
"734 366 CURVE SMOOTH",
"583 366 LINE",
"583 365 OFFCURVE",
"196 369 OFFCURVE",
"96 374 CURVE SMOOTH"
);
}
);
vertWidth = 550;
width = 1000;
}
);
note = cid08760;
},
{
glyphname = I.rotat;
lastChange = "2020-11-05 18:12:30 +0000";
layers = (
{
layerId = "E24ABCAD-EB1C-406E-B20D-44C7493A2261";
paths = (
{
closed = 1;
nodes = (
"39 561 OFFCURVE",
"45 451 OFFCURVE",
"45 396 CURVE SMOOTH",
"45 379 OFFCURVE",
"46 362 OFFCURVE",
"69 361 CURVE SMOOTH",
"92 360 OFFCURVE",
"98 376 OFFCURVE",
"98 395 CURVE SMOOTH",
"98 430 OFFCURVE",
"97 465 OFFCURVE",
"97 500 CURVE SMOOTH",
"97 544 OFFCURVE",
"116 569 OFFCURVE",
"158 575 CURVE SMOOTH",
"196 580 OFFCURVE",
"235 581 OFFCURVE",
"272 580 CURVE SMOOTH",
"344 579 OFFCURVE",
"417 574 OFFCURVE",
"489 573 CURVE SMOOTH",
"562 573 OFFCURVE",
"636 575 OFFCURVE",
"709 577 CURVE SMOOTH",
"733 577 OFFCURVE",
"742 566 OFFCURVE",
"743 543 CURVE SMOOTH",
"743 509 OFFCURVE",
"745 476 OFFCURVE",
"749 442 CURVE SMOOTH",
"750 422 OFFCURVE",
"739 391 OFFCURVE",
"773 391 CURVE SMOOTH",
"803 391 OFFCURVE",
"809 414 OFFCURVE",
"809 443 CURVE",
"810 448 OFFCURVE",
"809 452 OFFCURVE",
"809 457 CURVE SMOOTH",
"806 566 OFFCURVE",
"803 675 OFFCURVE",
"802 784 CURVE SMOOTH",
"802 806 OFFCURVE",
"798 826 OFFCURVE",
"771 824 CURVE SMOOTH",
"744 823 OFFCURVE",
"742 803 OFFCURVE",
"744 781 CURVE SMOOTH",
"747 749 OFFCURVE",
"748 718 OFFCURVE",
"749 687 CURVE SMOOTH",
"750 661 OFFCURVE",
"738 647 OFFCURVE",
"713 646 CURVE SMOOTH",
"685 643 OFFCURVE",
"657 639 OFFCURVE",
"629 639 CURVE SMOOTH",
"470 638 OFFCURVE",
"312 637 OFFCURVE",
"153 638 CURVE SMOOTH",
"108 638 OFFCURVE",
"100 647 OFFCURVE",
"98 693 CURVE SMOOTH",
"97 728 OFFCURVE",
"98 763 OFFCURVE",
"94 799 CURVE SMOOTH",
"93 808 OFFCURVE",
"83 823 OFFCURVE",
"74 824 CURVE SMOOTH",
"65 825 OFFCURVE",
"50 813 OFFCURVE",
"47 804 CURVE SMOOTH",
"41 788 OFFCURVE",
"39 770 OFFCURVE",
"39 753 CURVE SMOOTH",
"38 689 OFFCURVE",
"39 625 OFFCURVE",
"39 561 CURVE"
);
},
{
closed = 1;
nodes = (
"664 661 LINE SMOOTH",
"713 661 OFFCURVE",
"723 673 OFFCURVE",
"721 721 CURVE SMOOTH",
"720 752 OFFCURVE",
"721 784 OFFCURVE",
"728 814 CURVE SMOOTH",
"734 838 OFFCURVE",
"750 862 OFFCURVE",
"783 856 CURVE SMOOTH",
"812 851 OFFCURVE",
"823 826 OFFCURVE",
"825 799 CURVE SMOOTH",
"829 763 OFFCURVE",
"831 727 OFFCURVE",
"832 691 CURVE SMOOTH",
"833 602 OFFCURVE",
"833 514 OFFCURVE",
"832 426 CURVE SMOOTH",
"832 412 OFFCURVE",
"830 391 OFFCURVE",
"821 384 CURVE SMOOTH",
"806 371 OFFCURVE",
"785 361 OFFCURVE",
"765 360 CURVE SMOOTH",
"740 359 OFFCURVE",
"728 379 OFFCURVE",
"727 403 CURVE SMOOTH",
"725 438 OFFCURVE",
"724 473 OFFCURVE",
"726 507 CURVE SMOOTH",
"728 538 OFFCURVE",
"717 549 OFFCURVE",
"686 548 CURVE SMOOTH",
"606 547 OFFCURVE",
"526 547 OFFCURVE",
"446 548 CURVE SMOOTH",
"359 549 OFFCURVE",
"272 553 OFFCURVE",
"184 554 CURVE SMOOTH",
"124 555 OFFCURVE",
"119 547 OFFCURVE",
"119 487 CURVE SMOOTH",
"119 452 OFFCURVE",
"117 418 OFFCURVE",
"114 383 CURVE SMOOTH",
"111 354 OFFCURVE",
"92 339 OFFCURVE",
"65 340 CURVE SMOOTH",
"38 340 OFFCURVE",
"22 358 OFFCURVE",
"22 385 CURVE SMOOTH",
"20 450 OFFCURVE",
"20 516 OFFCURVE",
"20 583 CURVE SMOOTH",
"20 606 OFFCURVE",
"20 629 OFFCURVE",
"20 652 CURVE SMOOTH",
"18 700 OFFCURVE",
"14 746 OFFCURVE",
"15 794 CURVE SMOOTH",
"15 826 OFFCURVE",
"43 851 OFFCURVE",
"71 850 CURVE SMOOTH",
"98 849 OFFCURVE",
"117 827 OFFCURVE",
"119 792 CURVE SMOOTH",
"119 763 OFFCURVE",
"119 735 OFFCURVE",
"119 705 CURVE SMOOTH",
"118 673 OFFCURVE",
"129 661 OFFCURVE",
"161 662 CURVE SMOOTH",
"246 663 OFFCURVE",
"331 662 OFFCURVE",
"416 662 CURVE",
"416 661 LINE"
);
}
);
vertWidth = 561;
width = 1000;
}
);
note = cid08761;
},
{
glyphname = J.rotat;
lastChange = "2020-11-05 18:12:30 +0000";
layers = (
{
layerId = "E24ABCAD-EB1C-406E-B20D-44C7493A2261";
paths = (
{
closed = 1;
nodes = (
"145 582 OFFCURVE",
"117 601 OFFCURVE",
"109 640 CURVE SMOOTH",
"101 674 OFFCURVE",
"116 696 OFFCURVE",
"158 720 CURVE SMOOTH",
"178 732 OFFCURVE",
"199 741 OFFCURVE",
"218 754 CURVE SMOOTH",
"235 765 OFFCURVE",
"255 782 OFFCURVE",
"244 807 CURVE SMOOTH",
"234 830 OFFCURVE",
"210 831 OFFCURVE",
"186 824 CURVE SMOOTH",
"141 810 OFFCURVE",
"108 780 OFFCURVE",
"79 742 CURVE SMOOTH",
"42 695 OFFCURVE",
"35 641 OFFCURVE",
"59 586 CURVE SMOOTH",
"83 534 OFFCURVE",
"129 506 OFFCURVE",
"186 505 CURVE SMOOTH",
"311 502 OFFCURVE",
"437 504 OFFCURVE",
"563 504 CURVE SMOOTH",
"600 504 OFFCURVE",
"638 505 OFFCURVE",
"675 508 CURVE SMOOTH",
"719 513 OFFCURVE",
"743 495 OFFCURVE",
"746 451 CURVE SMOOTH",
"748 428 OFFCURVE",
"745 405 OFFCURVE",
"748 381 CURVE SMOOTH",
"749 371 OFFCURVE",
"756 352 OFFCURVE",
"769 351 CURVE SMOOTH",
"782 350 OFFCURVE",
"791 369 OFFCURVE",
"795 380 CURVE SMOOTH",
"800 392 OFFCURVE",
"797 408 OFFCURVE",
"797 423 CURVE SMOOTH",
"796 547 OFFCURVE",
"794 672 OFFCURVE",
"793 797 CURVE SMOOTH",
"793 820 OFFCURVE",
"781 822 OFFCURVE",
"766 813 CURVE",
"756 804 OFFCURVE",
"745 790 OFFCURVE",
"744 778 CURVE SMOOTH",
"741 727 OFFCURVE",
"740 675 OFFCURVE",
"741 624 CURVE SMOOTH",
"743 582 OFFCURVE",
"734 568 OFFCURVE",
"693 567 CURVE SMOOTH",
"604 566 OFFCURVE",
"220 567 OFFCURVE",
"181 575 CURVE SMOOTH"
);
},
{
closed = 1;
nodes = (
"810 342 OFFCURVE",
"789 327 OFFCURVE",
"774 328 CURVE SMOOTH",
"759 330 OFFCURVE",
"740 349 OFFCURVE",
"734 365 CURVE SMOOTH",
"726 388 OFFCURVE",
"727 415 OFFCURVE",
"723 440 CURVE SMOOTH",
"721 467 OFFCURVE",
"710 479 OFFCURVE",
"678 478 CURVE SMOOTH",
"581 473 OFFCURVE",
"484 474 OFFCURVE",
"386 473 CURVE SMOOTH",
"319 473 OFFCURVE",
"252 470 OFFCURVE",
"185 475 CURVE SMOOTH",
"79 483 OFFCURVE",
"9 560 OFFCURVE",
"19 665 CURVE SMOOTH",
"21 701 OFFCURVE",
"40 741 OFFCURVE",
"65 768 CURVE SMOOTH",
"98 801 OFFCURVE",
"169 858 OFFCURVE",
"220 852 CURVE SMOOTH",
"243 850 OFFCURVE",
"266 823 OFFCURVE",
"269 809 CURVE SMOOTH",
"272 792 OFFCURVE",
"260 768 OFFCURVE",
"247 751 CURVE SMOOTH",
"235 736 OFFCURVE",
"214 727 OFFCURVE",
"197 714 CURVE SMOOTH",
"183 705 OFFCURVE",
"166 697 OFFCURVE",
"157 685 CURVE SMOOTH",
"147 670 OFFCURVE",
"136 650 OFFCURVE",
"140 635 CURVE SMOOTH",
"143 622 OFFCURVE",
"163 605 OFFCURVE",
"179 603 CURVE SMOOTH",
"238 594 OFFCURVE",
"299 585 OFFCURVE",
"360 585 CURVE SMOOTH",
"468 585 OFFCURVE",
"576 592 OFFCURVE",
"684 595 CURVE SMOOTH",
"714 597 OFFCURVE",
"723 609 OFFCURVE",
"721 639 CURVE SMOOTH",
"717 681 OFFCURVE",
"718 723 OFFCURVE",
"720 765 CURVE SMOOTH",
"721 783 OFFCURVE",
"729 801 OFFCURVE",
"737 818 CURVE SMOOTH",
"747 839 OFFCURVE",
"765 844 OFFCURVE",
"787 837 CURVE SMOOTH",
"810 831 OFFCURVE",
"820 817 OFFCURVE",
"820 794 CURVE SMOOTH",
"820 572 LINE",
"820 572 OFFCURVE",
"829 367 OFFCURVE",
"820 356 CURVE SMOOTH"
);
}
);
vertWidth = 580;
width = 1000;
}
);
note = cid08762;
},
{
glyphname = K.rotat;
lastChange = "2020-11-05 18:12:30 +0000";
layers = (
{
layerId = "E24ABCAD-EB1C-406E-B20D-44C7493A2261";
paths = (
{
closed = 1;
nodes = (
"350 742 LINE",
"386 742 LINE SMOOTH",
"452 742 OFFCURVE",
"484 722 OFFCURVE",
"510 660 CURVE SMOOTH",
"526 621 OFFCURVE",
"524 614 OFFCURVE",
"484 599 CURVE SMOOTH",
"381 563 OFFCURVE",
"277 529 OFFCURVE",
"172 495 CURVE SMOOTH",
"148 487 OFFCURVE",
"122 484 OFFCURVE",
"99 475 CURVE SMOOTH",
"77 466 OFFCURVE",
"60 450 OFFCURVE",
"71 422 CURVE SMOOTH",
"83 393 OFFCURVE",
"104 400 OFFCURVE",
"124 408 CURVE SMOOTH",
"232 447 OFFCURVE",
"340 488 OFFCURVE",
"448 527 CURVE SMOOTH",
"557 568 OFFCURVE",
"557 568 OFFCURVE",
"639 485 CURVE SMOOTH",
"677 448 OFFCURVE",
"716 411 OFFCURVE",
"755 376 CURVE SMOOTH",
"763 369 OFFCURVE",
"781 362 OFFCURVE",
"791 370 CURVE SMOOTH",
"800 377 OFFCURVE",
"797 396 OFFCURVE",
"791 404 CURVE",
"779 427 OFFCURVE",
"762 446 OFFCURVE",
"746 466 CURVE SMOOTH",
"685 537 OFFCURVE",
"624 607 OFFCURVE",
"565 679 CURVE SMOOTH",
"556 690 OFFCURVE",
"550 711 OFFCURVE",
"555 724 CURVE SMOOTH",
"557 732 OFFCURVE",
"580 736 OFFCURVE",
"594 736 CURVE SMOOTH",
"648 735 OFFCURVE",
"702 732 OFFCURVE",
"756 731 CURVE SMOOTH",
"789 730 OFFCURVE",
"812 749 OFFCURVE",
"811 772 CURVE SMOOTH",
"811 795 OFFCURVE",
"789 806 OFFCURVE",
"753 804 CURVE SMOOTH",
"750 804 LINE SMOOTH",
"705 802 OFFCURVE",
"659 799 OFFCURVE",
"614 800 CURVE SMOOTH",
"566 800 OFFCURVE",
"519 804 OFFCURVE",
"471 805 CURVE SMOOTH",
"405 807 OFFCURVE",
"340 809 OFFCURVE",
"274 811 CURVE SMOOTH",
"217 812 OFFCURVE",
"161 812 OFFCURVE",
"107 812 CURVE SMOOTH",
"86 812 OFFCURVE",
"68 800 OFFCURVE",
"71 778 CURVE",
"71 769 OFFCURVE",
"89 756 OFFCURVE",
"102 751 CURVE SMOOTH",
"120 745 OFFCURVE",
"141 744 OFFCURVE",
"161 743 CURVE SMOOTH",
"224 742 OFFCURVE",
"287 743 OFFCURVE",
"350 743 CURVE"
);
},
{
closed = 1;
nodes = (
"603 677 OFFCURVE",
"617 654 OFFCURVE",
"634 634 CURVE SMOOTH",
"689 567 OFFCURVE",
"745 502 OFFCURVE",
"799 436 CURVE SMOOTH",
"808 426 OFFCURVE",
"818 412 OFFCURVE",
"818 400 CURVE SMOOTH",
"818 384 OFFCURVE",
"813 362 OFFCURVE",
"801 353 CURVE SMOOTH",
"784 339 OFFCURVE",
"759 328 OFFCURVE",
"737 351 CURVE SMOOTH",
"712 377 OFFCURVE",
"689 404 OFFCURVE",
"665 430 CURVE SMOOTH",
"658 437 OFFCURVE",
"651 444 OFFCURVE",
"644 451 CURVE SMOOTH",
"587 505 OFFCURVE",
"532 535 OFFCURVE",
"448 495 CURVE SMOOTH",
"345 448 OFFCURVE",
"233 418 OFFCURVE",
"126 381 CURVE SMOOTH",
"86 366 OFFCURVE",
"65 376 OFFCURVE",
"51 414 CURVE SMOOTH",
"37 450 OFFCURVE",
"47 477 OFFCURVE",
"88 491 CURVE SMOOTH",
"162 518 OFFCURVE",
"240 542 OFFCURVE",
"317 567 CURVE SMOOTH",
"367 583 OFFCURVE",
"415 601 OFFCURVE",
"465 617 CURVE SMOOTH",
"494 626 OFFCURVE",
"495 642 OFFCURVE",
"480 663 CURVE SMOOTH",
"459 695 OFFCURVE",
"432 715 OFFCURVE",
"392 715 CURVE SMOOTH",
"311 715 OFFCURVE",
"230 715 OFFCURVE",
"148 715 CURVE SMOOTH",
"125 716 OFFCURVE",
"103 724 OFFCURVE",
"80 726 CURVE SMOOTH",
"53 730 OFFCURVE",
"48 749 OFFCURVE",
"45 770 CURVE",
"44 795 OFFCURVE",
"48 815 OFFCURVE",
"73 823 CURVE SMOOTH",
"96 829 OFFCURVE",
"119 834 OFFCURVE",
"142 834 CURVE SMOOTH",
"245 832 OFFCURVE",
"349 826 OFFCURVE",
"453 825 CURVE SMOOTH",
"553 825 OFFCURVE",
"653 828 OFFCURVE",
"753 833 CURVE SMOOTH",
"809 836 OFFCURVE",
"845 817 OFFCURVE",
"846 778 CURVE SMOOTH",
"849 737 OFFCURVE",
"811 707 OFFCURVE",
"758 707 CURVE SMOOTH",
"593 707 LINE",
"592 705 OFFCURVE",
"590 701 OFFCURVE",
"587 698 CURVE"
);
}
);
vertWidth = 563;
width = 1000;
}
);
note = cid08763;
},
{
glyphname = L.rotat;
lastChange = "2020-11-05 18:12:30 +0000";
layers = (
{
layerId = "E24ABCAD-EB1C-406E-B20D-44C7493A2261";
paths = (
{
closed = 1;
nodes = (
"141 661 LINE SMOOTH",
"141 754 OFFCURVE",
"151 763 OFFCURVE",
"245 761 CURVE SMOOTH",
"246 761 OFFCURVE",
"247 761 OFFCURVE",
"248 760 CURVE",
"364 755 OFFCURVE",
"480 747 OFFCURVE",
"596 743 CURVE SMOOTH",
"656 741 OFFCURVE",
"715 745 OFFCURVE",
"776 749 CURVE SMOOTH",
"803 750 OFFCURVE",
"816 773 OFFCURVE",
"799 794 CURVE SMOOTH",
"788 809 OFFCURVE",
"767 822 OFFCURVE",
"749 822 CURVE SMOOTH",
"680 824 OFFCURVE",
"611 817 OFFCURVE",
"543 818 CURVE SMOOTH",
"432 820 OFFCURVE",
"321 826 OFFCURVE",
"211 830 CURVE SMOOTH",
"182 830 OFFCURVE",
"152 832 OFFCURVE",
"122 830 CURVE SMOOTH",
"96 827 OFFCURVE",
"79 813 OFFCURVE",
"80 780 CURVE SMOOTH",
"84 660 OFFCURVE",
"84 540 OFFCURVE",
"86 419 CURVE SMOOTH",
"87 409 OFFCURVE",
"93 393 OFFCURVE",
"101 389 CURVE SMOOTH",
"111 385 OFFCURVE",
"133 385 OFFCURVE",
"138 392 CURVE SMOOTH",
"147 406 OFFCURVE",
"153 425 OFFCURVE",
"152 443 CURVE SMOOTH",
"149 499 OFFCURVE",
"141 613 OFFCURVE",
"141 613 CURVE"
);
},
{
closed = 1;
nodes = (
"173 738 OFFCURVE",
"162 724 OFFCURVE",
"165 666 CURVE SMOOTH",
"167 608 OFFCURVE",
"173 551 OFFCURVE",
"174 493 CURVE SMOOTH",
"176 463 OFFCURVE",
"174 434 OFFCURVE",
"171 405 CURVE SMOOTH",
"168 378 OFFCURVE",
"149 362 OFFCURVE",
"124 355 CURVE SMOOTH",
"84 344 OFFCURVE",
"62 357 OFFCURVE",
"59 400 CURVE SMOOTH",
"52 501 OFFCURVE",
"54 594 OFFCURVE",
"50 695 CURVE SMOOTH",
"50 733 OFFCURVE",
"46 780 OFFCURVE",
"53 818 CURVE SMOOTH",
"55 828 OFFCURVE",
"69 841 OFFCURVE",
"79 843 CURVE SMOOTH",
"113 851 OFFCURVE",
"148 858 OFFCURVE",
"184 858 CURVE SMOOTH",
"368 856 OFFCURVE",
"552 851 OFFCURVE",
"735 847 CURVE SMOOTH",
"757 846 OFFCURVE",
"779 842 OFFCURVE",
"799 835 CURVE SMOOTH",
"825 825 OFFCURVE",
"844 807 OFFCURVE",
"840 776 CURVE SMOOTH",
"838 746 OFFCURVE",
"817 724 OFFCURVE",
"784 722 CURVE SMOOTH",
"746 719 OFFCURVE",
"707 722 OFFCURVE",
"669 722 CURVE",
"669 720 OFFCURVE",
"385 731 OFFCURVE",
"243 736 CURVE SMOOTH"
);
}
);
vertWidth = 542;
width = 1000;
}
);
note = cid08764;
},
{
glyphname = M.rotat;
lastChange = "2020-11-05 18:12:30 +0000";
layers = (
{
layerId = "E24ABCAD-EB1C-406E-B20D-44C7493A2261";
paths = (
{
closed = 1;
nodes = (
"163 301 OFFCURVE",
"123 302 OFFCURVE",
"87 295 CURVE SMOOTH",
"72 291 OFFCURVE",
"49 273 OFFCURVE",
"49 260 CURVE SMOOTH",
"49 246 OFFCURVE",
"68 229 OFFCURVE",
"83 219 CURVE SMOOTH",
"92 214 OFFCURVE",
"107 216 OFFCURVE",
"119 219 CURVE SMOOTH",
"183 239 OFFCURVE",
"247 229 OFFCURVE",
"313 227 CURVE SMOOTH",
"468 220 OFFCURVE",
"623 219 OFFCURVE",
"778 217 CURVE SMOOTH",
"791 217 OFFCURVE",
"812 222 OFFCURVE",
"815 235 CURVE SMOOTH",
"819 249 OFFCURVE",
"803 264 OFFCURVE",
"793 271 CURVE SMOOTH",
"681 352 OFFCURVE",
"568 431 OFFCURVE",
"455 510 CURVE SMOOTH",
"429 527 OFFCURVE",
"428 543 OFFCURVE",
"455 559 CURVE SMOOTH",
"501 586 OFFCURVE",
"547 612 OFFCURVE",
"594 636 CURVE SMOOTH",
"657 669 OFFCURVE",
"722 700 OFFCURVE",
"785 734 CURVE SMOOTH",
"803 744 OFFCURVE",
"823 759 OFFCURVE",
"814 786 CURVE SMOOTH",
"805 813 OFFCURVE",
"783 810 OFFCURVE",
"762 809 CURVE SMOOTH",
"671 807 OFFCURVE",
"580 803 OFFCURVE",
"489 804 CURVE SMOOTH",
"358 804 OFFCURVE",
"227 810 OFFCURVE",
"97 814 CURVE SMOOTH",
"67 815 OFFCURVE",
"42 798 OFFCURVE",
"40 776 CURVE SMOOTH",
"38 750 OFFCURVE",
"59 724 OFFCURVE",
"88 722 CURVE SMOOTH",
"102 720 OFFCURVE",
"115 722 OFFCURVE",
"128 723 CURVE SMOOTH",
"183 726 OFFCURVE",
"237 732 OFFCURVE",
"292 733 CURVE SMOOTH",
"366 737 OFFCURVE",
"440 739 OFFCURVE",
"514 740 CURVE SMOOTH",
"526 740 OFFCURVE",
"548 737 OFFCURVE",
"552 723 CURVE SMOOTH",
"556 711 OFFCURVE",
"541 699 OFFCURVE",
"531 693 CURVE SMOOTH",
"470 652 OFFCURVE",
"407 615 OFFCURVE",
"345 573 CURVE SMOOTH",
"307 548 OFFCURVE",
"306 522 OFFCURVE",
"340 495 CURVE SMOOTH",
"402 446 OFFCURVE",
"463 399 OFFCURVE",
"525 350 CURVE SMOOTH",
"533 344 OFFCURVE",
"542 336 OFFCURVE",
"548 329 CURVE SMOOTH",
"561 314 OFFCURVE",
"554 303 OFFCURVE",
"537 299 CURVE SMOOTH",
"527 296 OFFCURVE",
"516 296 OFFCURVE",
"506 296 CURVE SMOOTH",
"405 296 OFFCURVE",
"201 301 OFFCURVE",
"201 304 CURVE"
);
},
{
closed = 1;
nodes = (
"519 488 OFFCURVE",
"570 450 OFFCURVE",
"622 415 CURVE SMOOTH",
"681 374 OFFCURVE",
"741 336 OFFCURVE",
"801 296 CURVE SMOOTH",
"812 289 OFFCURVE",
"826 279 OFFCURVE",
"830 268 CURVE SMOOTH",
"837 249 OFFCURVE",
"840 228 OFFCURVE",
"836 209 CURVE SMOOTH",
"834 201 OFFCURVE",
"810 192 OFFCURVE",
"795 192 CURVE SMOOTH",
"611 194 OFFCURVE",
"427 198 OFFCURVE",
"243 200 CURVE SMOOTH",
"197 200 OFFCURVE",
"151 197 OFFCURVE",
"106 193 CURVE SMOOTH",
"66 192 OFFCURVE",
"33 211 OFFCURVE",
"21 249 CURVE SMOOTH",
"9 288 OFFCURVE",
"28 319 OFFCURVE",
"68 325 CURVE SMOOTH",
"88 328 OFFCURVE",
"109 327 OFFCURVE",
"129 327 CURVE SMOOTH",
"233 325 OFFCURVE",
"337 321 OFFCURVE",
"442 319 CURVE SMOOTH",
"463 319 OFFCURVE",
"485 323 OFFCURVE",
"506 325 CURVE",
"506 327 OFFCURVE",
"507 330 OFFCURVE",
"508 333 CURVE",
"485 354 OFFCURVE",
"462 375 OFFCURVE",
"436 394 CURVE SMOOTH",
"401 422 OFFCURVE",
"364 447 OFFCURVE",
"328 474 CURVE SMOOTH",
"273 516 OFFCURVE",
"272 551 OFFCURVE",
"328 592 CURVE SMOOTH",
"372 624 OFFCURVE",
"422 651 OFFCURVE",
"469 680 CURVE SMOOTH",
"477 685 OFFCURVE",
"485 690 OFFCURVE",
"491 702 CURVE",
"335 702 LINE SMOOTH",
"300 702 OFFCURVE",
"264 700 OFFCURVE",
"228 700 CURVE SMOOTH",
"203 699 OFFCURVE",
"178 698 OFFCURVE",
"153 699 CURVE SMOOTH",
"124 700 OFFCURVE",
"96 700 OFFCURVE",
"68 705 CURVE SMOOTH",
"37 711 OFFCURVE",
"18 741 OFFCURVE",
"21 771 CURVE SMOOTH",
"23 807 OFFCURVE",
"44 831 OFFCURVE",
"80 831 CURVE SMOOTH",
"148 831 OFFCURVE",
"219 829 OFFCURVE",
"289 827 CURVE SMOOTH",
"309 827 OFFCURVE",
"330 824 OFFCURVE",
"351 825 CURVE SMOOTH",
"466 829 OFFCURVE",
"580 833 OFFCURVE",
"695 837 CURVE SMOOTH",
"725 838 OFFCURVE",
"755 834 OFFCURVE",
"785 832 CURVE SMOOTH",
"816 831 OFFCURVE",
"834 813 OFFCURVE",
"839 784 CURVE SMOOTH",
"845 752 OFFCURVE",
"832 727 OFFCURVE",
"803 713 CURVE SMOOTH",
"735 681 OFFCURVE",
"667 651 OFFCURVE",
"600 616 CURVE SMOOTH",
"554 593 OFFCURVE",
"512 564 OFFCURVE",
"469 538 CURVE",
"469 524 LINE"
);
}
);
vertWidth = 731;
width = 1000;
}
);
note = cid08765;
},
{
glyphname = N.rotat;
lastChange = "2020-11-05 18:12:30 +0000";
layers = (
{
layerId = "E24ABCAD-EB1C-406E-B20D-44C7493A2261";
paths = (
{
closed = 1;
nodes = (
"617 653 OFFCURVE",
"600 669 OFFCURVE",
"581 666 CURVE SMOOTH",
"580 666 LINE SMOOTH",
"553 662 OFFCURVE",
"523 647 OFFCURVE",
"499 656 CURVE SMOOTH",
"439 678 OFFCURVE",
"378 703 OFFCURVE",
"324 738 CURVE SMOOTH",
"252 786 OFFCURVE",
"171 808 OFFCURVE",
"94 837 CURVE",
"91 839 OFFCURVE",
"84 840 OFFCURVE",
"82 837 CURVE",
"70 831 OFFCURVE",
"54 825 OFFCURVE",
"49 814 CURVE SMOOTH",
"46 805 OFFCURVE",
"53 787 OFFCURVE",
"61 780 CURVE SMOOTH",
"75 768 OFFCURVE",
"92 760 OFFCURVE",
"107 754 CURVE SMOOTH",
"197 715 OFFCURVE",
"289 677 OFFCURVE",
"381 639 CURVE SMOOTH",
"431 618 OFFCURVE",
"436 593 OFFCURVE",
"397 555 CURVE SMOOTH",
"325 484 OFFCURVE",
"252 413 OFFCURVE",
"180 343 CURVE SMOOTH",
"173 336 OFFCURVE",
"165 329 OFFCURVE",
"159 321 CURVE SMOOTH",
"130 283 OFFCURVE",
"136 261 OFFCURVE",
"181 244 CURVE SMOOTH",
"291 200 OFFCURVE",
"401 156 OFFCURVE",
"513 114 CURVE SMOOTH",
"586 87 OFFCURVE",
"660 63 OFFCURVE",
"732 37 CURVE SMOOTH",
"756 29 OFFCURVE",
"777 31 OFFCURVE",
"787 54 CURVE SMOOTH",
"798 80 OFFCURVE",
"779 94 OFFCURVE",
"759 105 CURVE SMOOTH",
"750 110 OFFCURVE",
"739 112 OFFCURVE",
"728 116 CURVE SMOOTH",
"587 165 OFFCURVE",
"445 214 OFFCURVE",
"305 265 CURVE SMOOTH",
"248 286 OFFCURVE",
"241 309 OFFCURVE",
"282 354 CURVE SMOOTH",
"349 423 OFFCURVE",
"420 489 OFFCURVE",
"493 552 CURVE SMOOTH",
"508 565 OFFCURVE",
"543 566 OFFCURVE",
"565 560 CURVE SMOOTH",
"625 543 OFFCURVE",
"684 519 OFFCURVE",
"742 497 CURVE SMOOTH",
"753 493 OFFCURVE",
"765 486 OFFCURVE",
"775 489 CURVE SMOOTH",
"786 492 OFFCURVE",
"801 501 OFFCURVE",
"804 511 CURVE SMOOTH",
"807 520 OFFCURVE",
"800 539 OFFCURVE",
"792 543 CURVE SMOOTH",
"750 562 OFFCURVE",
"707 578 OFFCURVE",
"664 592 CURVE SMOOTH",
"623 606 OFFCURVE",
"611 609 OFFCURVE",
"614 634 CURVE SMOOTH"
);
},
{
closed = 1;
nodes = (
"724 14 OFFCURVE",
"702 17 OFFCURVE",
"681 25 CURVE SMOOTH",
"534 77 OFFCURVE",
"386 129 OFFCURVE",
"239 183 CURVE SMOOTH",
"212 193 OFFCURVE",
"186 206 OFFCURVE",
"162 223 CURVE SMOOTH",
"111 255 OFFCURVE",
"107 300 OFFCURVE",
"148 343 CURVE SMOOTH",
"209 404 OFFCURVE",
"270 464 OFFCURVE",
"330 525 CURVE SMOOTH",
"343 538 OFFCURVE",
"354 550 OFFCURVE",
"366 565 CURVE SMOOTH",
"394 597 OFFCURVE",
"392 605 OFFCURVE",
"354 621 CURVE SMOOTH",
"297 645 OFFCURVE",
"239 668 OFFCURVE",
"183 692 CURVE SMOOTH",
"141 710 OFFCURVE",
"101 727 OFFCURVE",
"60 746 CURVE SMOOTH",
"34 758 OFFCURVE",
"21 780 OFFCURVE",
"22 808 CURVE SMOOTH",
"24 848 OFFCURVE",
"48 871 OFFCURVE",
"87 861 CURVE SMOOTH",
"137 847 OFFCURVE",
"189 831 OFFCURVE",
"237 809 CURVE SMOOTH",
"318 774 OFFCURVE",
"395 731 OFFCURVE",
"475 696 CURVE SMOOTH",
"500 685 OFFCURVE",
"531 687 OFFCURVE",
"560 687 CURVE SMOOTH",
"576 687 OFFCURVE",
"592 695 OFFCURVE",
"609 696 CURVE SMOOTH",
"638 698 OFFCURVE",
"651 680 OFFCURVE",
"648 652 CURVE SMOOTH",
"647 643 OFFCURVE",
"653 628 OFFCURVE",
"660 624 CURVE SMOOTH",
"676 615 OFFCURVE",
"694 611 OFFCURVE",
"711 606 CURVE SMOOTH",
"741 595 OFFCURVE",
"774 587 OFFCURVE",
"803 573 CURVE SMOOTH",
"834 556 OFFCURVE",
"843 529 OFFCURVE",
"831 502 CURVE SMOOTH",
"816 468 OFFCURVE",
"788 455 OFFCURVE",
"753 466 CURVE SMOOTH",
"689 487 OFFCURVE",
"625 511 OFFCURVE",
"561 529 CURVE SMOOTH",
"541 534 OFFCURVE",
"509 527 OFFCURVE",
"493 513 CURVE SMOOTH",
"434 464 OFFCURVE",
"377 411 OFFCURVE",
"320 358 CURVE SMOOTH",
"282 321 OFFCURVE",
"285 306 OFFCURVE",
"336 287 CURVE SMOOTH",
"471 239 OFFCURVE",
"606 191 OFFCURVE",
"741 143 CURVE SMOOTH",
"760 136 OFFCURVE",
"777 124 OFFCURVE",
"794 113 CURVE",
"812 98 OFFCURVE",
"824 79 OFFCURVE",
"812 53 CURVE SMOOTH",
"799 26 OFFCURVE",
"778 8 OFFCURVE",
"742 9 CURVE"
);
}
);
vertWidth = 886;
width = 1000;
}
);
note = cid08766;
},
{
glyphname = O.rotat;
lastChange = "2020-11-05 18:12:30 +0000";
layers = (
{
layerId = "E24ABCAD-EB1C-406E-B20D-44C7493A2261";
paths = (
{
closed = 1;
nodes = (
"139 691 OFFCURVE",
"117 628 OFFCURVE",
"138 589 CURVE SMOOTH",
"167 537 OFFCURVE",
"199 485 OFFCURVE",
"254 457 CURVE SMOOTH",
"349 409 OFFCURVE",
"451 384 OFFCURVE",
"558 405 CURVE SMOOTH",
"637 420 OFFCURVE",
"683 479 OFFCURVE",
"686 557 CURVE SMOOTH",
"689 614 OFFCURVE",
"626 711 OFFCURVE",
"562 719 CURVE SMOOTH",
"484 730 OFFCURVE",
"264 783 OFFCURVE",
"175 717 CURVE SMOOTH"
);
},
{
closed = 1;
nodes = (
"439 780 OFFCURVE",
"513 766 OFFCURVE",
"584 737 CURVE SMOOTH",
"671 702 OFFCURVE",
"720 623 OFFCURVE",
"710 535 CURVE SMOOTH",
"701 458 OFFCURVE",
"624 384 OFFCURVE",
"538 374 CURVE SMOOTH",
"418 360 OFFCURVE",
"304 387 OFFCURVE",
"207 454 CURVE SMOOTH",
"142 499 OFFCURVE",
"89 564 OFFCURVE",
"106 658 CURVE SMOOTH",
"119 722 OFFCURVE",
"170 770 OFFCURVE",
"238 776 CURVE SMOOTH",
"279 779 OFFCURVE",
"321 780 OFFCURVE",
"370 783 CURVE"
);
},
{
closed = 1;
nodes = (
"130 832 OFFCURVE",
"44 740 OFFCURVE",
"50 632 CURVE SMOOTH",
"55 515 OFFCURVE",
"118 435 OFFCURVE",
"215 379 CURVE SMOOTH",
"307 326 OFFCURVE",
"408 306 OFFCURVE",
"512 308 CURVE SMOOTH",
"624 308 OFFCURVE",
"715 371 OFFCURVE",
"748 467 CURVE SMOOTH",
"775 546 OFFCURVE",
"776 626 OFFCURVE",
"726 696 CURVE SMOOTH",
"683 756 OFFCURVE",
"624 797 OFFCURVE",
"551 810 CURVE SMOOTH",
"466 823 OFFCURVE",
"257 837 OFFCURVE",
"238 836 CURVE SMOOTH"
);
},
{
closed = 1;
nodes = (
"805 758 OFFCURVE",
"837 498 OFFCURVE",
"722 371 CURVE SMOOTH",
"669 314 OFFCURVE",
"598 290 OFFCURVE",
"522 287 CURVE SMOOTH",
"370 279 OFFCURVE",
"232 317 OFFCURVE",
"116 421 CURVE SMOOTH",
"45 485 OFFCURVE",
"6 632 OFFCURVE",
"38 723 CURVE SMOOTH",
"64 794 OFFCURVE",
"153 856 OFFCURVE",
"236 857 CURVE SMOOTH",
"263 858 OFFCURVE",
"502 845 OFFCURVE",
"591 819 CURVE SMOOTH"
);
}
);
vertWidth = 618;
width = 1000;
}
);
note = cid08767;
},
{
glyphname = P.rotat;
lastChange = "2020-11-05 18:12:30 +0000";
layers = (
{
layerId = "E24ABCAD-EB1C-406E-B20D-44C7493A2261";
paths = (
{
closed = 1;
nodes = (
"470 710 LINE SMOOTH",
"450 709 OFFCURVE",
"428 709 OFFCURVE",
"429 680 CURVE SMOOTH",
"431 642 OFFCURVE",
"432 602 OFFCURVE",
"438 564 CURVE SMOOTH",
"444 523 OFFCURVE",
"468 493 OFFCURVE",
"509 485 CURVE SMOOTH",
"546 479 OFFCURVE",
"584 476 OFFCURVE",
"620 477 CURVE SMOOTH",
"663 479 OFFCURVE",
"687 499 OFFCURVE",
"693 543 CURVE SMOOTH",
"699 586 OFFCURVE",
"699 632 OFFCURVE",
"701 676 CURVE SMOOTH",
"701 694 OFFCURVE",
"691 702 OFFCURVE",
"674 703 CURVE SMOOTH",
"635 705 OFFCURVE",
"596 708 OFFCURVE",
"560 710 CURVE SMOOTH"
);
},
{
closed = 1;
nodes = (
"721 602 OFFCURVE",
"722 583 OFFCURVE",
"721 565 CURVE SMOOTH",
"720 497 OFFCURVE",
"675 449 OFFCURVE",
"607 446 CURVE SMOOTH",
"583 445 OFFCURVE",
"559 447 OFFCURVE",
"534 450 CURVE SMOOTH",
"456 459 OFFCURVE",
"427 483 OFFCURVE",
"415 561 CURVE SMOOTH",
"407 606 OFFCURVE",
"410 654 OFFCURVE",
"408 700 CURVE SMOOTH",
"408 721 OFFCURVE",
"419 732 OFFCURVE",
"438 732 CURVE SMOOTH",
"517 732 OFFCURVE",
"596 733 OFFCURVE",
"675 730 CURVE SMOOTH",
"712 728 OFFCURVE",
"720 714 OFFCURVE",
"721 676 CURVE SMOOTH",
"721 621 LINE SMOOTH"
);
},
{
closed = 1;
nodes = (
"192 777 OFFCURVE",
"107 778 OFFCURVE",
"65 778 CURVE SMOOTH",
"47 778 OFFCURVE",
"32 770 OFFCURVE",
"35 752 CURVE SMOOTH",
"37 739 OFFCURVE",
"34 728 OFFCURVE",
"54 716 CURVE SMOOTH",
"61 712 OFFCURVE",
"78 716 OFFCURVE",
"88 716 CURVE SMOOTH",
"163 718 OFFCURVE",
"239 720 OFFCURVE",
"314 721 CURVE SMOOTH",
"351 721 OFFCURVE",
"364 705 OFFCURVE",
"365 668 CURVE SMOOTH",
"366 625 OFFCURVE",
"368 581 OFFCURVE",
"371 537 CURVE SMOOTH",
"374 502 OFFCURVE",
"391 472 OFFCURVE",
"420 451 CURVE SMOOTH",
"514 380 OFFCURVE",
"626 379 OFFCURVE",
"719 442 CURVE SMOOTH",
"738 454 OFFCURVE",
"755 479 OFFCURVE",
"758 501 CURVE SMOOTH",
"765 551 OFFCURVE",
"767 603 OFFCURVE",
"766 655 CURVE SMOOTH",
"765 710 OFFCURVE",
"763 709 OFFCURVE",
"814 730 CURVE SMOOTH",
"826 734 OFFCURVE",
"843 748 OFFCURVE",
"841 762 CURVE SMOOTH",
"839 775 OFFCURVE",
"819 781 OFFCURVE",
"807 782 CURVE SMOOTH",
"773 785 OFFCURVE",
"738 783 OFFCURVE",
"702 784 CURVE SMOOTH",
"620 785 OFFCURVE",
"538 786 OFFCURVE",
"457 787 CURVE SMOOTH",
"426 787 OFFCURVE",
"409 801 OFFCURVE",
"404 834 CURVE SMOOTH",
"403 843 OFFCURVE",
"391 859 OFFCURVE",
"379 859 CURVE SMOOTH",
"367 858 OFFCURVE",
"352 853 OFFCURVE",
"354 814 CURVE SMOOTH",
"355 786 OFFCURVE",
"337 777 OFFCURVE",
"312 777 CURVE SMOOTH",
"192 777 LINE"
);
},
{
closed = 1;
nodes = (
"167 797 OFFCURVE",
"230 798 OFFCURVE",
"293 797 CURVE SMOOTH",
"317 797 OFFCURVE",
"334 802 OFFCURVE",
"335 832 CURVE SMOOTH",
"336 857 OFFCURVE",
"355 870 OFFCURVE",
"378 873 CURVE SMOOTH",
"403 875 OFFCURVE",
"422 863 OFFCURVE",
"426 840 CURVE SMOOTH",
"433 808 OFFCURVE",
"452 804 OFFCURVE",
"479 804 CURVE SMOOTH",
"585 805 OFFCURVE",
"690 804 OFFCURVE",
"796 804 CURVE SMOOTH",
"841 804 OFFCURVE",
"860 792 OFFCURVE",
"864 765 CURVE SMOOTH",
"868 737 OFFCURVE",
"848 710 OFFCURVE",
"812 698 CURVE SMOOTH",
"792 691 OFFCURVE",
"788 680 OFFCURVE",
"789 661 CURVE SMOOTH",
"789 608 OFFCURVE",
"790 555 OFFCURVE",
"784 503 CURVE SMOOTH",
"777 452 OFFCURVE",
"743 419 OFFCURVE",
"694 400 CURVE SMOOTH",
"620 371 OFFCURVE",
"547 374 OFFCURVE",
"472 398 CURVE SMOOTH",
"403 421 OFFCURVE",
"350 491 OFFCURVE",
"345 569 CURVE SMOOTH",
"344 596 OFFCURVE",
"345 624 OFFCURVE",
"343 651 CURVE SMOOTH",
"341 687 OFFCURVE",
"332 696 OFFCURVE",
"296 696 CURVE SMOOTH",
"224 695 OFFCURVE",
"150 694 OFFCURVE",
"78 693 CURVE SMOOTH",
"40 693 OFFCURVE",
"15 710 OFFCURVE",
"14 740 CURVE SMOOTH",
"13 774 OFFCURVE",
"38 796 OFFCURVE",
"78 797 CURVE SMOOTH",
"104 797 LINE SMOOTH"
);
}
);
vertWidth = 530;
width = 1000;
}
);
note = cid08768;
},
{
glyphname = Q.rotat;
lastChange = "2020-11-05 18:12:30 +0000";
layers = (
{
layerId = "E24ABCAD-EB1C-406E-B20D-44C7493A2261";
paths = (
{
closed = 1;
nodes = (
"178 524 OFFCURVE",
"193 522 OFFCURVE",
"201 532 CURVE SMOOTH",
"220 556 OFFCURVE",
"250 592 OFFCURVE",
"265 607 CURVE SMOOTH",
"285 628 OFFCURVE",
"306 628 OFFCURVE",
"329 611 CURVE SMOOTH",
"352 594 OFFCURVE",
"349 574 OFFCURVE",
"337 553 CURVE SMOOTH",
"319 522 OFFCURVE",
"299 493 OFFCURVE",
"280 463 CURVE SMOOTH",
"276 457 OFFCURVE",
"273 450 OFFCURVE",
"268 441 CURVE",
"392 399 OFFCURVE",
"512 391 OFFCURVE",
"630 440 CURVE SMOOTH",
"696 467 OFFCURVE",
"722 514 OFFCURVE",
"720 591 CURVE SMOOTH",
"720 653 OFFCURVE",
"686 701 OFFCURVE",
"624 723 CURVE SMOOTH",
"502 765 OFFCURVE",
"378 756 OFFCURVE",
"257 718 CURVE SMOOTH",
"180 695 OFFCURVE",
"145 614 OFFCURVE",
"173 536 CURVE SMOOTH"
);
},
{
closed = 1;
nodes = (
"401 380 OFFCURVE",
"347 392 OFFCURVE",
"294 406 CURVE SMOOTH",
"235 423 OFFCURVE",
"230 442 OFFCURVE",
"266 493 CURVE SMOOTH",
"280 514 OFFCURVE",
"296 534 OFFCURVE",
"307 557 CURVE",
"312 565 OFFCURVE",
"317 580 OFFCURVE",
"308 587 CURVE SMOOTH",
"300 594 OFFCURVE",
"282 589 OFFCURVE",
"276 583 CURVE SMOOTH",
"251 559 OFFCURVE",
"230 533 OFFCURVE",
"207 510 CURVE SMOOTH",
"197 501 OFFCURVE",
"192 489 OFFCURVE",
"170 493 CURVE SMOOTH",
"160 496 OFFCURVE",
"153 515 OFFCURVE",
"149 528 CURVE SMOOTH",
"145 540 OFFCURVE",
"145 554 OFFCURVE",
"143 567 CURVE SMOOTH",
"130 679 OFFCURVE",
"204 745 OFFCURVE",
"306 758 CURVE SMOOTH",
"385 769 OFFCURVE",
"465 772 OFFCURVE",
"543 769 CURVE SMOOTH",
"586 767 OFFCURVE",
"631 748 OFFCURVE",
"671 728 CURVE SMOOTH",
"723 701 OFFCURVE",
"755 655 OFFCURVE",
"754 594 CURVE SMOOTH",
"753 525 OFFCURVE",
"734 462 OFFCURVE",
"666 429 CURVE SMOOTH",
"601 395 OFFCURVE",
"530 372 OFFCURVE",
"441 377 CURVE SMOOTH"
);
},
{
closed = 1;
nodes = (
"405 829 OFFCURVE",
"338 826 OFFCURVE",
"272 813 CURVE SMOOTH",
"100 778 OFFCURVE",
"31 583 OFFCURVE",
"126 466 CURVE SMOOTH",
"142 445 OFFCURVE",
"137 425 OFFCURVE",
"121 405 CURVE SMOOTH",
"100 380 OFFCURVE",
"79 355 OFFCURVE",
"60 327 CURVE SMOOTH",
"54 318 OFFCURVE",
"47 298 OFFCURVE",
"56 289 CURVE SMOOTH",
"65 280 OFFCURVE",
"86 287 OFFCURVE",
"94 294 CURVE SMOOTH",
"115 309 OFFCURVE",
"131 329 OFFCURVE",
"149 348 CURVE SMOOTH",
"190 389 OFFCURVE",
"199 390 OFFCURVE",
"253 365 CURVE SMOOTH",
"281 351 OFFCURVE",
"311 338 OFFCURVE",
"341 332 CURVE SMOOTH",
"445 312 OFFCURVE",
"547 327 OFFCURVE",
"646 362 CURVE SMOOTH",
"774 408 OFFCURVE",
"819 495 OFFCURVE",
"806 620 CURVE SMOOTH",
"798 696 OFFCURVE",
"763 765 OFFCURVE",
"684 798 CURVE SMOOTH",
"615 826 OFFCURVE",
"544 835 OFFCURVE",
"471 837 CURVE"
);
},
{
closed = 1;
nodes = (
"510 856 OFFCURVE",
"567 852 OFFCURVE",
"622 841 CURVE SMOOTH",
"798 805 OFFCURVE",
"904 585 OFFCURVE",
"783 429 CURVE SMOOTH",
"745 380 OFFCURVE",
"689 352 OFFCURVE",
"630 332 CURVE SMOOTH",
"543 303 OFFCURVE",
"454 287 OFFCURVE",
"362 305 CURVE SMOOTH",
"321 313 OFFCURVE",
"280 329 OFFCURVE",
"241 345 CURVE SMOOTH",
"216 355 OFFCURVE",
"196 356 OFFCURVE",
"176 336 CURVE SMOOTH",
"154 314 OFFCURVE",
"130 293 OFFCURVE",
"108 271 CURVE SMOOTH",
"88 253 OFFCURVE",
"68 247 OFFCURVE",
"46 269 CURVE SMOOTH",
"16 295 OFFCURVE",
"10 310 OFFCURVE",
"31 338 CURVE SMOOTH",
"50 364 OFFCURVE",
"73 386 OFFCURVE",
"95 410 CURVE SMOOTH",
"110 425 OFFCURVE",
"113 438 OFFCURVE",
"101 457 CURVE SMOOTH",
"-6 634 OFFCURVE",
"109 829 OFFCURVE",
"300 846 CURVE SMOOTH",
"351 851 OFFCURVE",
"403 858 OFFCURVE",
"466 857 CURVE SMOOTH"
);
}
);
vertWidth = 636;
width = 1000;
}
);
note = cid08769;
},
{
glyphname = R.rotat;
lastChange = "2020-11-05 18:12:30 +0000";
layers = (
{
layerId = "E24ABCAD-EB1C-406E-B20D-44C7493A2261";
paths = (
{
closed = 1;
nodes = (
"484 739 OFFCURVE",
"473 730 OFFCURVE",
"472 709 CURVE SMOOTH",
"472 669 OFFCURVE",
"470 627 OFFCURVE",
"473 587 CURVE SMOOTH",
"476 537 OFFCURVE",
"506 511 OFFCURVE",
"556 509 CURVE SMOOTH",
"574 508 OFFCURVE",
"591 508 OFFCURVE",
"610 508 CURVE SMOOTH",
"658 509 OFFCURVE",
"683 526 OFFCURVE",
"689 573 CURVE SMOOTH",
"694 620 OFFCURVE",
"691 668 OFFCURVE",
"689 715 CURVE SMOOTH",
"689 721 OFFCURVE",
"674 732 OFFCURVE",
"666 733 CURVE SMOOTH",
"634 737 OFFCURVE",
"526 738 OFFCURVE",
"505 739 CURVE SMOOTH"
);
},
{
closed = 1;
nodes = (
"700 757 OFFCURVE",
"714 741 OFFCURVE",
"714 717 CURVE SMOOTH",
"713 668 OFFCURVE",
"713 618 OFFCURVE",
"709 570 CURVE SMOOTH",
"704 526 OFFCURVE",
"676 500 OFFCURVE",
"633 489 CURVE SMOOTH",
"590 479 OFFCURVE",
"548 483 OFFCURVE",
"508 498 CURVE SMOOTH",
"480 508 OFFCURVE",
"459 528 OFFCURVE",
"457 557 CURVE SMOOTH",
"455 618 OFFCURVE",
"457 678 OFFCURVE",
"457 738 CURVE SMOOTH",
"457 758 OFFCURVE",
"469 763 OFFCURVE",
"487 762 CURVE SMOOTH",
"566 762 LINE",
"566 763 OFFCURVE",
"637 761 OFFCURVE",
"673 759 CURVE SMOOTH"
);
},
{
closed = 1;
nodes = (
"317 758 OFFCURVE",
"340 760 OFFCURVE",
"360 757 CURVE SMOOTH",
"371 755 OFFCURVE",
"385 747 OFFCURVE",
"388 739 CURVE SMOOTH",
"390 732 OFFCURVE",
"381 717 OFFCURVE",
"372 711 CURVE SMOOTH",
"268 634 OFFCURVE",
"44 472 OFFCURVE",
"41 454 CURVE SMOOTH",
"38 440 OFFCURVE",
"43 432 OFFCURVE",
"50 420 CURVE SMOOTH",
"59 402 OFFCURVE",
"72 413 OFFCURVE",
"83 420 CURVE SMOOTH",
"109 439 OFFCURVE",
"135 459 OFFCURVE",
"161 479 CURVE SMOOTH",
"232 535 OFFCURVE",
"302 591 OFFCURVE",
"372 645 CURVE SMOOTH",
"391 660 OFFCURVE",
"402 654 OFFCURVE",
"403 630 CURVE SMOOTH",
"405 611 OFFCURVE",
"403 592 OFFCURVE",
"403 573 CURVE SMOOTH",
"406 510 OFFCURVE",
"439 464 OFFCURVE",
"501 446 CURVE SMOOTH",
"528 438 OFFCURVE",
"557 433 OFFCURVE",
"586 430 CURVE SMOOTH",
"661 425 OFFCURVE",
"738 475 OFFCURVE",
"749 544 CURVE SMOOTH",
"759 599 OFFCURVE",
"759 656 OFFCURVE",
"760 712 CURVE SMOOTH",
"761 741 OFFCURVE",
"757 761 OFFCURVE",
"795 769 CURVE SMOOTH",
"816 772 OFFCURVE",
"822 791 OFFCURVE",
"807 807 CURVE",
"797 815 OFFCURVE",
"781 823 OFFCURVE",
"768 824 CURVE SMOOTH",
"735 826 OFFCURVE",
"701 825 OFFCURVE",
"669 824 CURVE SMOOTH",
"563 823 OFFCURVE",
"457 821 OFFCURVE",
"352 819 CURVE SMOOTH",
"277 818 OFFCURVE",
"201 818 OFFCURVE",
"126 816 CURVE SMOOTH",
"106 816 OFFCURVE",
"82 814 OFFCURVE",
"61 807 CURVE SMOOTH",
"52 804 OFFCURVE",
"41 789 OFFCURVE",
"41 780 CURVE SMOOTH",
"41 772 OFFCURVE",
"54 760 OFFCURVE",
"63 757 CURVE SMOOTH",
"83 751 OFFCURVE",
"105 748 OFFCURVE",
"124 749 CURVE SMOOTH",
"180 751 OFFCURVE",
"295 758 OFFCURVE",
"295 758 CURVE"
);
},
{
closed = 1;
nodes = (
"346 603 OFFCURVE",
"317 582 OFFCURVE",
"288 559 CURVE SMOOTH",
"223 509 OFFCURVE",
"160 457 OFFCURVE",
"97 407 CURVE SMOOTH",
"82 395 OFFCURVE",
"65 381 OFFCURVE",
"46 397 CURVE SMOOTH",
"26 414 OFFCURVE",
"16 444 OFFCURVE",
"28 468 CURVE SMOOTH",
"37 485 OFFCURVE",
"53 495 OFFCURVE",
"70 507 CURVE SMOOTH",
"159 578 OFFCURVE",
"250 647 OFFCURVE",
"342 717 CURVE SMOOTH",
"346 720 OFFCURVE",
"352 727 OFFCURVE",
"350 730 CURVE",
"316 730 OFFCURVE",
"282 731 OFFCURVE",
"248 730 CURVE SMOOTH",
"195 729 OFFCURVE",
"142 727 OFFCURVE",
"91 727 CURVE SMOOTH",
"77 727 OFFCURVE",
"60 733 OFFCURVE",
"49 742 CURVE SMOOTH",
"37 752 OFFCURVE",
"24 769 OFFCURVE",
"25 781 CURVE SMOOTH",
"26 795 OFFCURVE",
"41 816 OFFCURVE",
"53 820 CURVE SMOOTH",
"86 830 OFFCURVE",
"120 834 OFFCURVE",
"154 836 CURVE SMOOTH",
"199 839 OFFCURVE",
"244 836 OFFCURVE",
"289 837 CURVE SMOOTH",
"413 839 OFFCURVE",
"538 842 OFFCURVE",
"663 843 CURVE SMOOTH",
"701 843 OFFCURVE",
"740 844 OFFCURVE",
"778 843 CURVE SMOOTH",
"806 841 OFFCURVE",
"822 823 OFFCURVE",
"827 796 CURVE SMOOTH",
"833 770 OFFCURVE",
"817 759 OFFCURVE",
"798 746 CURVE SMOOTH",
"790 741 OFFCURVE",
"784 727 OFFCURVE",
"784 717 CURVE SMOOTH",
"782 675 OFFCURVE",
"781 634 OFFCURVE",
"783 592 CURVE SMOOTH",
"790 490 OFFCURVE",
"680 392 OFFCURVE",
"577 411 CURVE SMOOTH",
"542 418 OFFCURVE",
"506 426 OFFCURVE",
"473 438 CURVE SMOOTH",
"421 458 OFFCURVE",
"393 499 OFFCURVE",
"389 555 CURVE SMOOTH",
"388 577 OFFCURVE",
"385 598 OFFCURVE",
"382 630 CURVE"
);
}
);
vertWidth = 525;
width = 1000;
}
);
note = cid08770;
},
{
glyphname = S.rotat;
lastChange = "2020-11-05 18:12:30 +0000";
layers = (
{
layerId = "E24ABCAD-EB1C-406E-B20D-44C7493A2261";
paths = (
{
closed = 1;
nodes = (
"47 568 OFFCURVE",
"47 563 OFFCURVE",
"47 558 CURVE SMOOTH",
"52 479 OFFCURVE",
"72 415 OFFCURVE",
"147 379 CURVE SMOOTH",
"209 350 OFFCURVE",
"301 365 OFFCURVE",
"358 427 CURVE SMOOTH",
"390 462 OFFCURVE",
"413 500 OFFCURVE",
"430 545 CURVE SMOOTH",
"457 614 OFFCURVE",
"496 676 OFFCURVE",
"554 724 CURVE SMOOTH",
"619 777 OFFCURVE",
"703 742 OFFCURVE",
"733 669 CURVE SMOOTH",
"787 541 OFFCURVE",
"704 473 OFFCURVE",
"669 451 CURVE SMOOTH",
"653 441 OFFCURVE",
"636 432 OFFCURVE",
"622 420 CURVE SMOOTH",
"616 416 OFFCURVE",
"613 403 OFFCURVE",
"615 398 CURVE SMOOTH",
"619 391 OFFCURVE",
"629 383 OFFCURVE",
"637 383 CURVE SMOOTH",
"646 382 OFFCURVE",
"657 387 OFFCURVE",
"666 390 CURVE SMOOTH",
"790 422 OFFCURVE",
"837 621 OFFCURVE",
"776 724 CURVE SMOOTH",
"738 788 OFFCURVE",
"655 829 OFFCURVE",
"578 803 CURVE SMOOTH",
"505 779 OFFCURVE",
"461 724 OFFCURVE",
"423 662 CURVE SMOOTH",
"391 611 OFFCURVE",
"365 556 OFFCURVE",
"336 503 CURVE SMOOTH",
"307 448 OFFCURVE",
"258 428 OFFCURVE",
"198 431 CURVE SMOOTH",
"156 434 OFFCURVE",
"115 467 OFFCURVE",
"111 508 CURVE SMOOTH",
"103 603 OFFCURVE",
"120 689 OFFCURVE",
"202 752 CURVE SMOOTH",
"215 761 OFFCURVE",
"227 772 OFFCURVE",
"237 784 CURVE",
"243 789 OFFCURVE",
"251 804 OFFCURVE",
"249 813 CURVE",
"245 819 OFFCURVE",
"235 829 OFFCURVE",
"215 829 CURVE SMOOTH",
"193 829 OFFCURVE",
"176 821 OFFCURVE",
"158 810 CURVE SMOOTH",
"74 757 OFFCURVE",
"55 662 OFFCURVE",
"47 573 CURVE SMOOTH"
);
},
{
closed = 1;
nodes = (
"827 552 OFFCURVE",
"812 501 OFFCURVE",
"782 451 CURVE SMOOTH",
"754 406 OFFCURVE",
"708 378 OFFCURVE",
"662 360 CURVE SMOOTH",
"639 351 OFFCURVE",
"609 356 OFFCURVE",
"596 381 CURVE SMOOTH",
"583 404 OFFCURVE",
"589 430 OFFCURVE",
"616 444 CURVE SMOOTH",
"688 482 OFFCURVE",
"732 513 OFFCURVE",
"725 617 CURVE SMOOTH",
"722 663 OFFCURVE",
"676 717 OFFCURVE",
"629 725 CURVE SMOOTH",
"617 728 OFFCURVE",
"602 724 OFFCURVE",
"589 718 CURVE SMOOTH",
"539 695 OFFCURVE",
"507 652 OFFCURVE",
"482 603 CURVE SMOOTH",
"462 563 OFFCURVE",
"445 522 OFFCURVE",
"425 482 CURVE SMOOTH",
"381 400 OFFCURVE",
"317 346 OFFCURVE",
"219 342 CURVE SMOOTH",
"127 338 OFFCURVE",
"38 421 OFFCURVE",
"30 514 CURVE SMOOTH",
"21 607 OFFCURVE",
"24 688 OFFCURVE",
"72 760 CURVE SMOOTH",
"89 786 OFFCURVE",
"175 884 OFFCURVE",
"248 848 CURVE SMOOTH",
"280 831 OFFCURVE",
"289 801 OFFCURVE",
"263 778 CURVE SMOOTH",
"242 759 OFFCURVE",
"210 734 OFFCURVE",
"191 714 CURVE SMOOTH",
"137 660 OFFCURVE",
"130 591 OFFCURVE",
"136 520 CURVE SMOOTH",
"139 490 OFFCURVE",
"163 468 OFFCURVE",
"193 464 CURVE SMOOTH",
"248 454 OFFCURVE",
"291 479 OFFCURVE",
"318 528 CURVE SMOOTH",
"356 595 OFFCURVE",
"393 663 OFFCURVE",
"436 727 CURVE SMOOTH",
"479 791 OFFCURVE",
"554 825 OFFCURVE",
"629 834 CURVE SMOOTH",
"694 841 OFFCURVE",
"741 811 OFFCURVE",
"779 764 CURVE SMOOTH",
"812 723 OFFCURVE",
"834 674 OFFCURVE",
"830 595 CURVE SMOOTH"
);
}
);
vertWidth = 563;
width = 1000;
}
);
note = cid08771;
},
{
glyphname = T.rotat;
lastChange = "2020-11-05 18:12:30 +0000";
layers = (
{
layerId = "E24ABCAD-EB1C-406E-B20D-44C7493A2261";
paths = (
{
closed = 1;
nodes = (
"52 595 OFFCURVE",
"47 592 OFFCURVE",
"41 589 CURVE SMOOTH",
"23 577 OFFCURVE",
"21 551 OFFCURVE",
"36 535 CURVE",
"38 532 OFFCURVE",
"41 529 OFFCURVE",
"44 527 CURVE SMOOTH",
"51 522 OFFCURVE",
"65 522 OFFCURVE",
"75 521 CURVE SMOOTH",
"167 516 OFFCURVE",
"262 512 OFFCURVE",
"355 507 CURVE SMOOTH",
"457 503 OFFCURVE",
"558 498 OFFCURVE",
"659 494 CURVE SMOOTH",
"686 493 OFFCURVE",
"697 479 OFFCURVE",
"696 451 CURVE SMOOTH",
"696 399 OFFCURVE",
"709 269 OFFCURVE",
"715 257 CURVE SMOOTH",
"728 233 OFFCURVE",
"756 227 OFFCURVE",
"769 251 CURVE SMOOTH",
"779 269 OFFCURVE",
"783 294 OFFCURVE",
"783 314 CURVE SMOOTH",
"782 394 OFFCURVE",
"777 472 OFFCURVE",
"780 555 CURVE SMOOTH",
"783 634 OFFCURVE",
"771 713 OFFCURVE",
"766 793 CURVE SMOOTH",
"765 814 OFFCURVE",
"760 831 OFFCURVE",
"733 834 CURVE SMOOTH",
"707 836 OFFCURVE",
"688 819 OFFCURVE",
"687 799 CURVE SMOOTH",
"685 750 OFFCURVE",
"682 700 OFFCURVE",
"685 652 CURVE SMOOTH",
"692 576 OFFCURVE",
"689 561 OFFCURVE",
"614 565 CURVE SMOOTH",
"605 565 OFFCURVE",
"596 566 OFFCURVE",
"588 567 CURVE SMOOTH",
"449 578 OFFCURVE",
"95 602 OFFCURVE",
"55 596 CURVE"
);
},
{
closed = 1;
nodes = (
"799 231 OFFCURVE",
"778 216 OFFCURVE",
"763 211 CURVE SMOOTH",
"742 204 OFFCURVE",
"705 219 OFFCURVE",
"694 242 CURVE SMOOTH",
"690 251 OFFCURVE",
"686 261 OFFCURVE",
"685 270 CURVE SMOOTH",
"680 319 OFFCURVE",
"674 368 OFFCURVE",
"672 416 CURVE SMOOTH",
"669 461 OFFCURVE",
"678 464 OFFCURVE",
"633 466 CURVE SMOOTH",
"483 472 OFFCURVE",
"334 479 OFFCURVE",
"184 486 CURVE SMOOTH",
"142 488 OFFCURVE",
"94 487 OFFCURVE",
"52 494 CURVE SMOOTH",
"14 500 OFFCURVE",
"0 526 OFFCURVE",
"-1 557 CURVE SMOOTH",
"-3 587 OFFCURVE",
"20 617 OFFCURVE",
"59 621 CURVE SMOOTH",
"110 627 OFFCURVE",
"157 619 OFFCURVE",
"210 617 CURVE SMOOTH",
"284 614 OFFCURVE",
"359 609 OFFCURVE",
"433 605 CURVE SMOOTH",
"494 603 OFFCURVE",
"555 601 OFFCURVE",
"616 599 CURVE SMOOTH",
"666 598 OFFCURVE",
"664 605 OFFCURVE",
"664 655 CURVE SMOOTH",
"664 699 OFFCURVE",
"662 744 OFFCURVE",
"664 788 CURVE SMOOTH",
"665 805 OFFCURVE",
"670 831 OFFCURVE",
"681 842 CURVE SMOOTH",
"694 855 OFFCURVE",
"721 858 OFFCURVE",
"738 856 CURVE SMOOTH",
"753 853 OFFCURVE",
"774 849 OFFCURVE",
"787 817 CURVE",
"796 778 OFFCURVE",
"801 737 OFFCURVE",
"801 696 CURVE SMOOTH",
"803 607 OFFCURVE",
"809 312 OFFCURVE",
"802 255 CURVE SMOOTH"
);
}
);
vertWidth = 695;
width = 1000;
}
);
note = cid08772;
},
{
glyphname = U.rotat;
lastChange = "2020-11-05 18:12:30 +0000";
layers = (
{
layerId = "E24ABCAD-EB1C-406E-B20D-44C7493A2261";
paths = (
{
closed = 1;
nodes = (
"334 346 LINE SMOOTH",
"216 348 OFFCURVE",
"147 407 OFFCURVE",
"120 513 CURVE SMOOTH",
"103 583 OFFCURVE",
"137 662 OFFCURVE",
"177 690 CURVE SMOOTH",
"226 725 OFFCURVE",
"283 740 OFFCURVE",
"342 739 CURVE SMOOTH",
"427 737 OFFCURVE",
"512 728 OFFCURVE",
"596 722 CURVE SMOOTH",
"651 717 OFFCURVE",
"706 708 OFFCURVE",
"760 707 CURVE SMOOTH",
"799 707 OFFCURVE",
"813 734 OFFCURVE",
"792 767 CURVE SMOOTH",
"782 782 OFFCURVE",
"760 794 OFFCURVE",
"742 797 CURVE SMOOTH",
"708 802 OFFCURVE",
"673 798 OFFCURVE",
"638 800 CURVE SMOOTH",
"533 806 OFFCURVE",
"430 812 OFFCURVE",
"325 817 CURVE SMOOTH",
"257 821 OFFCURVE",
"178 823 OFFCURVE",
"108 744 CURVE SMOOTH",
"47 675 OFFCURVE",
"26 584 OFFCURVE",
"49 488 CURVE SMOOTH",
"71 401 OFFCURVE",
"110 331 OFFCURVE",
"199 297 CURVE SMOOTH",
"341 244 OFFCURVE",
"519 262 OFFCURVE",
"585 262 CURVE SMOOTH",
"628 262 OFFCURVE",
"702 269 OFFCURVE",
"745 267 CURVE SMOOTH",
"774 267 OFFCURVE",
"804 289 OFFCURVE",
"806 314 CURVE SMOOTH",
"808 339 OFFCURVE",
"789 352 OFFCURVE",
"751 353 CURVE SMOOTH",
"719 354 OFFCURVE",
"686 358 OFFCURVE",
"654 357 CURVE SMOOTH",
"585 353 OFFCURVE",
"449 345 OFFCURVE",
"449 346 CURVE"
);
},
{
closed = 1;
nodes = (
"793 394 OFFCURVE",
"822 367 OFFCURVE",
"831 336 CURVE SMOOTH",
"839 304 OFFCURVE",
"832 268 OFFCURVE",
"798 252 CURVE SMOOTH",
"779 243 OFFCURVE",
"757 237 OFFCURVE",
"736 237 CURVE SMOOTH",
"609 235 OFFCURVE",
"475 231 OFFCURVE",
"348 232 CURVE SMOOTH",
"283 233 OFFCURVE",
"201 250 OFFCURVE",
"145 285 CURVE SMOOTH",
"49 345 OFFCURVE",
"24 448 OFFCURVE",
"20 556 CURVE SMOOTH",
"16 716 OFFCURVE",
"108 831 OFFCURVE",
"265 841 CURVE SMOOTH",
"342 845 OFFCURVE",
"419 842 OFFCURVE",
"496 839 CURVE SMOOTH",
"576 836 OFFCURVE",
"656 831 OFFCURVE",
"736 827 CURVE SMOOTH",
"770 825 OFFCURVE",
"800 816 OFFCURVE",
"818 784 CURVE SMOOTH",
"843 740 OFFCURVE",
"832 680 OFFCURVE",
"783 674 CURVE SMOOTH",
"739 671 OFFCURVE",
"695 676 OFFCURVE",
"652 682 CURVE SMOOTH",
"531 695 OFFCURVE",
"401 721 OFFCURVE",
"279 701 CURVE SMOOTH",
"215 691 OFFCURVE",
"161 663 OFFCURVE",
"141 591 CURVE SMOOTH",
"123 529 OFFCURVE",
"164 437 OFFCURVE",
"220 407 CURVE SMOOTH",
"334 346 OFFCURVE",
"659 394 OFFCURVE",
"750 394 CURVE SMOOTH"
);
}
);
vertWidth = 684;
width = 1000;
}
);
note = cid08773;
},
{
glyphname = V.rotat;
lastChange = "2020-11-05 18:12:30 +0000";
layers = (
{
layerId = "E24ABCAD-EB1C-406E-B20D-44C7493A2261";
paths = (
{
closed = 1;
nodes = (
"591 797 OFFCURVE",
"458 729 OFFCURVE",
"317 680 CURVE SMOOTH",
"230 651 OFFCURVE",
"150 603 OFFCURVE",
"70 562 CURVE SMOOTH",
"38 546 OFFCURVE",
"34 515 OFFCURVE",
"62 493 CURVE SMOOTH",
"75 481 OFFCURVE",
"92 473 OFFCURVE",
"108 464 CURVE SMOOTH",
"179 423 OFFCURVE",
"254 384 OFFCURVE",
"324 338 CURVE SMOOTH",
"434 265 OFFCURVE",
"553 211 OFFCURVE",
"673 158 CURVE SMOOTH",
"686 153 OFFCURVE",
"703 147 OFFCURVE",
"715 151 CURVE SMOOTH",
"724 153 OFFCURVE",
"732 158 OFFCURVE",
"739 163 CURVE SMOOTH",
"753 172 OFFCURVE",
"756 190 OFFCURVE",
"745 203 CURVE SMOOTH",
"741 208 OFFCURVE",
"736 213 OFFCURVE",
"731 216 CURVE SMOOTH",
"676 245 OFFCURVE",
"617 269 OFFCURVE",
"562 297 CURVE SMOOTH",
"468 345 OFFCURVE",
"373 396 OFFCURVE",
"280 446 CURVE SMOOTH",
"262 456 OFFCURVE",
"243 469 OFFCURVE",
"229 484 CURVE SMOOTH",
"206 510 OFFCURVE",
"212 533 OFFCURVE",
"243 549 CURVE SMOOTH",
"255 556 OFFCURVE",
"269 561 OFFCURVE",
"282 569 CURVE",
"398 626 OFFCURVE",
"515 678 OFFCURVE",
"640 712 CURVE SMOOTH",
"682 722 OFFCURVE",
"723 736 OFFCURVE",
"764 751 CURVE",
"774 756 OFFCURVE",
"785 776 OFFCURVE",
"782 785 CURVE SMOOTH",
"779 795 OFFCURVE",
"765 813 OFFCURVE",
"751 813 CURVE"
);
},
{
closed = 1;
nodes = (
"260 528 OFFCURVE",
"258 499 OFFCURVE",
"276 487 CURVE SMOOTH",
"288 478 OFFCURVE",
"300 470 OFFCURVE",
"312 463 CURVE SMOOTH",
"389 419 OFFCURVE",
"597 312 OFFCURVE",
"623 299 CURVE SMOOTH",
"669 278 OFFCURVE",
"714 256 OFFCURVE",
"756 231 CURVE SMOOTH",
"776 219 OFFCURVE",
"795 200 OFFCURVE",
"783 173 CURVE SMOOTH",
"769 144 OFFCURVE",
"742 122 OFFCURVE",
"709 123 CURVE SMOOTH",
"701 123 OFFCURVE",
"691 126 OFFCURVE",
"683 128 CURVE",
"572 170 OFFCURVE",
"186 381 OFFCURVE",
"100 435 CURVE SMOOTH",
"80 447 OFFCURVE",
"59 460 OFFCURVE",
"43 476 CURVE SMOOTH",
"8 512 OFFCURVE",
"15 578 OFFCURVE",
"60 599 CURVE SMOOTH",
"206 668 OFFCURVE",
"353 738 OFFCURVE",
"511 786 CURVE SMOOTH",
"571 805 OFFCURVE",
"707 847 OFFCURVE",
"730 849 CURVE SMOOTH",
"778 855 OFFCURVE",
"799 827 OFFCURVE",
"806 788 CURVE SMOOTH",
"813 752 OFFCURVE",
"796 731 OFFCURVE",
"753 716 CURVE SMOOTH",
"678 693 OFFCURVE",
"601 671 OFFCURVE",
"526 642 CURVE SMOOTH",
"444 610 OFFCURVE",
"363 572 OFFCURVE",
"281 535 CURVE",
"281 535 OFFCURVE",
"280 535 OFFCURVE",
"280 535 CURVE"
);
}
);
vertWidth = 786;
width = 1000;
}
);
note = cid08774;
},
{
glyphname = W.rotat;
lastChange = "2020-11-05 18:12:30 +0000";
layers = (
{
layerId = "E24ABCAD-EB1C-406E-B20D-44C7493A2261";
paths = (
{
closed = 1;
nodes = (
"715 739 LINE",
"732 739 LINE SMOOTH",
"758 738 OFFCURVE",
"777 747 OFFCURVE",
"779 775 CURVE SMOOTH",
"780 800 OFFCURVE",
"766 818 OFFCURVE",
"739 819 CURVE SMOOTH",
"717 820 OFFCURVE",
"695 819 OFFCURVE",
"673 816 CURVE SMOOTH",
"604 804 OFFCURVE",
"535 791 OFFCURVE",
"466 777 CURVE SMOOTH",
"346 755 OFFCURVE",
"228 734 OFFCURVE",
"110 711 CURVE SMOOTH",
"80 706 OFFCURVE",
"64 685 OFFCURVE",
"57 657 CURVE SMOOTH",
"51 629 OFFCURVE",
"59 605 OFFCURVE",
"82 589 CURVE SMOOTH",
"103 575 OFFCURVE",
"123 560 OFFCURVE",
"147 553 CURVE SMOOTH",
"227 530 OFFCURVE",
"307 512 OFFCURVE",
"386 491 CURVE SMOOTH",
"399 487 OFFCURVE",
"420 479 OFFCURVE",
"420 464 CURVE SMOOTH",
"420 451 OFFCURVE",
"400 445 OFFCURVE",
"389 440 CURVE",
"299 409 OFFCURVE",
"207 379 OFFCURVE",
"117 349 CURVE SMOOTH",
"84 338 OFFCURVE",
"59 311 OFFCURVE",
"59 278 CURVE SMOOTH",
"60 257 OFFCURVE",
"82 233 OFFCURVE",
"99 215 CURVE SMOOTH",
"111 203 OFFCURVE",
"130 201 OFFCURVE",
"147 197 CURVE SMOOTH",
"300 169 OFFCURVE",
"452 140 OFFCURVE",
"604 112 CURVE SMOOTH",
"640 106 OFFCURVE",
"677 100 OFFCURVE",
"714 98 CURVE SMOOTH",
"740 95 OFFCURVE",
"751 112 OFFCURVE",
"754 136 CURVE SMOOTH",
"756 160 OFFCURVE",
"750 179 OFFCURVE",
"723 183 CURVE SMOOTH",
"691 187 OFFCURVE",
"660 190 OFFCURVE",
"630 195 CURVE SMOOTH",
"492 216 OFFCURVE",
"354 237 OFFCURVE",
"218 260 CURVE SMOOTH",
"203 263 OFFCURVE",
"179 272 OFFCURVE",
"179 287 CURVE SMOOTH",
"179 302 OFFCURVE",
"201 309 OFFCURVE",
"215 313 CURVE SMOOTH",
"280 333 OFFCURVE",
"345 352 OFFCURVE",
"410 372 CURVE SMOOTH",
"445 382 OFFCURVE",
"482 390 OFFCURVE",
"516 403 CURVE SMOOTH",
"566 422 OFFCURVE",
"575 465 OFFCURVE",
"537 503 CURVE SMOOTH",
"528 512 OFFCURVE",
"516 520 OFFCURVE",
"503 523 CURVE SMOOTH",
"414 550 OFFCURVE",
"323 576 OFFCURVE",
"234 604 CURVE SMOOTH",
"217 610 OFFCURVE",
"185 615 OFFCURVE",
"185 634 CURVE SMOOTH",
"186 652 OFFCURVE",
"216 656 OFFCURVE",
"232 659 CURVE SMOOTH",
"385 687 OFFCURVE",
"539 712 OFFCURVE",
"692 738 CURVE SMOOTH",
"700 740 OFFCURVE",
"708 738 OFFCURVE",
"715 738 CURVE"
);
},
{
closed = 1;
nodes = (
"282 478 OFFCURVE",
"226 492 OFFCURVE",
"172 512 CURVE SMOOTH",
"132 527 OFFCURVE",
"93 548 OFFCURVE",
"61 575 CURVE SMOOTH",
"12 616 OFFCURVE",
"25 707 OFFCURVE",
"84 729 CURVE SMOOTH",
"138 751 OFFCURVE",
"199 761 OFFCURVE",
"257 772 CURVE SMOOTH",
"389 796 OFFCURVE",
"521 818 OFFCURVE",
"653 840 CURVE SMOOTH",
"682 845 OFFCURVE",
"713 845 OFFCURVE",
"742 841 CURVE SMOOTH",
"782 835 OFFCURVE",
"799 810 OFFCURVE",
"798 773 CURVE SMOOTH",
"796 737 OFFCURVE",
"776 713 OFFCURVE",
"735 707 CURVE SMOOTH",
"662 696 OFFCURVE",
"589 686 OFFCURVE",
"516 677 CURVE SMOOTH",
"429 665 OFFCURVE",
"342 656 OFFCURVE",
"255 644 CURVE SMOOTH",
"246 643 OFFCURVE",
"238 640 OFFCURVE",
"229 631 CURVE",
"240 627 OFFCURVE",
"251 621 OFFCURVE",
"262 619 CURVE SMOOTH",
"336 599 OFFCURVE",
"410 578 OFFCURVE",
"485 559 CURVE SMOOTH",
"524 549 OFFCURVE",
"550 527 OFFCURVE",
"570 494 CURVE SMOOTH",
"597 449 OFFCURVE",
"587 408 OFFCURVE",
"538 390 CURVE SMOOTH",
"454 360 OFFCURVE",
"369 335 OFFCURVE",
"283 308 CURVE SMOOTH",
"266 303 OFFCURVE",
"248 298 OFFCURVE",
"230 293 CURVE",
"231 289 OFFCURVE",
"231 287 OFFCURVE",
"231 283 CURVE",
"291 272 OFFCURVE",
"351 260 OFFCURVE",
"410 251 CURVE SMOOTH",
"514 235 OFFCURVE",
"618 221 OFFCURVE",
"722 206 CURVE SMOOTH",
"765 199 OFFCURVE",
"783 173 OFFCURVE",
"776 125 CURVE SMOOTH",
"771 89 OFFCURVE",
"741 66 OFFCURVE",
"700 72 CURVE SMOOTH",
"615 85 OFFCURVE",
"528 99 OFFCURVE",
"443 113 CURVE SMOOTH",
"328 130 OFFCURVE",
"215 143 OFFCURVE",
"108 185 CURVE SMOOTH",
"73 197 OFFCURVE",
"46 215 OFFCURVE",
"40 255 CURVE SMOOTH",
"34 298 OFFCURVE",
"48 335 OFFCURVE",
"87 354 CURVE SMOOTH",
"138 379 OFFCURVE",
"192 399 OFFCURVE",
"246 421 CURVE SMOOTH",
"277 433 OFFCURVE",
"308 444 OFFCURVE",
"347 459 CURVE"
);
}
);
vertWidth = 844;
width = 1000;
}
);
note = cid08775;
},
{
glyphname = X.rotat;
lastChange = "2020-11-05 18:12:30 +0000";
layers = (
{
layerId = "E24ABCAD-EB1C-406E-B20D-44C7493A2261";
paths = (
{
closed = 1;
nodes = (
"352 529 OFFCURVE",
"335 518 OFFCURVE",
"319 506 CURVE",
"232 451 OFFCURVE",
"147 397 OFFCURVE",
"63 342 CURVE SMOOTH",
"46 331 OFFCURVE",
"34 317 OFFCURVE",
"45 296 CURVE SMOOTH",
"57 275 OFFCURVE",
"76 273 OFFCURVE",
"95 282 CURVE SMOOTH",
"109 288 OFFCURVE",
"121 295 OFFCURVE",
"134 303 CURVE SMOOTH",
"223 358 OFFCURVE",
"311 412 OFFCURVE",
"400 466 CURVE SMOOTH",
"435 487 OFFCURVE",
"452 486 OFFCURVE",
"481 459 CURVE SMOOTH",
"515 430 OFFCURVE",
"546 398 OFFCURVE",
"580 369 CURVE SMOOTH",
"621 334 OFFCURVE",
"663 300 OFFCURVE",
"706 267 CURVE SMOOTH",
"724 252 OFFCURVE",
"747 252 OFFCURVE",
"760 272 CURVE SMOOTH",
"765 278 OFFCURVE",
"753 298 OFFCURVE",
"746 312 CURVE SMOOTH",
"742 319 OFFCURVE",
"734 323 OFFCURVE",
"728 330 CURVE",
"666 387 OFFCURVE",
"604 445 OFFCURVE",
"543 502 CURVE SMOOTH",
"507 537 OFFCURVE",
"507 541 OFFCURVE",
"546 572 CURVE SMOOTH",
"592 606 OFFCURVE",
"641 637 OFFCURVE",
"686 673 CURVE SMOOTH",
"715 696 OFFCURVE",
"742 722 OFFCURVE",
"767 751 CURVE SMOOTH",
"775 760 OFFCURVE",
"774 784 OFFCURVE",
"767 793 CURVE SMOOTH",
"760 801 OFFCURVE",
"738 803 OFFCURVE",
"725 799 CURVE SMOOTH",
"709 794 OFFCURVE",
"696 781 OFFCURVE",
"681 772 CURVE",
"610 718 OFFCURVE",
"539 665 OFFCURVE",
"468 612 CURVE SMOOTH",
"440 591 OFFCURVE",
"417 592 OFFCURVE",
"390 613 CURVE SMOOTH",
"310 673 OFFCURVE",
"229 733 OFFCURVE",
"149 790 CURVE SMOOTH",
"133 803 OFFCURVE",
"114 813 OFFCURVE",
"95 817 CURVE SMOOTH",
"83 819 OFFCURVE",
"61 813 OFFCURVE",
"55 803 CURVE SMOOTH",
"49 793 OFFCURVE",
"54 772 OFFCURVE",
"62 761 CURVE SMOOTH",
"74 745 OFFCURVE",
"92 732 OFFCURVE",
"107 721 CURVE SMOOTH",
"155 688 OFFCURVE",
"204 656 OFFCURVE",
"253 623 CURVE SMOOTH",
"291 598 OFFCURVE",
"328 572 OFFCURVE",
"372 542 CURVE"
);
},
{
closed = 1;
nodes = (
"252 593 OFFCURVE",
"176 645 OFFCURVE",
"103 697 CURVE SMOOTH",
"81 712 OFFCURVE",
"60 727 OFFCURVE",
"41 745 CURVE SMOOTH",
"15 770 OFFCURVE",
"13 796 OFFCURVE",
"29 821 CURVE SMOOTH",
"45 845 OFFCURVE",
"74 857 OFFCURVE",
"103 843 CURVE SMOOTH",
"137 826 OFFCURVE",
"170 806 OFFCURVE",
"202 784 CURVE SMOOTH",
"264 741 OFFCURVE",
"323 696 OFFCURVE",
"384 653 CURVE SMOOTH",
"429 621 OFFCURVE",
"432 622 OFFCURVE",
"475 654 CURVE SMOOTH",
"542 700 OFFCURVE",
"607 748 OFFCURVE",
"675 794 CURVE SMOOTH",
"695 808 OFFCURVE",
"719 820 OFFCURVE",
"742 821 CURVE SMOOTH",
"760 822 OFFCURVE",
"782 807 OFFCURVE",
"796 793 CURVE SMOOTH",
"812 777 OFFCURVE",
"803 756 OFFCURVE",
"788 741 CURVE SMOOTH",
"769 719 OFFCURVE",
"750 697 OFFCURVE",
"727 679 CURVE SMOOTH",
"676 637 OFFCURVE",
"623 598 OFFCURVE",
"570 558 CURVE SMOOTH",
"552 545 OFFCURVE",
"552 533 OFFCURVE",
"567 519 CURVE SMOOTH",
"623 464 OFFCURVE",
"679 408 OFFCURVE",
"736 353 CURVE SMOOTH",
"747 342 OFFCURVE",
"762 335 OFFCURVE",
"769 322 CURVE SMOOTH",
"778 307 OFFCURVE",
"791 283 OFFCURVE",
"785 272 CURVE SMOOTH",
"775 256 OFFCURVE",
"751 237 OFFCURVE",
"733 238 CURVE SMOOTH",
"707 240 OFFCURVE",
"679 253 OFFCURVE",
"658 270 CURVE SMOOTH",
"595 321 OFFCURVE",
"535 376 OFFCURVE",
"473 430 CURVE SMOOTH",
"449 452 OFFCURVE",
"426 452 OFFCURVE",
"398 435 CURVE SMOOTH",
"310 380 OFFCURVE",
"222 326 OFFCURVE",
"135 272 CURVE SMOOTH",
"130 269 OFFCURVE",
"126 267 OFFCURVE",
"121 264 CURVE SMOOTH",
"85 246 OFFCURVE",
"43 253 OFFCURVE",
"26 282 CURVE SMOOTH",
"9 311 OFFCURVE",
"18 347 OFFCURVE",
"56 371 CURVE SMOOTH",
"135 422 OFFCURVE",
"219 472 OFFCURVE",
"301 521 CURVE",
"310 528 OFFCURVE",
"321 533 OFFCURVE",
"332 539 CURVE"
);
}
);
vertWidth = 674;
width = 1000;
}
);
note = cid08776;
},
{
glyphname = Y.rotat;
lastChange = "2020-11-05 18:12:30 +0000";
layers = (
{
layerId = "E24ABCAD-EB1C-406E-B20D-44C7493A2261";
paths = (
{
closed = 1;
nodes = (
"115 574 LINE SMOOTH",
"98 574 OFFCURVE",
"81 574 OFFCURVE",
"65 571 CURVE SMOOTH",
"47 569 OFFCURVE",
"23 565 OFFCURVE",
"28 541 CURVE SMOOTH",
"30 529 OFFCURVE",
"49 516 OFFCURVE",
"64 508 CURVE SMOOTH",
"74 502 OFFCURVE",
"88 504 OFFCURVE",
"101 505 CURVE SMOOTH",
"151 506 OFFCURVE",
"201 511 OFFCURVE",
"253 510 CURVE SMOOTH",
"326 508 OFFCURVE",
"399 504 OFFCURVE",
"465 462 CURVE SMOOTH",
"522 426 OFFCURVE",
"581 394 OFFCURVE",
"640 360 CURVE SMOOTH",
"673 341 OFFCURVE",
"706 322 OFFCURVE",
"741 306 CURVE SMOOTH",
"751 302 OFFCURVE",
"773 300 OFFCURVE",
"781 311 CURVE SMOOTH",
"790 322 OFFCURVE",
"781 341 OFFCURVE",
"774 353 CURVE SMOOTH",
"767 365 OFFCURVE",
"752 374 OFFCURVE",
"740 381 CURVE SMOOTH",
"666 422 OFFCURVE",
"592 462 OFFCURVE",
"518 504 CURVE SMOOTH",
"479 526 OFFCURVE",
"479 550 OFFCURVE",
"511 579 CURVE SMOOTH",
"585 643 OFFCURVE",
"659 706 OFFCURVE",
"731 770 CURVE SMOOTH",
"745 782 OFFCURVE",
"769 801 OFFCURVE",
"756 818 CURVE SMOOTH",
"738 842 OFFCURVE",
"704 840 OFFCURVE",
"674 813 CURVE SMOOTH",
"609 754 OFFCURVE",
"542 698 OFFCURVE",
"479 637 CURVE SMOOTH",
"434 593 OFFCURVE",
"386 568 OFFCURVE",
"323 573 CURVE SMOOTH",
"289 575 OFFCURVE",
"254 574 OFFCURVE",
"220 574 CURVE SMOOTH"
);
},
{
closed = 1;
nodes = (
"401 599 OFFCURVE",
"429 622 OFFCURVE",
"457 647 CURVE SMOOTH",
"519 706 OFFCURVE",
"581 764 OFFCURVE",
"644 822 CURVE SMOOTH",
"659 835 OFFCURVE",
"677 845 OFFCURVE",
"695 853 CURVE SMOOTH",
"727 870 OFFCURVE",
"755 864 OFFCURVE",
"770 841 CURVE SMOOTH",
"785 820 OFFCURVE",
"778 789 OFFCURVE",
"754 767 CURVE SMOOTH",
"703 721 OFFCURVE",
"650 677 OFFCURVE",
"600 631 CURVE SMOOTH",
"575 610 OFFCURVE",
"552 586 OFFCURVE",
"529 563 CURVE SMOOTH",
"511 546 OFFCURVE",
"514 531 OFFCURVE",
"535 520 CURVE SMOOTH",
"609 479 OFFCURVE",
"682 439 OFFCURVE",
"757 398 CURVE SMOOTH",
"798 376 OFFCURVE",
"816 345 OFFCURVE",
"804 312 CURVE SMOOTH",
"796 286 OFFCURVE",
"779 273 OFFCURVE",
"751 280 CURVE",
"740 284 OFFCURVE",
"728 287 OFFCURVE",
"718 293 CURVE SMOOTH",
"627 344 OFFCURVE",
"538 399 OFFCURVE",
"445 448 CURVE SMOOTH",
"410 466 OFFCURVE",
"368 480 OFFCURVE",
"328 483 CURVE SMOOTH",
"249 486 OFFCURVE",
"169 481 OFFCURVE",
"90 478 CURVE SMOOTH",
"40 476 OFFCURVE",
"8 502 OFFCURVE",
"9 545 CURVE SMOOTH",
"11 579 OFFCURVE",
"23 593 OFFCURVE",
"58 594 CURVE SMOOTH",
"104 595 OFFCURVE",
"150 594 OFFCURVE",
"197 594 CURVE",
"197 596 OFFCURVE",
"306 599 OFFCURVE",
"360 599 CURVE SMOOTH"
);
}
);
vertWidth = 620;
width = 1000;
}
);
note = cid08777;
},
{
glyphname = Z.rotat;
lastChange = "2020-11-05 18:12:30 +0000";
layers = (
{
layerId = "E24ABCAD-EB1C-406E-B20D-44C7493A2261";
paths = (
{
closed = 1;
nodes = (
"53 571 OFFCURVE",
"59 282 OFFCURVE",
"59 137 CURVE SMOOTH",
"59 125 OFFCURVE",
"61 112 OFFCURVE",
"64 101 CURVE SMOOTH",
"71 71 OFFCURVE",
"93 67 OFFCURVE",
"118 70 CURVE SMOOTH",
"142 74 OFFCURVE",
"148 92 OFFCURVE",
"147 113 CURVE SMOOTH",
"146 164 OFFCURVE",
"140 214 OFFCURVE",
"139 264 CURVE SMOOTH",
"136 364 OFFCURVE",
"129 465 OFFCURVE",
"133 566 CURVE SMOOTH",
"136 647 OFFCURVE",
"154 655 OFFCURVE",
"223 615 CURVE SMOOTH",
"349 543 OFFCURVE",
"471 465 OFFCURVE",
"597 392 CURVE SMOOTH",
"627 374 OFFCURVE",
"664 363 OFFCURVE",
"699 358 CURVE SMOOTH",
"749 353 OFFCURVE",
"763 370 OFFCURVE",
"764 420 CURVE SMOOTH",
"764 505 OFFCURVE",
"763 589 OFFCURVE",
"762 674 CURVE SMOOTH",
"761 717 OFFCURVE",
"759 760 OFFCURVE",
"752 802 CURVE SMOOTH",
"750 819 OFFCURVE",
"731 844 OFFCURVE",
"718 845 CURVE SMOOTH",
"689 847 OFFCURVE",
"677 823 OFFCURVE",
"678 795 CURVE SMOOTH",
"678 741 OFFCURVE",
"680 687 OFFCURVE",
"682 633 CURVE SMOOTH",
"683 592 OFFCURVE",
"692 552 OFFCURVE",
"686 512 CURVE SMOOTH",
"676 449 OFFCURVE",
"651 440 OFFCURVE",
"597 473 CURVE SMOOTH",
"467 556 OFFCURVE",
"337 642 OFFCURVE",
"206 723 CURVE SMOOTH",
"174 742 OFFCURVE",
"134 752 OFFCURVE",
"97 760 CURVE SMOOTH",
"66 768 OFFCURVE",
"50 748 OFFCURVE",
"50 715 CURVE SMOOTH",
"50 571 LINE"
);
},
{
closed = 1;
nodes = (
"786 348 OFFCURVE",
"752 314 OFFCURVE",
"685 330 CURVE SMOOTH",
"631 344 OFFCURVE",
"579 370 OFFCURVE",
"531 398 CURVE SMOOTH",
"420 462 OFFCURVE",
"313 532 OFFCURVE",
"204 599 CURVE SMOOTH",
"192 606 OFFCURVE",
"178 607 OFFCURVE",
"165 611 CURVE",
"163 598 OFFCURVE",
"158 586 OFFCURVE",
"158 573 CURVE SMOOTH",
"163 426 OFFCURVE",
"169 281 OFFCURVE",
"173 135 CURVE SMOOTH",
"174 66 OFFCURVE",
"156 39 OFFCURVE",
"110 38 CURVE SMOOTH",
"64 37 OFFCURVE",
"38 66 OFFCURVE",
"36 131 CURVE SMOOTH",
"34 186 OFFCURVE",
"39 242 OFFCURVE",
"39 297 CURVE SMOOTH",
"38 371 OFFCURVE",
"32 444 OFFCURVE",
"30 518 CURVE SMOOTH",
"29 582 OFFCURVE",
"26 646 OFFCURVE",
"29 710 CURVE SMOOTH",
"31 773 OFFCURVE",
"62 797 OFFCURVE",
"122 782 CURVE SMOOTH",
"164 772 OFFCURVE",
"204 755 OFFCURVE",
"241 733 CURVE SMOOTH",
"355 664 OFFCURVE",
"468 591 OFFCURVE",
"581 520 CURVE SMOOTH",
"591 514 OFFCURVE",
"600 508 OFFCURVE",
"610 503 CURVE SMOOTH",
"642 486 OFFCURVE",
"657 492 OFFCURVE",
"658 529 CURVE SMOOTH",
"659 595 OFFCURVE",
"656 661 OFFCURVE",
"655 728 CURVE SMOOTH",
"655 761 OFFCURVE",
"651 795 OFFCURVE",
"658 827 CURVE SMOOTH",
"661 843 OFFCURVE",
"679 867 OFFCURVE",
"695 870 CURVE SMOOTH",
"714 874 OFFCURVE",
"745 866 OFFCURVE",
"756 851 CURVE SMOOTH",
"773 831 OFFCURVE",
"785 800 OFFCURVE",
"786 772 CURVE SMOOTH",
"791 711 OFFCURVE",
"788 649 OFFCURVE",
"788 588 CURVE",
"788 588 OFFCURVE",
"787 474 OFFCURVE",
"786 418 CURVE SMOOTH"
);
}
);
vertWidth = 864;
width = 1000;
}
);
note = cid08778;
},
{
glyphname = a;
lastChange = "2020-11-05 18:12:30 +0000";
layers = (
{
layerId = "E24ABCAD-EB1C-406E-B20D-44C7493A2261";
paths = (
{
closed = 1;
nodes = (
"135 34 OFFCURVE",
"174 -7 OFFCURVE",
"217 -8 CURVE SMOOTH",
"275 -10 OFFCURVE",
"329 38 OFFCURVE",
"330 91 CURVE SMOOTH",
"331 130 OFFCURVE",
"280 172 OFFCURVE",
"231 172 CURVE SMOOTH",
"176 173 OFFCURVE",
"136 135 OFFCURVE",
"136 80 CURVE SMOOTH"
);
},
{
closed = 1;
nodes = (
"352 29 OFFCURVE",
"288 -33 OFFCURVE",
"224 -34 CURVE SMOOTH",
"160 -35 OFFCURVE",
"115 10 OFFCURVE",
"114 77 CURVE SMOOTH",
"112 138 OFFCURVE",
"164 196 OFFCURVE",
"220 193 CURVE SMOOTH",
"291 188 OFFCURVE",
"351 167 OFFCURVE",
"352 92 CURVE SMOOTH"
);
},
{
closed = 1;
nodes = (
"70 -12 OFFCURVE",
"114 -59 OFFCURVE",
"215 -76 CURVE SMOOTH",
"278 -84 OFFCURVE",
"319 -54 OFFCURVE",
"356 -3 CURVE SMOOTH",
"371 17 OFFCURVE",
"382 19 OFFCURVE",
"402 2 CURVE SMOOTH",
"433 -24 OFFCURVE",
"473 -27 OFFCURVE",
"512 -16 CURVE SMOOTH",
"522 -13 OFFCURVE",
"539 1 OFFCURVE",
"535 14 CURVE SMOOTH",
"532 25 OFFCURVE",
"516 33 OFFCURVE",
"493 25 CURVE",
"455 21 OFFCURVE",
"431 33 OFFCURVE",
"415 68 CURVE SMOOTH",
"406 86 OFFCURVE",
"399 107 OFFCURVE",
"390 127 CURVE SMOOTH",
"371 170 OFFCURVE",
"342 205 OFFCURVE",
"296 224 CURVE SMOOTH",
"261 239 OFFCURVE",
"262 246 OFFCURVE",
"279 280 CURVE SMOOTH",
"306 336 OFFCURVE",
"336 392 OFFCURVE",
"351 451 CURVE SMOOTH",
"370 524 OFFCURVE",
"346 580 OFFCURVE",
"262 590 CURVE SMOOTH",
"219 594 OFFCURVE",
"176 583 OFFCURVE",
"142 551 CURVE SMOOTH",
"115 526 OFFCURVE",
"100 495 OFFCURVE",
"97 459 CURVE SMOOTH",
"97 451 OFFCURVE",
"100 436 OFFCURVE",
"109 433 CURVE SMOOTH",
"118 430 OFFCURVE",
"128 441 OFFCURVE",
"133 447 CURVE SMOOTH",
"145 465 OFFCURVE",
"153 485 OFFCURVE",
"165 502 CURVE SMOOTH",
"188 536 OFFCURVE",
"227 551 OFFCURVE",
"258 538 CURVE SMOOTH",
"291 525 OFFCURVE",
"306 493 OFFCURVE",
"296 448 CURVE SMOOTH",
"275 355 OFFCURVE",
"234 271 OFFCURVE",
"150 219 CURVE SMOOTH",
"89 181 OFFCURVE",
"75 125 OFFCURVE",
"73 75 CURVE SMOOTH"
);
},
{
closed = 1;
nodes = (
"373 414 OFFCURVE",
"345 352 OFFCURVE",
"309 293 CURVE SMOOTH",
"287 256 OFFCURVE",
"286 256 OFFCURVE",
"325 235 CURVE SMOOTH",
"363 213 OFFCURVE",
"388 182 OFFCURVE",
"403 140 CURVE SMOOTH",
"410 121 OFFCURVE",
"417 101 OFFCURVE",
"428 83 CURVE SMOOTH",
"449 50 OFFCURVE",
"469 42 OFFCURVE",
"507 51 CURVE SMOOTH",
"531 57 OFFCURVE",
"550 56 OFFCURVE",
"562 32 CURVE SMOOTH",
"570 14 OFFCURVE",
"552 -14 OFFCURVE",
"527 -22 CURVE SMOOTH",
"485 -38 OFFCURVE",
"442 -41 OFFCURVE",
"400 -21 CURVE SMOOTH",
"387 -14 OFFCURVE",
"376 -11 OFFCURVE",
"362 -26 CURVE SMOOTH",
"309 -86 OFFCURVE",
"241 -103 OFFCURVE",
"165 -82 CURVE SMOOTH",
"100 -64 OFFCURVE",
"59 -18 OFFCURVE",
"50 49 CURVE SMOOTH",
"41 124 OFFCURVE",
"64 192 OFFCURVE",
"129 233 CURVE SMOOTH",
"212 284 OFFCURVE",
"247 363 OFFCURVE",
"274 449 CURVE SMOOTH",
"280 471 OFFCURVE",
"278 491 OFFCURVE",
"260 504 CURVE SMOOTH",
"240 518 OFFCURVE",
"217 516 OFFCURVE",
"200 500 CURVE SMOOTH",
"183 484 OFFCURVE",
"170 464 OFFCURVE",
"157 444 CURVE SMOOTH",
"145 424 OFFCURVE",
"136 402 OFFCURVE",
"107 410 CURVE SMOOTH",
"80 419 OFFCURVE",
"73 439 OFFCURVE",
"75 465 CURVE SMOOTH",
"78 527 OFFCURVE",
"130 587 OFFCURVE",
"200 606 CURVE SMOOTH",
"265 623 OFFCURVE",
"331 610 OFFCURVE",
"364 556 CURVE SMOOTH",
"376 538 OFFCURVE",
"380 513 OFFCURVE",
"378 491 CURVE SMOOTH"
);
}
);
vertWidth = 1000;
width = 573;
}
);
note = cid00066;
unicode = 0061;
},
{
glyphname = b;
lastChange = "2020-11-05 18:12:30 +0000";
layers = (
{
layerId = "E24ABCAD-EB1C-406E-B20D-44C7493A2261";
paths = (
{
closed = 1;
nodes = (
"150 5 OFFCURVE",
"150 5 OFFCURVE",
"236 7 CURVE SMOOTH",
"240 7 OFFCURVE",
"244 7 OFFCURVE",
"246 8 CURVE",
"302 11 OFFCURVE",
"341 49 OFFCURVE",
"349 105 CURVE SMOOTH",
"363 203 OFFCURVE",
"352 239 OFFCURVE",
"312 263 CURVE SMOOTH",
"272 288 OFFCURVE",
"231 288 OFFCURVE",
"191 265 CURVE SMOOTH",
"177 257 OFFCURVE",
"164 237 OFFCURVE",
"162 221 CURVE SMOOTH",
"154 178 OFFCURVE",
"154 135 OFFCURVE",
"153 101 CURVE SMOOTH"
);
},
{
closed = 1;
nodes = (
"186 -23 OFFCURVE",
"170 -20 OFFCURVE",
"154 -17 CURVE SMOOTH",
"128 -13 OFFCURVE",
"117 2 OFFCURVE",
"118 27 CURVE SMOOTH",
"121 87 OFFCURVE",
"123 148 OFFCURVE",
"129 208 CURVE SMOOTH",
"136 272 OFFCURVE",
"168 300 OFFCURVE",
"235 308 CURVE SMOOTH",
"299 316 OFFCURVE",
"356 286 OFFCURVE",
"374 231 CURVE SMOOTH",
"399 156 OFFCURVE",
"385 87 OFFCURVE",
"339 23 CURVE SMOOTH",
"304 -23 OFFCURVE",
"251 -22 OFFCURVE",
"199 -23 CURVE SMOOTH"
);
},
{
closed = 1;
nodes = (
"349 -64 OFFCURVE",
"399 -18 OFFCURVE",
"422 82 CURVE SMOOTH",
"431 125 OFFCURVE",
"434 171 OFFCURVE",
"431 215 CURVE SMOOTH",
"429 243 OFFCURVE",
"415 276 OFFCURVE",
"397 297 CURVE SMOOTH",
"342 360 OFFCURVE",
"271 378 OFFCURVE",
"191 348 CURVE SMOOTH",
"155 335 OFFCURVE",
"143 343 OFFCURVE",
"145 376 CURVE SMOOTH",
"152 464 OFFCURVE",
"158 552 OFFCURVE",
"165 640 CURVE SMOOTH",
"167 667 OFFCURVE",
"172 694 OFFCURVE",
"170 721 CURVE SMOOTH",
"169 732 OFFCURVE",
"155 748 OFFCURVE",
"146 749 CURVE SMOOTH",
"136 751 OFFCURVE",
"121 741 OFFCURVE",
"112 733 CURVE SMOOTH",
"107 729 OFFCURVE",
"105 717 OFFCURVE",
"105 708 CURVE SMOOTH",
"102 669 OFFCURVE",
"100 631 OFFCURVE",
"98 592 CURVE SMOOTH",
"91 469 OFFCURVE",
"83 345 OFFCURVE",
"76 222 CURVE SMOOTH",
"72 146 OFFCURVE",
"66 71 OFFCURVE",
"64 -3 CURVE SMOOTH",
"63 -58 OFFCURVE",
"74 -62 OFFCURVE",
"127 -67 CURVE SMOOTH",
"155 -69 OFFCURVE",
"203 -77 OFFCURVE",
"245 -73 CURVE SMOOTH"
);
},
{
closed = 1;
nodes = (
"162 -91 OFFCURVE",
"129 -86 OFFCURVE",
"96 -83 CURVE SMOOTH",
"67 -81 OFFCURVE",
"48 -66 OFFCURVE",
"44 -38 CURVE SMOOTH",
"40 -12 OFFCURVE",
"37 12 OFFCURVE",
"38 38 CURVE SMOOTH",
"47 192 OFFCURVE",
"58 346 OFFCURVE",
"68 501 CURVE SMOOTH",
"73 570 OFFCURVE",
"75 640 OFFCURVE",
"82 709 CURVE",
"82 724 OFFCURVE",
"89 745 OFFCURVE",
"100 751 CURVE SMOOTH",
"119 764 OFFCURVE",
"145 775 OFFCURVE",
"168 773 CURVE SMOOTH",
"195 772 OFFCURVE",
"197 742 OFFCURVE",
"196 721 CURVE SMOOTH",
"193 658 OFFCURVE",
"188 594 OFFCURVE",
"184 530 CURVE SMOOTH",
"182 487 OFFCURVE",
"181 443 OFFCURVE",
"180 400 CURVE SMOOTH",
"179 379 OFFCURVE",
"185 371 OFFCURVE",
"208 377 CURVE SMOOTH",
"353 411 OFFCURVE",
"478 296 OFFCURVE",
"460 145 CURVE SMOOTH",
"459 128 OFFCURVE",
"456 113 OFFCURVE",
"452 97 CURVE SMOOTH",
"425 -40 OFFCURVE",
"355 -98 OFFCURVE",
"195 -92 CURVE SMOOTH"
);
}
);
vertWidth = 1000;
width = 474;
}
);
note = cid00067;
unicode = 0062;
},
{
glyphname = c;
lastChange = "2020-11-05 18:12:30 +0000";
layers = (
{
layerId = "E24ABCAD-EB1C-406E-B20D-44C7493A2261";
paths = (
{
closed = 1;
nodes = (
"46 140 OFFCURVE",
"48 115 OFFCURVE",
"53 91 CURVE SMOOTH",
"75 -20 OFFCURVE",
"123 -73 OFFCURVE",
"225 -86 CURVE SMOOTH",
"299 -95 OFFCURVE",
"369 -83 OFFCURVE",
"419 -20 CURVE SMOOTH",
"431 -6 OFFCURVE",
"453 15 OFFCURVE",
"432 32 CURVE SMOOTH",
"412 48 OFFCURVE",
"398 22 OFFCURVE",
"386 7 CURVE",
"318 -65 OFFCURVE",
"208 -65 OFFCURVE",
"146 8 CURVE SMOOTH",
"80 88 OFFCURVE",
"75 213 OFFCURVE",
"135 298 CURVE SMOOTH",
"189 376 OFFCURVE",
"324 380 OFFCURVE",
"382 307 CURVE SMOOTH",
"389 298 OFFCURVE",
"396 287 OFFCURVE",
"405 281 CURVE SMOOTH",
"412 277 OFFCURVE",
"423 276 OFFCURVE",
"429 278 CURVE SMOOTH",
"432 279 OFFCURVE",
"434 292 OFFCURVE",
"433 299 CURVE SMOOTH",
"432 306 OFFCURVE",
"428 313 OFFCURVE",
"424 321 CURVE SMOOTH",
"386 387 OFFCURVE",
"327 424 OFFCURVE",
"249 413 CURVE SMOOTH",
"126 395 OFFCURVE",
"45 291 OFFCURVE",
"43 164 CURVE"
);
},
{
closed = 1;
nodes = (
"190 -103 OFFCURVE",
"109 -92 OFFCURVE",
"71 -22 CURVE SMOOTH",
"45 25 OFFCURVE",
"33 83 OFFCURVE",
"24 138 CURVE SMOOTH",
"3 269 OFFCURVE",
"91 406 OFFCURVE",
"219 430 CURVE SMOOTH",
"319 449 OFFCURVE",
"384 417 OFFCURVE",
"438 339 CURVE SMOOTH",
"442 332 OFFCURVE",
"447 325 OFFCURVE",
"450 318 CURVE SMOOTH",
"458 300 OFFCURVE",
"465 280 OFFCURVE",
"444 265 CURVE SMOOTH",
"423 250 OFFCURVE",
"401 253 OFFCURVE",
"382 268 CURVE SMOOTH",
"372 276 OFFCURVE",
"365 287 OFFCURVE",
"359 298 CURVE SMOOTH",
"341 326 OFFCURVE",
"316 339 OFFCURVE",
"282 337 CURVE SMOOTH",
"188 332 OFFCURVE",
"135 284 OFFCURVE",
"121 190 CURVE SMOOTH",
"115 144 OFFCURVE",
"115 100 OFFCURVE",
"135 58 CURVE SMOOTH",
"185 -42 OFFCURVE",
"288 -43 OFFCURVE",
"375 25 CURVE SMOOTH",
"384 33 OFFCURVE",
"390 44 OFFCURVE",
"400 49 CURVE SMOOTH",
"413 54 OFFCURVE",
"432 60 OFFCURVE",
"440 53 CURVE SMOOTH",
"451 45 OFFCURVE",
"460 26 OFFCURVE",
"459 13 CURVE SMOOTH",
"459 -1 OFFCURVE",
"449 -18 OFFCURVE",
"438 -29 CURVE SMOOTH",
"392 -81 OFFCURVE",
"337 -104 OFFCURVE",
"247 -103 CURVE SMOOTH"
);
}
);
vertWidth = 1000;
width = 479;
}
);
note = cid00068;
unicode = 0063;
},
{
glyphname = d;
lastChange = "2020-11-05 18:12:30 +0000";
layers = (
{
layerId = "E24ABCAD-EB1C-406E-B20D-44C7493A2261";
paths = (
{
closed = 1;
nodes = (
"346 125 OFFCURVE",
"347 171 OFFCURVE",
"342 194 CURVE SMOOTH",
"339 208 OFFCURVE",
"329 227 OFFCURVE",
"316 232 CURVE SMOOTH",
"228 265 OFFCURVE",
"137 199 OFFCURVE",
"140 106 CURVE SMOOTH",
"140 89 OFFCURVE",
"140 68 OFFCURVE",
"147 54 CURVE SMOOTH",
"158 34 OFFCURVE",
"172 7 OFFCURVE",
"191 1 CURVE SMOOTH",
"226 -8 OFFCURVE",
"266 -8 OFFCURVE",
"303 -7 CURVE SMOOTH",
"316 -6 OFFCURVE",
"334 12 OFFCURVE",
"337 26 CURVE SMOOTH",
"344 58 OFFCURVE",
"344 91 OFFCURVE",
"347 125 CURVE"
);
},
{
closed = 1;
nodes = (
"365 -15 OFFCURVE",
"351 -33 OFFCURVE",
"314 -34 CURVE SMOOTH",
"271 -36 OFFCURVE",
"228 -32 OFFCURVE",
"185 -27 CURVE SMOOTH",
"156 -23 OFFCURVE",
"136 -3 OFFCURVE",
"125 24 CURVE SMOOTH",
"103 82 OFFCURVE",
"96 144 OFFCURVE",
"135 196 CURVE SMOOTH",
"177 254 OFFCURVE",
"243 266 OFFCURVE",
"311 261 CURVE SMOOTH",
"352 259 OFFCURVE",
"366 239 OFFCURVE",
"367 198 CURVE SMOOTH",
"368 169 OFFCURVE",
"367 139 OFFCURVE",
"367 110 CURVE",
"367 110 OFFCURVE",
"367 51 OFFCURVE",
"365 20 CURVE SMOOTH"
);
},
{
closed = 1;
nodes = (
"425 664 OFFCURVE",
"428 684 OFFCURVE",
"423 701 CURVE SMOOTH",
"418 716 OFFCURVE",
"409 739 OFFCURVE",
"392 738 CURVE SMOOTH",
"377 737 OFFCURVE",
"369 713 OFFCURVE",
"368 700 CURVE SMOOTH",
"365 650 OFFCURVE",
"366 599 OFFCURVE",
"366 547 CURVE SMOOTH",
"366 487 OFFCURVE",
"368 428 OFFCURVE",
"367 367 CURVE SMOOTH",
"367 327 OFFCURVE",
"358 320 OFFCURVE",
"317 319 CURVE SMOOTH",
"287 318 OFFCURVE",
"256 316 OFFCURVE",
"227 311 CURVE SMOOTH",
"120 295 OFFCURVE",
"65 237 OFFCURVE",
"56 131 CURVE SMOOTH",
"54 96 OFFCURVE",
"59 61 OFFCURVE",
"65 28 CURVE SMOOTH",
"77 -27 OFFCURVE",
"121 -66 OFFCURVE",
"181 -69 CURVE SMOOTH",
"243 -72 OFFCURVE",
"305 -72 OFFCURVE",
"367 -70 CURVE SMOOTH",
"407 -69 OFFCURVE",
"416 -60 OFFCURVE",
"413 -22 CURVE SMOOTH",
"400 110 OFFCURVE",
"414 386 OFFCURVE",
"414 392 CURVE SMOOTH",
"417 476 OFFCURVE",
"425 645 OFFCURVE",
"425 645 CURVE"
);
},
{
closed = 1;
nodes = (
"447 517 OFFCURVE",
"435 274 OFFCURVE",
"442 -47 CURVE SMOOTH",
"443 -83 OFFCURVE",
"418 -101 OFFCURVE",
"386 -101 CURVE SMOOTH",
"311 -101 OFFCURVE",
"235 -99 OFFCURVE",
"159 -93 CURVE SMOOTH",
"120 -90 OFFCURVE",
"68 -60 OFFCURVE",
"50 -24 CURVE SMOOTH",
"12 51 OFFCURVE",
"3 140 OFFCURVE",
"37 220 CURVE SMOOTH",
"64 283 OFFCURVE",
"117 317 OFFCURVE",
"181 333 CURVE SMOOTH",
"216 342 OFFCURVE",
"252 347 OFFCURVE",
"287 346 CURVE SMOOTH",
"324 346 OFFCURVE",
"350 350 OFFCURVE",
"350 378 CURVE SMOOTH",
"350 645 LINE SMOOTH",
"350 664 OFFCURVE",
"350 683 OFFCURVE",
"351 701 CURVE SMOOTH",
"354 735 OFFCURVE",
"371 753 OFFCURVE",
"401 753 CURVE SMOOTH",
"429 753 OFFCURVE",
"451 733 OFFCURVE",
"453 702 CURVE SMOOTH",
"455 665 OFFCURVE",
"449 589 OFFCURVE",
"447 589 CURVE"
);
}
);
vertWidth = 1000;
width = 500;
}
);
note = cid00069;
unicode = 0064;
},
{
glyphname = e;
lastChange = "2020-11-05 18:12:30 +0000";
layers = (
{
layerId = "E24ABCAD-EB1C-406E-B20D-44C7493A2261";
paths = (
{
closed = 1;
nodes = (
"264 276 OFFCURVE",
"310 277 OFFCURVE",
"334 277 CURVE SMOOTH",
"350 277 OFFCURVE",
"371 276 OFFCURVE",
"372 295 CURVE SMOOTH",
"372 307 OFFCURVE",
"358 324 OFFCURVE",
"347 330 CURVE SMOOTH",
"295 357 OFFCURVE",
"242 355 OFFCURVE",
"190 328 CURVE SMOOTH",
"181 323 OFFCURVE",
"174 312 OFFCURVE",
"168 303 CURVE SMOOTH",
"158 287 OFFCURVE",
"163 276 OFFCURVE",
"183 276 CURVE SMOOTH",
"264 276 LINE"
);
},
{
closed = 1;
nodes = (
"133 260 OFFCURVE",
"125 273 OFFCURVE",
"134 292 CURVE SMOOTH",
"142 309 OFFCURVE",
"151 329 OFFCURVE",
"165 337 CURVE SMOOTH",
"215 363 OFFCURVE",
"268 377 OFFCURVE",
"325 365 CURVE SMOOTH",
"357 357 OFFCURVE",
"381 340 OFFCURVE",
"391 309 CURVE SMOOTH",
"402 276 OFFCURVE",
"389 256 OFFCURVE",
"354 254 CURVE SMOOTH",
"339 253 OFFCURVE",
"324 254 OFFCURVE",
"308 254 CURVE SMOOTH",
"264 254 LINE",
"264 254 OFFCURVE",
"192 257 OFFCURVE",
"156 258 CURVE SMOOTH"
);
},
{
closed = 1;
nodes = (
"303 226 OFFCURVE",
"346 224 OFFCURVE",
"389 226 CURVE SMOOTH",
"425 228 OFFCURVE",
"438 244 OFFCURVE",
"440 280 CURVE SMOOTH",
"441 336 OFFCURVE",
"406 379 OFFCURVE",
"348 393 CURVE SMOOTH",
"291 405 OFFCURVE",
"236 400 OFFCURVE",
"182 382 CURVE SMOOTH",
"128 364 OFFCURVE",
"97 329 OFFCURVE",
"85 277 CURVE SMOOTH",
"82 259 OFFCURVE",
"74 246 OFFCURVE",
"58 235 CURVE SMOOTH",
"38 222 OFFCURVE",
"32 192 OFFCURVE",
"50 181 CURVE SMOOTH",
"75 165 OFFCURVE",
"72 142 OFFCURVE",
"73 120 CURVE SMOOTH",
"77 17 OFFCURVE",
"128 -73 OFFCURVE",
"254 -82 CURVE SMOOTH",
"318 -86 OFFCURVE",
"379 -77 OFFCURVE",
"423 -24 CURVE SMOOTH",
"434 -9 OFFCURVE",
"443 8 OFFCURVE",
"427 21 CURVE SMOOTH",
"411 35 OFFCURVE",
"402 13 OFFCURVE",
"394 3 CURVE",
"359 -32 OFFCURVE",
"303 -49 OFFCURVE",
"232 -39 CURVE SMOOTH",
"195 -34 OFFCURVE",
"168 -18 OFFCURVE",
"149 9 CURVE SMOOTH",
"110 71 OFFCURVE",
"113 140 OFFCURVE",
"117 207 CURVE SMOOTH",
"118 223 OFFCURVE",
"128 227 OFFCURVE",
"141 227 CURVE SMOOTH",
"182 226 OFFCURVE",
"221 226 OFFCURVE",
"261 226 CURVE SMOOTH"
);
},
{
closed = 1;
nodes = (
"146 204 OFFCURVE",
"132 196 OFFCURVE",
"131 179 CURVE SMOOTH",
"129 117 OFFCURVE",
"129 93 OFFCURVE",
"154 38 CURVE SMOOTH",
"159 28 OFFCURVE",
"186 4 OFFCURVE",
"196 -1 CURVE SMOOTH",
"242 -27 OFFCURVE",
"312 -36 OFFCURVE",
"381 23 CURVE",
"391 40 OFFCURVE",
"408 57 OFFCURVE",
"430 42 CURVE SMOOTH",
"448 31 OFFCURVE",
"451 -2 OFFCURVE",
"438 -23 CURVE SMOOTH",
"417 -60 OFFCURVE",
"385 -82 OFFCURVE",
"345 -90 CURVE SMOOTH",
"280 -102 OFFCURVE",
"264 -100 OFFCURVE",
"195 -89 CURVE SMOOTH",
"127 -78 OFFCURVE",
"87 -29 OFFCURVE",
"66 32 CURVE SMOOTH",
"57 56 OFFCURVE",
"51 83 OFFCURVE",
"48 108 CURVE SMOOTH",
"46 135 OFFCURVE",
"45 159 OFFCURVE",
"27 182 CURVE SMOOTH",
"12 203 OFFCURVE",
"21 242 OFFCURVE",
"39 261 CURVE SMOOTH",
"46 268 OFFCURVE",
"55 276 OFFCURVE",
"58 285 CURVE SMOOTH",
"92 381 OFFCURVE",
"168 415 OFFCURVE",
"261 425 CURVE SMOOTH",
"314 431 OFFCURVE",
"363 422 OFFCURVE",
"407 389 CURVE SMOOTH",
"447 359 OFFCURVE",
"465 316 OFFCURVE",
"453 267 CURVE SMOOTH",
"448 242 OFFCURVE",
"437 205 OFFCURVE",
"411 202 CURVE SMOOTH",
"354 197 OFFCURVE",
"192 200 OFFCURVE",
"163 202 CURVE SMOOTH"
);
}
);
vertWidth = 1000;
width = 480;
}
);
note = cid00070;
unicode = 0065;
},
{
glyphname = f;
lastChange = "2020-11-05 18:12:30 +0000";
layers = (
{
layerId = "E24ABCAD-EB1C-406E-B20D-44C7493A2261";
paths = (
{
closed = 1;
nodes = (
"235 604 OFFCURVE",
"330 574 OFFCURVE",
"333 602 CURVE SMOOTH",
"338 653 OFFCURVE",
"300 672 OFFCURVE",
"233 660 CURVE SMOOTH",
"205 655 OFFCURVE",
"180 627 OFFCURVE",
"179 598 CURVE SMOOTH",
"176 512 OFFCURVE",
"170 427 OFFCURVE",
"167 341 CURVE SMOOTH",
"165 280 OFFCURVE",
"156 273 OFFCURVE",
"96 277 CURVE SMOOTH",
"76 279 OFFCURVE",
"56 276 OFFCURVE",
"54 249 CURVE SMOOTH",
"53 223 OFFCURVE",
"76 223 OFFCURVE",
"93 222 CURVE SMOOTH",
"146 221 OFFCURVE",
"155 217 OFFCURVE",
"150 165 CURVE SMOOTH",
"144 93 OFFCURVE",
"138 21 OFFCURVE",
"133 -50 CURVE SMOOTH",
"132 -69 OFFCURVE",
"138 -81 OFFCURVE",
"158 -85 CURVE SMOOTH",
"194 -91 OFFCURVE",
"189 -16 OFFCURVE",
"190 2 CURVE SMOOTH",
"193 51 OFFCURVE",
"192 102 OFFCURVE",
"199 150 CURVE SMOOTH",
"206 204 OFFCURVE",
"234 224 OFFCURVE",
"288 223 CURVE SMOOTH",
"327 223 OFFCURVE",
"371 213 OFFCURVE",
"409 213 CURVE SMOOTH",
"461 212 OFFCURVE",
"472 214 OFFCURVE",
"469 249 CURVE SMOOTH",
"468 261 OFFCURVE",
"460 264 OFFCURVE",
"453 266 CURVE SMOOTH",
"442 269 OFFCURVE",
"431 268 OFFCURVE",
"420 269 CURVE",
"365 269 OFFCURVE",
"310 271 OFFCURVE",
"256 273 CURVE SMOOTH",
"234 273 OFFCURVE",
"224 285 OFFCURVE",
"225 306 CURVE SMOOTH",
"226 334 OFFCURVE",
"229 480 OFFCURVE",
"231 527 CURVE SMOOTH"
);
},
{
closed = 1;
nodes = (
"230 692 OFFCURVE",
"320 693 OFFCURVE",
"344 657 CURVE SMOOTH",
"367 624 OFFCURVE",
"369 573 OFFCURVE",
"332 562 CURVE SMOOTH",
"309 555 OFFCURVE",
"255 550 OFFCURVE",
"255 526 CURVE SMOOTH",
"255 457 OFFCURVE",
"253 388 OFFCURVE",
"255 319 CURVE SMOOTH",
"255 310 OFFCURVE",
"248 293 OFFCURVE",
"282 293 CURVE SMOOTH",
"344 294 OFFCURVE",
"390 290 OFFCURVE",
"445 290 CURVE SMOOTH",
"471 290 OFFCURVE",
"489 279 OFFCURVE",
"491 253 CURVE SMOOTH",
"494 227 OFFCURVE",
"489 196 OFFCURVE",
"462 194 CURVE SMOOTH",
"418 192 OFFCURVE",
"367 196 OFFCURVE",
"323 199 CURVE SMOOTH",
"264 204 OFFCURVE",
"229 199 OFFCURVE",
"226 122 CURVE SMOOTH",
"224 77 OFFCURVE",
"221 38 OFFCURVE",
"218 -7 CURVE SMOOTH",
"217 -28 OFFCURVE",
"214 -49 OFFCURVE",
"210 -70 CURVE SMOOTH",
"203 -98 OFFCURVE",
"177 -107 OFFCURVE",
"149 -106 CURVE SMOOTH",
"121 -104 OFFCURVE",
"109 -87 OFFCURVE",
"107 -63 CURVE SMOOTH",
"106 -36 OFFCURVE",
"106 -7 OFFCURVE",
"108 19 CURVE SMOOTH",
"112 68 OFFCURVE",
"118 116 OFFCURVE",
"123 165 CURVE SMOOTH",
"126 189 OFFCURVE",
"106 201 OFFCURVE",
"81 202 CURVE SMOOTH",
"54 204 OFFCURVE",
"29 211 OFFCURVE",
"27 244 CURVE SMOOTH",
"25 271 OFFCURVE",
"47 298 OFFCURVE",
"82 299 CURVE SMOOTH",
"132 299 OFFCURVE",
"136 293 OFFCURVE",
"138 343 CURVE SMOOTH",
"141 429 OFFCURVE",
"145 516 OFFCURVE",
"151 602 CURVE SMOOTH",
"153 636 OFFCURVE",
"173 655 OFFCURVE",
"201 673 CURVE SMOOTH"
);
}
);
vertWidth = 1000;
width = 560;
}
);
note = cid00071;
unicode = 0066;
},
{
glyphname = g;
lastChange = "2020-11-05 18:12:30 +0000";
layers = (
{
layerId = "E24ABCAD-EB1C-406E-B20D-44C7493A2261";
paths = (
{
closed = 1;
nodes = (
"277 112 OFFCURVE",
"258 123 OFFCURVE",
"240 122 CURVE SMOOTH",
"217 121 OFFCURVE",
"199 107 OFFCURVE",
"197 85 CURVE SMOOTH",
"195 67 OFFCURVE",
"210 43 OFFCURVE",
"230 43 CURVE SMOOTH",
"248 42 OFFCURVE",
"274 57 OFFCURVE",
"276 82 CURVE SMOOTH"
);
},
{
closed = 1;
nodes = (
"300 43 OFFCURVE",
"271 14 OFFCURVE",
"238 14 CURVE SMOOTH",
"201 15 OFFCURVE",
"169 47 OFFCURVE",
"169 82 CURVE SMOOTH",
"170 114 OFFCURVE",
"205 145 OFFCURVE",
"235 144 CURVE SMOOTH",
"274 143 OFFCURVE",
"301 118 OFFCURVE",
"300 85 CURVE SMOOTH"
);
},
{
closed = 1;
nodes = (
"242 -120 OFFCURVE",
"222 -100 OFFCURVE",
"198 -99 CURVE SMOOTH",
"178 -98 OFFCURVE",
"166 -110 OFFCURVE",
"168 -130 CURVE SMOOTH",
"168 -154 OFFCURVE",
"186 -167 OFFCURVE",
"208 -167 CURVE SMOOTH",
"217 -168 OFFCURVE",
"230 -155 OFFCURVE",
"232 -148 CURVE SMOOTH"
);
},
{
closed = 1;
nodes = (
"267 -170 OFFCURVE",
"233 -188 OFFCURVE",
"204 -189 CURVE SMOOTH",
"165 -190 OFFCURVE",
"135 -163 OFFCURVE",
"135 -126 CURVE SMOOTH",
"136 -94 OFFCURVE",
"165 -75 OFFCURVE",
"201 -75 CURVE SMOOTH",
"234 -76 OFFCURVE",
"266 -99 OFFCURVE",
"266 -137 CURVE SMOOTH"
);
},
{
closed = 1;
nodes = (
"350 380 OFFCURVE",
"284 419 OFFCURVE",
"226 420 CURVE SMOOTH",
"180 420 OFFCURVE",
"125 358 OFFCURVE",
"124 306 CURVE SMOOTH",
"123 247 OFFCURVE",
"176 194 OFFCURVE",
"253 194 CURVE SMOOTH",
"304 194 OFFCURVE",
"345 231 OFFCURVE",
"348 307 CURVE SMOOTH"
);
},
{
closed = 1;
nodes = (
"368 249 OFFCURVE",
"352 222 OFFCURVE",
"308 191 CURVE SMOOTH",
"301 186 OFFCURVE",
"274 173 OFFCURVE",
"259 174 CURVE SMOOTH",
"209 176 OFFCURVE",
"198 183 OFFCURVE",
"159 205 CURVE SMOOTH",
"100 239 OFFCURVE",
"86 289 OFFCURVE",
"113 364 CURVE SMOOTH",
"131 413 OFFCURVE",
"194 448 OFFCURVE",
"248 439 CURVE SMOOTH",
"327 426 OFFCURVE",
"375 380 OFFCURVE",
"370 286 CURVE SMOOTH"
);
},
{
closed = 1;
nodes = (
"408 440 OFFCURVE",
"399 441 OFFCURVE",
"394 436 CURVE SMOOTH",
"378 419 OFFCURVE",
"374 425 OFFCURVE",
"347 446 CURVE SMOOTH",
"308 478 OFFCURVE",
"266 487 OFFCURVE",
"217 481 CURVE SMOOTH",
"176 474 OFFCURVE",
"137 463 OFFCURVE",
"107 430 CURVE SMOOTH",
"100 421 OFFCURVE",
"87 418 OFFCURVE",
"76 411 CURVE SMOOTH",
"59 400 OFFCURVE",
"45 388 OFFCURVE",
"50 364 CURVE SMOOTH",
"53 347 OFFCURVE",
"54 330 OFFCURVE",
"55 313 CURVE SMOOTH",
"62 194 OFFCURVE",
"110 199 OFFCURVE",
"130 170 CURVE SMOOTH",
"136 161 OFFCURVE",
"143 145 OFFCURVE",
"139 139 CURVE SMOOTH",
"106 85 OFFCURVE",
"124 43 OFFCURVE",
"166 4 CURVE SMOOTH",
"191 -19 OFFCURVE",
"184 -35 OFFCURVE",
"152 -50 CURVE SMOOTH",
"133 -59 OFFCURVE",
"113 -74 OFFCURVE",
"103 -92 CURVE SMOOTH",
"84 -122 OFFCURVE",
"95 -152 OFFCURVE",
"120 -177 CURVE SMOOTH",
"129 -186 OFFCURVE",
"111 -210 OFFCURVE",
"97 -207 CURVE SMOOTH",
"90 -205 OFFCURVE",
"84 -197 OFFCURVE",
"77 -200 CURVE SMOOTH",
"64 -204 OFFCURVE",
"81 -223 OFFCURVE",
"87 -230 CURVE",
"129 -267 OFFCURVE",
"227 -266 OFFCURVE",
"272 -226 CURVE SMOOTH",
"316 -187 OFFCURVE",
"319 -122 OFFCURVE",
"278 -65 CURVE SMOOTH",
"254 -32 OFFCURVE",
"259 -13 OFFCURVE",
"295 5 CURVE SMOOTH",
"305 11 OFFCURVE",
"322 24 OFFCURVE",
"323 33 CURVE SMOOTH",
"329 63 OFFCURVE",
"333 89 OFFCURVE",
"329 120 CURVE SMOOTH",
"326 143 OFFCURVE",
"329 157 OFFCURVE",
"347 172 CURVE SMOOTH",
"382 201 OFFCURVE",
"402 239 OFFCURVE",
"409 283 CURVE SMOOTH",
"412 310 OFFCURVE",
"419 332 OFFCURVE",
"440 349 CURVE SMOOTH",
"446 355 OFFCURVE",
"452 371 OFFCURVE",
"448 377 CURVE",
"438 398 OFFCURVE",
"425 415 OFFCURVE",
"412 434 CURVE SMOOTH"
);
},
{
closed = 1;
nodes = (
"400 484 OFFCURVE",
"423 479 OFFCURVE",
"436 448 CURVE SMOOTH",
"442 432 OFFCURVE",
"451 415 OFFCURVE",
"462 402 CURVE SMOOTH",
"480 378 OFFCURVE",
"478 357 OFFCURVE",
"455 337 CURVE SMOOTH",
"446 329 OFFCURVE",
"437 314 OFFCURVE",
"436 301 CURVE SMOOTH",
"430 243 OFFCURVE",
"400 199 OFFCURVE",
"362 156 CURVE SMOOTH",
"355 148 OFFCURVE",
"351 134 OFFCURVE",
"351 122 CURVE",
"347 92 OFFCURVE",
"351 61 OFFCURVE",
"344 32 CURVE SMOOTH",
"340 13 OFFCURVE",
"322 -4 OFFCURVE",
"307 -17 CURVE SMOOTH",
"291 -31 OFFCURVE",
"285 -42 OFFCURVE",
"298 -59 CURVE SMOOTH",
"336 -113 OFFCURVE",
"337 -170 OFFCURVE",
"298 -221 CURVE SMOOTH",
"260 -275 OFFCURVE",
"201 -290 OFFCURVE",
"140 -275 CURVE SMOOTH",
"119 -271 OFFCURVE",
"98 -258 OFFCURVE",
"80 -247 CURVE SMOOTH",
"67 -239 OFFCURVE",
"54 -221 OFFCURVE",
"54 -207 CURVE",
"53 -202 OFFCURVE",
"58 -195 OFFCURVE",
"68 -189 CURVE SMOOTH",
"81 -182 OFFCURVE",
"85 -166 OFFCURVE",
"79 -153 CURVE SMOOTH",
"54 -95 OFFCURVE",
"80 -51 OFFCURVE",
"163 -28 CURVE",
"149 -9 OFFCURVE",
"140 5 OFFCURVE",
"128 18 CURVE SMOOTH",
"101 48 OFFCURVE",
"91 80 OFFCURVE",
"109 118 CURVE SMOOTH",
"119 141 OFFCURVE",
"101 157 OFFCURVE",
"83 174 CURVE SMOOTH",
"43 210 OFFCURVE",
"31 252 OFFCURVE",
"30 307 CURVE SMOOTH",
"30 316 OFFCURVE",
"28 326 OFFCURVE",
"26 335 CURVE SMOOTH",
"17 384 OFFCURVE",
"29 411 OFFCURVE",
"75 437 CURVE",
"79 440 OFFCURVE",
"84 443 OFFCURVE",
"87 447 CURVE",
"179 528 OFFCURVE",
"273 532 OFFCURVE",
"377 458 CURVE"
);
}
);
vertWidth = 1000;
width = 489;
}
);
note = cid00072;
unicode = 0067;
},
